solid OpenSCAD_Model
  facet normal 0.994522 0.104529 0
    outer loop
      vertex 9 0 60
      vertex 8.80333 1.8712 1
      vertex 8.80333 1.8712 60
    endloop
  endfacet
  facet normal 0.994522 0.104529 0
    outer loop
      vertex 8.80333 1.8712 1
      vertex 9 0 60
      vertex 9 0 1
    endloop
  endfacet
  facet normal -0.994522 0.104529 0
    outer loop
      vertex -9 0 1
      vertex -8.80333 1.8712 60
      vertex -8.80333 1.8712 1
    endloop
  endfacet
  facet normal -0.994522 0.104529 0
    outer loop
      vertex -8.80333 1.8712 60
      vertex -9 0 1
      vertex -9 0 60
    endloop
  endfacet
  facet normal 0 1 -0
    outer loop
      vertex 0.940756 8.9507 1
      vertex -0.940756 8.9507 60
      vertex 0.940756 8.9507 60
    endloop
  endfacet
  facet normal 0 1 0
    outer loop
      vertex -0.940756 8.9507 60
      vertex 0.940756 8.9507 1
      vertex -0.940756 8.9507 1
    endloop
  endfacet
  facet normal 0 -1 0
    outer loop
      vertex -0.940756 -8.9507 1
      vertex 0.940756 -8.9507 60
      vertex -0.940756 -8.9507 60
    endloop
  endfacet
  facet normal 0 -1 -0
    outer loop
      vertex 0.940756 -8.9507 60
      vertex -0.940756 -8.9507 1
      vertex 0.940756 -8.9507 1
    endloop
  endfacet
  facet normal 0.587786 0.809017 -0
    outer loop
      vertex 6.02217 6.6883 1
      vertex 4.5 7.79423 60
      vertex 6.02217 6.6883 60
    endloop
  endfacet
  facet normal 0.587786 0.809017 0
    outer loop
      vertex 4.5 7.79423 60
      vertex 6.02217 6.6883 1
      vertex 4.5 7.79423 1
    endloop
  endfacet
  facet normal -0.743145 0.669131 0
    outer loop
      vertex -7.28115 5.29007 1
      vertex -6.02217 6.6883 60
      vertex -6.02217 6.6883 1
    endloop
  endfacet
  facet normal -0.743145 0.669131 0
    outer loop
      vertex -6.02217 6.6883 60
      vertex -7.28115 5.29007 1
      vertex -7.28115 5.29007 60
    endloop
  endfacet
  facet normal -0.866025 0.5 0
    outer loop
      vertex -8.22191 3.66063 1
      vertex -7.28115 5.29007 60
      vertex -7.28115 5.29007 1
    endloop
  endfacet
  facet normal -0.866025 0.5 0
    outer loop
      vertex -7.28115 5.29007 60
      vertex -8.22191 3.66063 1
      vertex -8.22191 3.66063 60
    endloop
  endfacet
  facet normal -0.406737 0.913545 0
    outer loop
      vertex -2.78115 8.55951 1
      vertex -4.5 7.79423 60
      vertex -2.78115 8.55951 60
    endloop
  endfacet
  facet normal -0.406737 0.913545 0
    outer loop
      vertex -4.5 7.79423 60
      vertex -2.78115 8.55951 1
      vertex -4.5 7.79423 1
    endloop
  endfacet
  facet normal 0.866025 0.5 0
    outer loop
      vertex 8.22191 3.66063 60
      vertex 7.28115 5.29007 1
      vertex 7.28115 5.29007 60
    endloop
  endfacet
  facet normal 0.866025 0.5 0
    outer loop
      vertex 7.28115 5.29007 1
      vertex 8.22191 3.66063 60
      vertex 8.22191 3.66063 1
    endloop
  endfacet
  facet normal 0.951057 0.309017 0
    outer loop
      vertex 8.80333 1.8712 60
      vertex 8.22191 3.66063 1
      vertex 8.22191 3.66063 60
    endloop
  endfacet
  facet normal 0.951057 0.309017 0
    outer loop
      vertex 8.22191 3.66063 1
      vertex 8.80333 1.8712 60
      vertex 8.80333 1.8712 1
    endloop
  endfacet
  facet normal 0.743145 0.669131 0
    outer loop
      vertex 7.28115 5.29007 60
      vertex 6.02217 6.6883 1
      vertex 6.02217 6.6883 60
    endloop
  endfacet
  facet normal 0.743145 0.669131 0
    outer loop
      vertex 6.02217 6.6883 1
      vertex 7.28115 5.29007 60
      vertex 7.28115 5.29007 1
    endloop
  endfacet
  facet normal 0.207912 0.978148 -0
    outer loop
      vertex 2.78115 8.55951 1
      vertex 0.940756 8.9507 60
      vertex 2.78115 8.55951 60
    endloop
  endfacet
  facet normal 0.207912 0.978148 0
    outer loop
      vertex 0.940756 8.9507 60
      vertex 2.78115 8.55951 1
      vertex 0.940756 8.9507 1
    endloop
  endfacet
  facet normal 0.406736 0.913546 -0
    outer loop
      vertex 4.5 7.79423 1
      vertex 2.78115 8.55951 60
      vertex 4.5 7.79423 60
    endloop
  endfacet
  facet normal 0.406736 0.913546 0
    outer loop
      vertex 2.78115 8.55951 60
      vertex 4.5 7.79423 1
      vertex 2.78115 8.55951 1
    endloop
  endfacet
  facet normal -0.951057 0.309017 0
    outer loop
      vertex -8.80333 1.8712 1
      vertex -8.22191 3.66063 60
      vertex -8.22191 3.66063 1
    endloop
  endfacet
  facet normal -0.951057 0.309017 0
    outer loop
      vertex -8.22191 3.66063 60
      vertex -8.80333 1.8712 1
      vertex -8.80333 1.8712 60
    endloop
  endfacet
  facet normal 0 0 1
    outer loop
      vertex 4.5 7.79423 60
      vertex 12.433 20.5346 60
      vertex 11.567 21.0346 60
    endloop
  endfacet
  facet normal 0 0 1
    outer loop
      vertex 12.433 20.5346 60
      vertex 4.5 7.79423 60
      vertex 4.93301 7.54423 60
    endloop
  endfacet
  facet normal 0 -0 1
    outer loop
      vertex 4.5 7.79423 60
      vertex 11.567 21.0346 60
      vertex 4.06699 8.04423 60
    endloop
  endfacet
  facet normal 0 0 1
    outer loop
      vertex 8 0 60
      vertex 9 0 60
      vertex 8.80333 1.8712 60
    endloop
  endfacet
  facet normal 0 0 1
    outer loop
      vertex 7.82518 1.66329 60
      vertex 8.80333 1.8712 60
      vertex 8.22191 3.66063 60
    endloop
  endfacet
  facet normal 0 0 1
    outer loop
      vertex 9 0 60
      vertex 8 0 60
      vertex 8.80333 -1.8712 60
    endloop
  endfacet
  facet normal -0 0 1
    outer loop
      vertex 7.82518 -1.66329 60
      vertex 8.80333 -1.8712 60
      vertex 8 0 60
    endloop
  endfacet
  facet normal 0 0 1
    outer loop
      vertex 8.80333 1.8712 60
      vertex 7.82518 1.66329 60
      vertex 8 0 60
    endloop
  endfacet
  facet normal 0 0 1
    outer loop
      vertex 8.22191 3.66063 60
      vertex 7.30836 3.25389 60
      vertex 7.82518 1.66329 60
    endloop
  endfacet
  facet normal 0 0 1
    outer loop
      vertex 7.28115 5.29007 60
      vertex 7.30836 3.25389 60
      vertex 8.22191 3.66063 60
    endloop
  endfacet
  facet normal 0 0 1
    outer loop
      vertex 7.28115 5.29007 60
      vertex 6.47214 4.70228 60
      vertex 7.30836 3.25389 60
    endloop
  endfacet
  facet normal 0 0 1
    outer loop
      vertex 6.02217 6.6883 60
      vertex 6.47214 4.70228 60
      vertex 7.28115 5.29007 60
    endloop
  endfacet
  facet normal 0 0 1
    outer loop
      vertex 6.02217 6.6883 60
      vertex 5.35304 5.94516 60
      vertex 6.47214 4.70228 60
    endloop
  endfacet
  facet normal 0 0 1
    outer loop
      vertex 4.5 7.79423 60
      vertex 5.35304 5.94516 60
      vertex 6.02217 6.6883 60
    endloop
  endfacet
  facet normal 0 0 1
    outer loop
      vertex 4.5 7.79423 60
      vertex 4 6.9282 60
      vertex 5.35304 5.94516 60
    endloop
  endfacet
  facet normal 0 0 1
    outer loop
      vertex 2.78115 8.55951 60
      vertex 4 6.9282 60
      vertex 4.5 7.79423 60
    endloop
  endfacet
  facet normal 0 0 1
    outer loop
      vertex 2.78115 8.55951 60
      vertex 2.47214 7.60845 60
      vertex 4 6.9282 60
    endloop
  endfacet
  facet normal 0 0 1
    outer loop
      vertex 0.940756 8.9507 60
      vertex 2.47214 7.60845 60
      vertex 2.78115 8.55951 60
    endloop
  endfacet
  facet normal 0 0 1
    outer loop
      vertex 0.940756 8.9507 60
      vertex 0.836227 7.95617 60
      vertex 2.47214 7.60845 60
    endloop
  endfacet
  facet normal 0 0 1
    outer loop
      vertex 0.940756 8.9507 60
      vertex -0.836227 7.95617 60
      vertex 0.836227 7.95617 60
    endloop
  endfacet
  facet normal -0 0 1
    outer loop
      vertex -0.940756 8.9507 60
      vertex -0.836227 7.95617 60
      vertex 0.940756 8.9507 60
    endloop
  endfacet
  facet normal 0 0 1
    outer loop
      vertex -0.940756 8.9507 60
      vertex -2.47214 7.60845 60
      vertex -0.836227 7.95617 60
    endloop
  endfacet
  facet normal -0 0 1
    outer loop
      vertex -2.78115 8.55951 60
      vertex -2.47214 7.60845 60
      vertex -0.940756 8.9507 60
    endloop
  endfacet
  facet normal 0 0 1
    outer loop
      vertex -2.78115 8.55951 60
      vertex -4 6.9282 60
      vertex -2.47214 7.60845 60
    endloop
  endfacet
  facet normal -0 0 1
    outer loop
      vertex -4.5 7.79423 60
      vertex -4 6.9282 60
      vertex -2.78115 8.55951 60
    endloop
  endfacet
  facet normal 0 0 1
    outer loop
      vertex -4.5 7.79423 60
      vertex -5.35304 5.94516 60
      vertex -4 6.9282 60
    endloop
  endfacet
  facet normal -0 0 1
    outer loop
      vertex -6.02217 6.6883 60
      vertex -5.35304 5.94516 60
      vertex -4.5 7.79423 60
    endloop
  endfacet
  facet normal 0 0 1
    outer loop
      vertex -6.02217 6.6883 60
      vertex -6.47214 4.70228 60
      vertex -5.35304 5.94516 60
    endloop
  endfacet
  facet normal -0 0 1
    outer loop
      vertex -7.28115 5.29007 60
      vertex -6.47214 4.70228 60
      vertex -6.02217 6.6883 60
    endloop
  endfacet
  facet normal 0 0 1
    outer loop
      vertex -7.28115 5.29007 60
      vertex -7.30836 3.25389 60
      vertex -6.47214 4.70228 60
    endloop
  endfacet
  facet normal -0 0 1
    outer loop
      vertex -8.22191 3.66063 60
      vertex -7.30836 3.25389 60
      vertex -7.28115 5.29007 60
    endloop
  endfacet
  facet normal -0 0 1
    outer loop
      vertex -8.80333 1.8712 60
      vertex -7.82518 1.66329 60
      vertex -8.22191 3.66063 60
    endloop
  endfacet
  facet normal 0 0 1
    outer loop
      vertex -7.30836 3.25389 60
      vertex -8.22191 3.66063 60
      vertex -7.82518 1.66329 60
    endloop
  endfacet
  facet normal 0 0 1
    outer loop
      vertex 8.80333 -1.8712 60
      vertex 7.82518 -1.66329 60
      vertex 8.22191 -3.66063 60
    endloop
  endfacet
  facet normal -0 0 1
    outer loop
      vertex 7.30836 -3.25389 60
      vertex 8.22191 -3.66063 60
      vertex 7.82518 -1.66329 60
    endloop
  endfacet
  facet normal 0 0 1
    outer loop
      vertex 7.30836 -3.25389 60
      vertex 7.28115 -5.29007 60
      vertex 8.22191 -3.66063 60
    endloop
  endfacet
  facet normal -0 0 1
    outer loop
      vertex 6.47214 -4.70228 60
      vertex 7.28115 -5.29007 60
      vertex 7.30836 -3.25389 60
    endloop
  endfacet
  facet normal 0 0 1
    outer loop
      vertex 6.47214 -4.70228 60
      vertex 6.02217 -6.6883 60
      vertex 7.28115 -5.29007 60
    endloop
  endfacet
  facet normal -0 0 1
    outer loop
      vertex 5.35304 -5.94516 60
      vertex 6.02217 -6.6883 60
      vertex 6.47214 -4.70228 60
    endloop
  endfacet
  facet normal 0 0 1
    outer loop
      vertex 5.35304 -5.94516 60
      vertex 4.5 -7.79423 60
      vertex 6.02217 -6.6883 60
    endloop
  endfacet
  facet normal -0 0 1
    outer loop
      vertex 4 -6.9282 60
      vertex 4.5 -7.79423 60
      vertex 5.35304 -5.94516 60
    endloop
  endfacet
  facet normal 0 0 1
    outer loop
      vertex 4 -6.9282 60
      vertex 2.78115 -8.55951 60
      vertex 4.5 -7.79423 60
    endloop
  endfacet
  facet normal -0 0 1
    outer loop
      vertex 2.47214 -7.60845 60
      vertex 2.78115 -8.55951 60
      vertex 4 -6.9282 60
    endloop
  endfacet
  facet normal 0 0 1
    outer loop
      vertex 2.47214 -7.60845 60
      vertex 0.940756 -8.9507 60
      vertex 2.78115 -8.55951 60
    endloop
  endfacet
  facet normal -0 0 1
    outer loop
      vertex 0.836227 -7.95617 60
      vertex 0.940756 -8.9507 60
      vertex 2.47214 -7.60845 60
    endloop
  endfacet
  facet normal -0 0 1
    outer loop
      vertex -0.836227 -7.95617 60
      vertex 0.940756 -8.9507 60
      vertex 0.836227 -7.95617 60
    endloop
  endfacet
  facet normal 0 0 1
    outer loop
      vertex -0.836227 -7.95617 60
      vertex -0.940756 -8.9507 60
      vertex 0.940756 -8.9507 60
    endloop
  endfacet
  facet normal 0 0 1
    outer loop
      vertex -2.47214 -7.60845 60
      vertex -0.940756 -8.9507 60
      vertex -0.836227 -7.95617 60
    endloop
  endfacet
  facet normal 0 0 1
    outer loop
      vertex -2.47214 -7.60845 60
      vertex -2.78115 -8.55951 60
      vertex -0.940756 -8.9507 60
    endloop
  endfacet
  facet normal 0 0 1
    outer loop
      vertex -4 -6.9282 60
      vertex -2.78115 -8.55951 60
      vertex -2.47214 -7.60845 60
    endloop
  endfacet
  facet normal 0 0 1
    outer loop
      vertex -4 -6.9282 60
      vertex -4.5 -7.79423 60
      vertex -2.78115 -8.55951 60
    endloop
  endfacet
  facet normal 0 0 1
    outer loop
      vertex -5.35304 -5.94516 60
      vertex -4.5 -7.79423 60
      vertex -4 -6.9282 60
    endloop
  endfacet
  facet normal 0 0 1
    outer loop
      vertex -5.35304 -5.94516 60
      vertex -6.02217 -6.6883 60
      vertex -4.5 -7.79423 60
    endloop
  endfacet
  facet normal 0 0 1
    outer loop
      vertex -6.47214 -4.70228 60
      vertex -6.02217 -6.6883 60
      vertex -5.35304 -5.94516 60
    endloop
  endfacet
  facet normal 0 0 1
    outer loop
      vertex -6.47214 -4.70228 60
      vertex -7.28115 -5.29007 60
      vertex -6.02217 -6.6883 60
    endloop
  endfacet
  facet normal 0 0 1
    outer loop
      vertex -7.30836 -3.25389 60
      vertex -7.28115 -5.29007 60
      vertex -6.47214 -4.70228 60
    endloop
  endfacet
  facet normal 0 0 1
    outer loop
      vertex -8.22191 -3.66063 60
      vertex -7.30836 -3.25389 60
      vertex -7.82518 -1.66329 60
    endloop
  endfacet
  facet normal 0 0 1
    outer loop
      vertex -7.30836 -3.25389 60
      vertex -8.22191 -3.66063 60
      vertex -7.28115 -5.29007 60
    endloop
  endfacet
  facet normal 0 0 1
    outer loop
      vertex -8.80333 -1.8712 60
      vertex -7.82518 -1.66329 60
      vertex -8 0 60
    endloop
  endfacet
  facet normal 0 0 1
    outer loop
      vertex -7.82518 1.66329 60
      vertex -8.80333 1.8712 60
      vertex -8 0 60
    endloop
  endfacet
  facet normal 0 0 1
    outer loop
      vertex -9 0 60
      vertex -8 0 60
      vertex -8.80333 1.8712 60
    endloop
  endfacet
  facet normal 0 0 1
    outer loop
      vertex -7.82518 -1.66329 60
      vertex -8.80333 -1.8712 60
      vertex -8.22191 -3.66063 60
    endloop
  endfacet
  facet normal 0 0 1
    outer loop
      vertex -8 0 60
      vertex -9 0 60
      vertex -8.80333 -1.8712 60
    endloop
  endfacet
  facet normal -0 0 1
    outer loop
      vertex 4.5 -7.79423 60
      vertex 12.433 -20.5346 60
      vertex 4.93301 -7.54423 60
    endloop
  endfacet
  facet normal 0 0 1
    outer loop
      vertex 12.433 -20.5346 60
      vertex 4.5 -7.79423 60
      vertex 11.567 -21.0346 60
    endloop
  endfacet
  facet normal 0 0 1
    outer loop
      vertex 11.567 -21.0346 60
      vertex 4.5 -7.79423 60
      vertex 4.06699 -8.04423 60
    endloop
  endfacet
  facet normal 0 0 1
    outer loop
      vertex -4.5 -7.79423 60
      vertex -11.567 -21.0346 60
      vertex -4.06699 -8.04423 60
    endloop
  endfacet
  facet normal 0 0 1
    outer loop
      vertex -12.433 -20.5346 60
      vertex -4.5 -7.79423 60
      vertex -4.93301 -7.54423 60
    endloop
  endfacet
  facet normal 0 0 1
    outer loop
      vertex -4.5 -7.79423 60
      vertex -12.433 -20.5346 60
      vertex -11.567 -21.0346 60
    endloop
  endfacet
  facet normal -0.587785 0.809017 0
    outer loop
      vertex -4.5 7.79423 1
      vertex -6.02217 6.6883 60
      vertex -4.5 7.79423 60
    endloop
  endfacet
  facet normal -0.587785 0.809017 0
    outer loop
      vertex -6.02217 6.6883 60
      vertex -4.5 7.79423 1
      vertex -6.02217 6.6883 1
    endloop
  endfacet
  facet normal -0.207912 0.978148 0
    outer loop
      vertex -0.940756 8.9507 1
      vertex -2.78115 8.55951 60
      vertex -0.940756 8.9507 60
    endloop
  endfacet
  facet normal -0.207912 0.978148 0
    outer loop
      vertex -2.78115 8.55951 60
      vertex -0.940756 8.9507 1
      vertex -2.78115 8.55951 1
    endloop
  endfacet
  facet normal 0.994522 -0.104529 0
    outer loop
      vertex 8.80333 -1.8712 60
      vertex 9 0 1
      vertex 9 0 60
    endloop
  endfacet
  facet normal 0.994522 -0.104529 0
    outer loop
      vertex 9 0 1
      vertex 8.80333 -1.8712 60
      vertex 8.80333 -1.8712 1
    endloop
  endfacet
  facet normal 0 0 -1
    outer loop
      vertex -29.0119 -16.75 0
      vertex -17.5 23.3964 0
      vertex -17.5 -23.3964 0
    endloop
  endfacet
  facet normal 0 0 -1
    outer loop
      vertex -17.5 23.3964 0
      vertex -29.0119 -16.75 0
      vertex -29.0119 16.75 0
    endloop
  endfacet
  facet normal 0 0 -1
    outer loop
      vertex -17.5 -23.3964 0
      vertex 17.5 -23.3964 0
      vertex 17.5 -23.4 0
    endloop
  endfacet
  facet normal 0 0 -1
    outer loop
      vertex 17.5 -23.3964 0
      vertex -17.5 -23.3964 0
      vertex 17.5 23.3964 0
    endloop
  endfacet
  facet normal 0 0 -1
    outer loop
      vertex -17.5 -23.3964 0
      vertex 17.5 -23.4 0
      vertex -17.5 -23.4 0
    endloop
  endfacet
  facet normal 0 0 -1
    outer loop
      vertex -17.5 23.3964 0
      vertex 17.5 23.3964 0
      vertex -17.5 -23.3964 0
    endloop
  endfacet
  facet normal 0 0 -1
    outer loop
      vertex 17.5 23.3964 0
      vertex -17.5 23.3964 0
      vertex 17.5 23.4 0
    endloop
  endfacet
  facet normal -0 0 -1
    outer loop
      vertex 17.5 23.4 0
      vertex -17.5 23.3964 0
      vertex -17.5 23.4 0
    endloop
  endfacet
  facet normal 0 0 -1
    outer loop
      vertex 17.5 -23.3964 0
      vertex 29.0119 16.75 0
      vertex 29.0119 -16.75 0
    endloop
  endfacet
  facet normal -0 0 -1
    outer loop
      vertex 29.0119 16.75 0
      vertex 17.5 -23.3964 0
      vertex 17.5 23.3964 0
    endloop
  endfacet
  facet normal 0.743145 -0.669131 0
    outer loop
      vertex 6.02217 -6.6883 60
      vertex 7.28115 -5.29007 1
      vertex 7.28115 -5.29007 60
    endloop
  endfacet
  facet normal 0.743145 -0.669131 0
    outer loop
      vertex 7.28115 -5.29007 1
      vertex 6.02217 -6.6883 60
      vertex 6.02217 -6.6883 1
    endloop
  endfacet
  facet normal 0.951057 -0.309017 0
    outer loop
      vertex 8.22191 -3.66063 60
      vertex 8.80333 -1.8712 1
      vertex 8.80333 -1.8712 60
    endloop
  endfacet
  facet normal 0.951057 -0.309017 0
    outer loop
      vertex 8.80333 -1.8712 1
      vertex 8.22191 -3.66063 60
      vertex 8.22191 -3.66063 1
    endloop
  endfacet
  facet normal 0.866025 -0.5 0
    outer loop
      vertex 7.28115 -5.29007 60
      vertex 8.22191 -3.66063 1
      vertex 8.22191 -3.66063 60
    endloop
  endfacet
  facet normal 0.866025 -0.5 0
    outer loop
      vertex 8.22191 -3.66063 1
      vertex 7.28115 -5.29007 60
      vertex 7.28115 -5.29007 1
    endloop
  endfacet
  facet normal -0.866025 -0.5 0
    outer loop
      vertex -7.28115 -5.29007 1
      vertex -8.22191 -3.66063 60
      vertex -8.22191 -3.66063 1
    endloop
  endfacet
  facet normal -0.866025 -0.5 0
    outer loop
      vertex -8.22191 -3.66063 60
      vertex -7.28115 -5.29007 1
      vertex -7.28115 -5.29007 60
    endloop
  endfacet
  facet normal -0.994522 -0.104529 0
    outer loop
      vertex -8.80333 -1.8712 1
      vertex -9 0 60
      vertex -9 0 1
    endloop
  endfacet
  facet normal -0.994522 -0.104529 0
    outer loop
      vertex -9 0 60
      vertex -8.80333 -1.8712 1
      vertex -8.80333 -1.8712 60
    endloop
  endfacet
  facet normal 0.207912 -0.978148 0
    outer loop
      vertex 0.940756 -8.9507 1
      vertex 2.78115 -8.55951 60
      vertex 0.940756 -8.9507 60
    endloop
  endfacet
  facet normal 0.207912 -0.978148 0
    outer loop
      vertex 2.78115 -8.55951 60
      vertex 0.940756 -8.9507 1
      vertex 2.78115 -8.55951 1
    endloop
  endfacet
  facet normal 0.587786 -0.809017 0
    outer loop
      vertex 4.5 -7.79423 1
      vertex 6.02217 -6.6883 60
      vertex 4.5 -7.79423 60
    endloop
  endfacet
  facet normal 0.587786 -0.809017 0
    outer loop
      vertex 6.02217 -6.6883 60
      vertex 4.5 -7.79423 1
      vertex 6.02217 -6.6883 1
    endloop
  endfacet
  facet normal -0.406736 -0.913546 0
    outer loop
      vertex -4.5 -7.79423 1
      vertex -2.78115 -8.55951 60
      vertex -4.5 -7.79423 60
    endloop
  endfacet
  facet normal -0.406736 -0.913546 -0
    outer loop
      vertex -2.78115 -8.55951 60
      vertex -4.5 -7.79423 1
      vertex -2.78115 -8.55951 1
    endloop
  endfacet
  facet normal -0.743145 -0.669131 0
    outer loop
      vertex -6.02217 -6.6883 1
      vertex -7.28115 -5.29007 60
      vertex -7.28115 -5.29007 1
    endloop
  endfacet
  facet normal -0.743145 -0.669131 0
    outer loop
      vertex -7.28115 -5.29007 60
      vertex -6.02217 -6.6883 1
      vertex -6.02217 -6.6883 60
    endloop
  endfacet
  facet normal -0.951057 -0.309017 0
    outer loop
      vertex -8.22191 -3.66063 1
      vertex -8.80333 -1.8712 60
      vertex -8.80333 -1.8712 1
    endloop
  endfacet
  facet normal -0.951057 -0.309017 0
    outer loop
      vertex -8.80333 -1.8712 60
      vertex -8.22191 -3.66063 1
      vertex -8.22191 -3.66063 60
    endloop
  endfacet
  facet normal 0.406736 -0.913546 0
    outer loop
      vertex 2.78115 -8.55951 1
      vertex 4.5 -7.79423 60
      vertex 2.78115 -8.55951 60
    endloop
  endfacet
  facet normal 0.406736 -0.913546 0
    outer loop
      vertex 4.5 -7.79423 60
      vertex 2.78115 -8.55951 1
      vertex 4.5 -7.79423 1
    endloop
  endfacet
  facet normal -0.587786 -0.809017 0
    outer loop
      vertex -6.02217 -6.6883 1
      vertex -4.5 -7.79423 60
      vertex -6.02217 -6.6883 60
    endloop
  endfacet
  facet normal -0.587786 -0.809017 -0
    outer loop
      vertex -4.5 -7.79423 60
      vertex -6.02217 -6.6883 1
      vertex -4.5 -7.79423 1
    endloop
  endfacet
  facet normal -0.207912 -0.978148 0
    outer loop
      vertex -2.78115 -8.55951 1
      vertex -0.940756 -8.9507 60
      vertex -2.78115 -8.55951 60
    endloop
  endfacet
  facet normal -0.207912 -0.978148 -0
    outer loop
      vertex -0.940756 -8.9507 60
      vertex -2.78115 -8.55951 1
      vertex -0.940756 -8.9507 1
    endloop
  endfacet
  facet normal -0.994522 -0.104529 0
    outer loop
      vertex 8 0 1
      vertex 7.82518 1.66329 60
      vertex 7.82518 1.66329 1
    endloop
  endfacet
  facet normal -0.994522 -0.104529 0
    outer loop
      vertex 7.82518 1.66329 60
      vertex 8 0 1
      vertex 8 0 60
    endloop
  endfacet
  facet normal 0.994522 -0.104529 0
    outer loop
      vertex -8 0 60
      vertex -7.82518 1.66329 1
      vertex -7.82518 1.66329 60
    endloop
  endfacet
  facet normal 0.994522 -0.104529 0
    outer loop
      vertex -7.82518 1.66329 1
      vertex -8 0 60
      vertex -8 0 1
    endloop
  endfacet
  facet normal 0 -1 0
    outer loop
      vertex -0.836227 7.95617 1
      vertex 0.836227 7.95617 60
      vertex -0.836227 7.95617 60
    endloop
  endfacet
  facet normal 0 -1 -0
    outer loop
      vertex 0.836227 7.95617 60
      vertex -0.836227 7.95617 1
      vertex 0.836227 7.95617 1
    endloop
  endfacet
  facet normal 0 1 -0
    outer loop
      vertex 0.836227 -7.95617 1
      vertex -0.836227 -7.95617 60
      vertex 0.836227 -7.95617 60
    endloop
  endfacet
  facet normal 0 1 0
    outer loop
      vertex -0.836227 -7.95617 60
      vertex 0.836227 -7.95617 1
      vertex -0.836227 -7.95617 1
    endloop
  endfacet
  facet normal -0.587785 -0.809017 0
    outer loop
      vertex 4 6.9282 1
      vertex 5.35304 5.94516 60
      vertex 4 6.9282 60
    endloop
  endfacet
  facet normal -0.587785 -0.809017 -0
    outer loop
      vertex 5.35304 5.94516 60
      vertex 4 6.9282 1
      vertex 5.35304 5.94516 1
    endloop
  endfacet
  facet normal -0.406737 -0.913545 0
    outer loop
      vertex 2.47214 7.60845 1
      vertex 4 6.9282 60
      vertex 2.47214 7.60845 60
    endloop
  endfacet
  facet normal -0.406737 -0.913545 -0
    outer loop
      vertex 4 6.9282 60
      vertex 2.47214 7.60845 1
      vertex 4 6.9282 1
    endloop
  endfacet
  facet normal 0.743145 -0.669131 0
    outer loop
      vertex -6.47214 4.70228 60
      vertex -5.35304 5.94516 1
      vertex -5.35304 5.94516 60
    endloop
  endfacet
  facet normal 0.743145 -0.669131 0
    outer loop
      vertex -5.35304 5.94516 1
      vertex -6.47214 4.70228 60
      vertex -6.47214 4.70228 1
    endloop
  endfacet
  facet normal 0.866026 -0.5 0
    outer loop
      vertex -7.30836 3.25389 60
      vertex -6.47214 4.70228 1
      vertex -6.47214 4.70228 60
    endloop
  endfacet
  facet normal 0.866026 -0.5 0
    outer loop
      vertex -6.47214 4.70228 1
      vertex -7.30836 3.25389 60
      vertex -7.30836 3.25389 1
    endloop
  endfacet
  facet normal 0.406737 -0.913545 0
    outer loop
      vertex -4 6.9282 1
      vertex -2.47214 7.60845 60
      vertex -4 6.9282 60
    endloop
  endfacet
  facet normal 0.406737 -0.913545 0
    outer loop
      vertex -2.47214 7.60845 60
      vertex -4 6.9282 1
      vertex -2.47214 7.60845 1
    endloop
  endfacet
  facet normal -0.951057 0.309017 0
    outer loop
      vertex 7.30836 -3.25389 1
      vertex 7.82518 -1.66329 60
      vertex 7.82518 -1.66329 1
    endloop
  endfacet
  facet normal -0.951057 0.309017 0
    outer loop
      vertex 7.82518 -1.66329 60
      vertex 7.30836 -3.25389 1
      vertex 7.30836 -3.25389 60
    endloop
  endfacet
  facet normal -0.866026 -0.5 0
    outer loop
      vertex 7.30836 3.25389 1
      vertex 6.47214 4.70228 60
      vertex 6.47214 4.70228 1
    endloop
  endfacet
  facet normal -0.866026 -0.5 0
    outer loop
      vertex 6.47214 4.70228 60
      vertex 7.30836 3.25389 1
      vertex 7.30836 3.25389 60
    endloop
  endfacet
  facet normal -0.951057 -0.309017 0
    outer loop
      vertex 7.82518 1.66329 1
      vertex 7.30836 3.25389 60
      vertex 7.30836 3.25389 1
    endloop
  endfacet
  facet normal -0.951057 -0.309017 0
    outer loop
      vertex 7.30836 3.25389 60
      vertex 7.82518 1.66329 1
      vertex 7.82518 1.66329 60
    endloop
  endfacet
  facet normal -0.743145 -0.669131 0
    outer loop
      vertex 6.47214 4.70228 1
      vertex 5.35304 5.94516 60
      vertex 5.35304 5.94516 1
    endloop
  endfacet
  facet normal -0.743145 -0.669131 0
    outer loop
      vertex 5.35304 5.94516 60
      vertex 6.47214 4.70228 1
      vertex 6.47214 4.70228 60
    endloop
  endfacet
  facet normal -0.207912 -0.978148 0
    outer loop
      vertex 0.836227 7.95617 1
      vertex 2.47214 7.60845 60
      vertex 0.836227 7.95617 60
    endloop
  endfacet
  facet normal -0.207912 -0.978148 -0
    outer loop
      vertex 2.47214 7.60845 60
      vertex 0.836227 7.95617 1
      vertex 2.47214 7.60845 1
    endloop
  endfacet
  facet normal 0.951057 -0.309017 0
    outer loop
      vertex -7.82518 1.66329 60
      vertex -7.30836 3.25389 1
      vertex -7.30836 3.25389 60
    endloop
  endfacet
  facet normal 0.951057 -0.309017 0
    outer loop
      vertex -7.30836 3.25389 1
      vertex -7.82518 1.66329 60
      vertex -7.82518 1.66329 1
    endloop
  endfacet
  facet normal 0.587785 -0.809017 0
    outer loop
      vertex -5.35304 5.94516 1
      vertex -4 6.9282 60
      vertex -5.35304 5.94516 60
    endloop
  endfacet
  facet normal 0.587785 -0.809017 0
    outer loop
      vertex -4 6.9282 60
      vertex -5.35304 5.94516 1
      vertex -4 6.9282 1
    endloop
  endfacet
  facet normal 0.207912 -0.978148 0
    outer loop
      vertex -2.47214 7.60845 1
      vertex -0.836227 7.95617 60
      vertex -2.47214 7.60845 60
    endloop
  endfacet
  facet normal 0.207912 -0.978148 0
    outer loop
      vertex -0.836227 7.95617 60
      vertex -2.47214 7.60845 1
      vertex -0.836227 7.95617 1
    endloop
  endfacet
  facet normal -0.994522 0.104529 0
    outer loop
      vertex 7.82518 -1.66329 1
      vertex 8 0 60
      vertex 8 0 1
    endloop
  endfacet
  facet normal -0.994522 0.104529 0
    outer loop
      vertex 8 0 60
      vertex 7.82518 -1.66329 1
      vertex 7.82518 -1.66329 60
    endloop
  endfacet
  facet normal -0.207912 0.978148 0
    outer loop
      vertex 2.47214 -7.60845 1
      vertex 0.836227 -7.95617 60
      vertex 2.47214 -7.60845 60
    endloop
  endfacet
  facet normal -0.207912 0.978148 0
    outer loop
      vertex 0.836227 -7.95617 60
      vertex 2.47214 -7.60845 1
      vertex 0.836227 -7.95617 1
    endloop
  endfacet
  facet normal -0.866026 0.5 0
    outer loop
      vertex 6.47214 -4.70228 1
      vertex 7.30836 -3.25389 60
      vertex 7.30836 -3.25389 1
    endloop
  endfacet
  facet normal -0.866026 0.5 0
    outer loop
      vertex 7.30836 -3.25389 60
      vertex 6.47214 -4.70228 1
      vertex 6.47214 -4.70228 60
    endloop
  endfacet
  facet normal 0.866026 0.5 0
    outer loop
      vertex -6.47214 -4.70228 60
      vertex -7.30836 -3.25389 1
      vertex -7.30836 -3.25389 60
    endloop
  endfacet
  facet normal 0.866026 0.5 0
    outer loop
      vertex -7.30836 -3.25389 1
      vertex -6.47214 -4.70228 60
      vertex -6.47214 -4.70228 1
    endloop
  endfacet
  facet normal 0.994522 0.104529 0
    outer loop
      vertex -7.82518 -1.66329 60
      vertex -8 0 1
      vertex -8 0 60
    endloop
  endfacet
  facet normal 0.994522 0.104529 0
    outer loop
      vertex -8 0 1
      vertex -7.82518 -1.66329 60
      vertex -7.82518 -1.66329 1
    endloop
  endfacet
  facet normal -0.587785 0.809017 0
    outer loop
      vertex 5.35304 -5.94516 1
      vertex 4 -6.9282 60
      vertex 5.35304 -5.94516 60
    endloop
  endfacet
  facet normal -0.587785 0.809017 0
    outer loop
      vertex 4 -6.9282 60
      vertex 5.35304 -5.94516 1
      vertex 4 -6.9282 1
    endloop
  endfacet
  facet normal -0.406737 0.913545 0
    outer loop
      vertex 4 -6.9282 1
      vertex 2.47214 -7.60845 60
      vertex 4 -6.9282 60
    endloop
  endfacet
  facet normal -0.406737 0.913545 0
    outer loop
      vertex 2.47214 -7.60845 60
      vertex 4 -6.9282 1
      vertex 2.47214 -7.60845 1
    endloop
  endfacet
  facet normal 0.743145 0.669131 0
    outer loop
      vertex -5.35304 -5.94516 60
      vertex -6.47214 -4.70228 1
      vertex -6.47214 -4.70228 60
    endloop
  endfacet
  facet normal 0.743145 0.669131 0
    outer loop
      vertex -6.47214 -4.70228 1
      vertex -5.35304 -5.94516 60
      vertex -5.35304 -5.94516 1
    endloop
  endfacet
  facet normal 0.951057 0.309017 0
    outer loop
      vertex -7.30836 -3.25389 60
      vertex -7.82518 -1.66329 1
      vertex -7.82518 -1.66329 60
    endloop
  endfacet
  facet normal 0.951057 0.309017 0
    outer loop
      vertex -7.82518 -1.66329 1
      vertex -7.30836 -3.25389 60
      vertex -7.30836 -3.25389 1
    endloop
  endfacet
  facet normal -0.743145 0.669131 0
    outer loop
      vertex 5.35304 -5.94516 1
      vertex 6.47214 -4.70228 60
      vertex 6.47214 -4.70228 1
    endloop
  endfacet
  facet normal -0.743145 0.669131 0
    outer loop
      vertex 6.47214 -4.70228 60
      vertex 5.35304 -5.94516 1
      vertex 5.35304 -5.94516 60
    endloop
  endfacet
  facet normal 0.406737 0.913545 -0
    outer loop
      vertex -2.47214 -7.60845 1
      vertex -4 -6.9282 60
      vertex -2.47214 -7.60845 60
    endloop
  endfacet
  facet normal 0.406737 0.913545 0
    outer loop
      vertex -4 -6.9282 60
      vertex -2.47214 -7.60845 1
      vertex -4 -6.9282 1
    endloop
  endfacet
  facet normal 0.587785 0.809017 -0
    outer loop
      vertex -4 -6.9282 1
      vertex -5.35304 -5.94516 60
      vertex -4 -6.9282 60
    endloop
  endfacet
  facet normal 0.587785 0.809017 0
    outer loop
      vertex -5.35304 -5.94516 60
      vertex -4 -6.9282 1
      vertex -5.35304 -5.94516 1
    endloop
  endfacet
  facet normal 0.207912 0.978148 -0
    outer loop
      vertex -0.836227 -7.95617 1
      vertex -2.47214 -7.60845 60
      vertex -0.836227 -7.95617 60
    endloop
  endfacet
  facet normal 0.207912 0.978148 0
    outer loop
      vertex -2.47214 -7.60845 60
      vertex -0.836227 -7.95617 1
      vertex -2.47214 -7.60845 1
    endloop
  endfacet
  facet normal -1 0 0
    outer loop
      vertex 9 -0.5 1
      vertex 9 0 60
      vertex 9 0 1
    endloop
  endfacet
  facet normal -1 -0 0
    outer loop
      vertex 9 0 60
      vertex 9 -0.5 1
      vertex 9 -0.5 60
    endloop
  endfacet
  facet normal -1 0 0
    outer loop
      vertex 9 0 1
      vertex 9 0.5 60
      vertex 9 0.5 1
    endloop
  endfacet
  facet normal -1 -0 0
    outer loop
      vertex 9 0.5 60
      vertex 9 0 1
      vertex 9 0 60
    endloop
  endfacet
  facet normal 0 0 1
    outer loop
      vertex 9 0 60
      vertex 24 0.5 60
      vertex 9 0.5 60
    endloop
  endfacet
  facet normal 0 0 1
    outer loop
      vertex 24 0.5 60
      vertex 9 0 60
      vertex 24 -0.5 60
    endloop
  endfacet
  facet normal 0 0 1
    outer loop
      vertex 24 -0.5 60
      vertex 9 0 60
      vertex 9 -0.5 60
    endloop
  endfacet
  facet normal 1 -0 0
    outer loop
      vertex 24 -0.5 60
      vertex 24 0.5 1
      vertex 24 0.5 60
    endloop
  endfacet
  facet normal 1 0 0
    outer loop
      vertex 24 0.5 1
      vertex 24 -0.5 60
      vertex 24 -0.5 1
    endloop
  endfacet
  facet normal 0 1 0
    outer loop
      vertex 17.5 0.5 1
      vertex 24 0.5 60
      vertex 24 0.5 1
    endloop
  endfacet
  facet normal 0 1 0
    outer loop
      vertex 24 0.5 60
      vertex 17.5 0.5 1
      vertex 9 0.5 60
    endloop
  endfacet
  facet normal 0 1 0
    outer loop
      vertex 9 0.5 60
      vertex 17.5 0.5 1
      vertex 9 0.5 1
    endloop
  endfacet
  facet normal 0 -1 0
    outer loop
      vertex 17.5 -0.5 1
      vertex 9 -0.5 60
      vertex 9 -0.5 1
    endloop
  endfacet
  facet normal 0 -1 0
    outer loop
      vertex 9 -0.5 60
      vertex 17.5 -0.5 1
      vertex 24 -0.5 60
    endloop
  endfacet
  facet normal 0 -1 -0
    outer loop
      vertex 24 -0.5 60
      vertex 17.5 -0.5 1
      vertex 24 -0.5 1
    endloop
  endfacet
  facet normal 0.5 0.866025 -0
    outer loop
      vertex 12.433 20.5346 1
      vertex 11.567 21.0346 60
      vertex 12.433 20.5346 60
    endloop
  endfacet
  facet normal 0.5 0.866025 0
    outer loop
      vertex 11.567 21.0346 60
      vertex 12.433 20.5346 1
      vertex 11.567 21.0346 1
    endloop
  endfacet
  facet normal -0.866025 0.5 0
    outer loop
      vertex 4.06699 8.04423 1
      vertex 11.567 21.0346 60
      vertex 11.567 21.0346 1
    endloop
  endfacet
  facet normal -0.866025 0.5 0
    outer loop
      vertex 11.567 21.0346 60
      vertex 4.06699 8.04423 1
      vertex 4.06699 8.04423 60
    endloop
  endfacet
  facet normal -0.5 -0.866025 0
    outer loop
      vertex 4.5 7.79423 1
      vertex 4.93301 7.54423 60
      vertex 4.5 7.79423 60
    endloop
  endfacet
  facet normal -0.5 -0.866025 -0
    outer loop
      vertex 4.93301 7.54423 60
      vertex 4.5 7.79423 1
      vertex 4.93301 7.54423 1
    endloop
  endfacet
  facet normal -0.5 -0.866025 0
    outer loop
      vertex 4.06699 8.04423 1
      vertex 4.5 7.79423 60
      vertex 4.06699 8.04423 60
    endloop
  endfacet
  facet normal -0.5 -0.866025 -0
    outer loop
      vertex 4.5 7.79423 60
      vertex 4.06699 8.04423 1
      vertex 4.5 7.79423 1
    endloop
  endfacet
  facet normal 0.866025 -0.5 0
    outer loop
      vertex 4.93301 7.54423 60
      vertex 12.433 20.5346 1
      vertex 12.433 20.5346 60
    endloop
  endfacet
  facet normal 0.866025 -0.5 0
    outer loop
      vertex 12.433 20.5346 1
      vertex 4.93301 7.54423 60
      vertex 4.93301 7.54423 1
    endloop
  endfacet
  facet normal 0 0 1
    outer loop
      vertex -11.567 21.0346 60
      vertex -4.93301 7.54423 60
      vertex -4.06699 8.04423 60
    endloop
  endfacet
  facet normal 0 0 1
    outer loop
      vertex -4.93301 7.54423 60
      vertex -11.567 21.0346 60
      vertex -12.433 20.5346 60
    endloop
  endfacet
  facet normal -0.5 0.866025 0
    outer loop
      vertex -11.567 21.0346 1
      vertex -12.433 20.5346 60
      vertex -11.567 21.0346 60
    endloop
  endfacet
  facet normal -0.5 0.866025 0
    outer loop
      vertex -12.433 20.5346 60
      vertex -11.567 21.0346 1
      vertex -12.433 20.5346 1
    endloop
  endfacet
  facet normal 0.866025 0.5 0
    outer loop
      vertex -4.06699 8.04423 60
      vertex -11.567 21.0346 1
      vertex -11.567 21.0346 60
    endloop
  endfacet
  facet normal 0.866025 0.5 0
    outer loop
      vertex -11.567 21.0346 1
      vertex -4.06699 8.04423 60
      vertex -4.06699 8.04423 1
    endloop
  endfacet
  facet normal 0.5 -0.866025 0
    outer loop
      vertex -4.93301 7.54423 1
      vertex -4.06699 8.04423 60
      vertex -4.93301 7.54423 60
    endloop
  endfacet
  facet normal 0.5 -0.866025 0
    outer loop
      vertex -4.06699 8.04423 60
      vertex -4.93301 7.54423 1
      vertex -4.06699 8.04423 1
    endloop
  endfacet
  facet normal -0.866025 -0.5 0
    outer loop
      vertex -4.93301 7.54423 1
      vertex -12.433 20.5346 60
      vertex -12.433 20.5346 1
    endloop
  endfacet
  facet normal -0.866025 -0.5 0
    outer loop
      vertex -12.433 20.5346 60
      vertex -4.93301 7.54423 1
      vertex -4.93301 7.54423 60
    endloop
  endfacet
  facet normal -0 0 1
    outer loop
      vertex -24 0.5 60
      vertex -9 0 60
      vertex -9 0.5 60
    endloop
  endfacet
  facet normal 0 0 1
    outer loop
      vertex -24 -0.499999 60
      vertex -9 0 60
      vertex -24 0.5 60
    endloop
  endfacet
  facet normal 0 0 1
    outer loop
      vertex -9 0 60
      vertex -24 -0.499999 60
      vertex -9 -0.499999 60
    endloop
  endfacet
  facet normal -1 0 0
    outer loop
      vertex -24 -0.499999 1
      vertex -24 0.5 60
      vertex -24 0.5 1
    endloop
  endfacet
  facet normal -1 -0 0
    outer loop
      vertex -24 0.5 60
      vertex -24 -0.499999 1
      vertex -24 -0.499999 60
    endloop
  endfacet
  facet normal 1 -0 0
    outer loop
      vertex -9 0 60
      vertex -9 0.5 1
      vertex -9 0.5 60
    endloop
  endfacet
  facet normal 1 0 0
    outer loop
      vertex -9 0.5 1
      vertex -9 0 60
      vertex -9 0 1
    endloop
  endfacet
  facet normal 1 -0 0
    outer loop
      vertex -9 -0.499999 60
      vertex -9 0 1
      vertex -9 0 60
    endloop
  endfacet
  facet normal 1 0 0
    outer loop
      vertex -9 0 1
      vertex -9 -0.499999 60
      vertex -9 -0.499999 1
    endloop
  endfacet
  facet normal 0 1 0
    outer loop
      vertex -17.5 0.5 1
      vertex -9 0.5 60
      vertex -9 0.5 1
    endloop
  endfacet
  facet normal 0 1 0
    outer loop
      vertex -9 0.5 60
      vertex -17.5 0.5 1
      vertex -24 0.5 60
    endloop
  endfacet
  facet normal 0 1 0
    outer loop
      vertex -24 0.5 60
      vertex -17.5 0.5 1
      vertex -24 0.5 1
    endloop
  endfacet
  facet normal 0 -1 0
    outer loop
      vertex -17.5 -0.499999 1
      vertex -24 -0.499999 60
      vertex -24 -0.499999 1
    endloop
  endfacet
  facet normal 0 -1 0
    outer loop
      vertex -24 -0.499999 60
      vertex -17.5 -0.499999 1
      vertex -9 -0.499999 60
    endloop
  endfacet
  facet normal 0 -1 -0
    outer loop
      vertex -9 -0.499999 60
      vertex -17.5 -0.499999 1
      vertex -9 -0.499999 1
    endloop
  endfacet
  facet normal 0.5 0.866025 -0
    outer loop
      vertex -4.5 -7.79423 1
      vertex -4.93301 -7.54423 60
      vertex -4.5 -7.79423 60
    endloop
  endfacet
  facet normal 0.5 0.866025 0
    outer loop
      vertex -4.93301 -7.54423 60
      vertex -4.5 -7.79423 1
      vertex -4.93301 -7.54423 1
    endloop
  endfacet
  facet normal 0.5 0.866025 -0
    outer loop
      vertex -4.06699 -8.04423 1
      vertex -4.5 -7.79423 60
      vertex -4.06699 -8.04423 60
    endloop
  endfacet
  facet normal 0.5 0.866025 0
    outer loop
      vertex -4.5 -7.79423 60
      vertex -4.06699 -8.04423 1
      vertex -4.5 -7.79423 1
    endloop
  endfacet
  facet normal -0.5 -0.866025 0
    outer loop
      vertex -12.433 -20.5346 1
      vertex -11.567 -21.0346 60
      vertex -12.433 -20.5346 60
    endloop
  endfacet
  facet normal -0.5 -0.866025 -0
    outer loop
      vertex -11.567 -21.0346 60
      vertex -12.433 -20.5346 1
      vertex -11.567 -21.0346 1
    endloop
  endfacet
  facet normal -0.866025 0.5 0
    outer loop
      vertex -12.433 -20.5346 1
      vertex -4.93301 -7.54423 60
      vertex -4.93301 -7.54423 1
    endloop
  endfacet
  facet normal -0.866025 0.5 0
    outer loop
      vertex -4.93301 -7.54423 60
      vertex -12.433 -20.5346 1
      vertex -12.433 -20.5346 60
    endloop
  endfacet
  facet normal 0.866025 -0.5 0
    outer loop
      vertex -11.567 -21.0346 60
      vertex -4.06699 -8.04423 1
      vertex -4.06699 -8.04423 60
    endloop
  endfacet
  facet normal 0.866025 -0.5 0
    outer loop
      vertex -4.06699 -8.04423 1
      vertex -11.567 -21.0346 60
      vertex -11.567 -21.0346 1
    endloop
  endfacet
  facet normal -0.5 0.866025 0
    outer loop
      vertex 4.5 -7.79423 1
      vertex 4.06699 -8.04423 60
      vertex 4.5 -7.79423 60
    endloop
  endfacet
  facet normal -0.5 0.866025 0
    outer loop
      vertex 4.06699 -8.04423 60
      vertex 4.5 -7.79423 1
      vertex 4.06699 -8.04423 1
    endloop
  endfacet
  facet normal -0.5 0.866025 0
    outer loop
      vertex 4.93301 -7.54423 1
      vertex 4.5 -7.79423 60
      vertex 4.93301 -7.54423 60
    endloop
  endfacet
  facet normal -0.5 0.866025 0
    outer loop
      vertex 4.5 -7.79423 60
      vertex 4.93301 -7.54423 1
      vertex 4.5 -7.79423 1
    endloop
  endfacet
  facet normal 0.5 -0.866025 0
    outer loop
      vertex 11.567 -21.0346 1
      vertex 12.433 -20.5346 60
      vertex 11.567 -21.0346 60
    endloop
  endfacet
  facet normal 0.5 -0.866025 0
    outer loop
      vertex 12.433 -20.5346 60
      vertex 11.567 -21.0346 1
      vertex 12.433 -20.5346 1
    endloop
  endfacet
  facet normal -0.866025 -0.5 0
    outer loop
      vertex 11.567 -21.0346 1
      vertex 4.06699 -8.04423 60
      vertex 4.06699 -8.04423 1
    endloop
  endfacet
  facet normal -0.866025 -0.5 0
    outer loop
      vertex 4.06699 -8.04423 60
      vertex 11.567 -21.0346 1
      vertex 11.567 -21.0346 60
    endloop
  endfacet
  facet normal 0.866025 0.5 0
    outer loop
      vertex 12.433 -20.5346 60
      vertex 4.93301 -7.54423 1
      vertex 4.93301 -7.54423 60
    endloop
  endfacet
  facet normal 0.866025 0.5 0
    outer loop
      vertex 4.93301 -7.54423 1
      vertex 12.433 -20.5346 60
      vertex 12.433 -20.5346 1
    endloop
  endfacet
  facet normal 0.5 0.866025 0
    outer loop
      vertex 29.0119 16.75 60
      vertex 17.5 23.3964 1
      vertex 17.5 23.3964 60
    endloop
  endfacet
  facet normal 0.5 0.866025 -0
    outer loop
      vertex 29.0119 16.75 0
      vertex 17.5 23.3964 1
      vertex 29.0119 16.75 60
    endloop
  endfacet
  facet normal 0.5 0.866025 0
    outer loop
      vertex 17.5 23.3964 1
      vertex 29.0119 16.75 0
      vertex 17.5 23.3964 0
    endloop
  endfacet
  facet normal -1 0 0
    outer loop
      vertex -29.0119 -16.75 0
      vertex -29.0119 16.75 60
      vertex -29.0119 16.75 0
    endloop
  endfacet
  facet normal -1 -0 0
    outer loop
      vertex -29.0119 16.75 60
      vertex -29.0119 -16.75 0
      vertex -29.0119 -16.75 60
    endloop
  endfacet
  facet normal -0.5 0.866025 0
    outer loop
      vertex -17.5 23.3964 1
      vertex -29.0119 16.75 60
      vertex -17.5 23.3964 60
    endloop
  endfacet
  facet normal -0.5 0.866025 0
    outer loop
      vertex -29.0119 16.75 0
      vertex -17.5 23.3964 1
      vertex -17.5 23.3964 0
    endloop
  endfacet
  facet normal -0.5 0.866025 0
    outer loop
      vertex -17.5 23.3964 1
      vertex -29.0119 16.75 0
      vertex -29.0119 16.75 60
    endloop
  endfacet
  facet normal 0 0 1
    outer loop
      vertex 29.0119 16.75 60
      vertex 28.1458 16.25 60
      vertex 29.0119 -16.75 60
    endloop
  endfacet
  facet normal 0 0 1
    outer loop
      vertex 17.5 23.3964 60
      vertex 28.1458 16.25 60
      vertex 29.0119 16.75 60
    endloop
  endfacet
  facet normal 0 0 1
    outer loop
      vertex 28.1458 16.25 60
      vertex 17.5 23.3964 60
      vertex 17.5 22.3964 60
    endloop
  endfacet
  facet normal -0 0 1
    outer loop
      vertex 28.1458 -16.25 60
      vertex 29.0119 -16.75 60
      vertex 28.1458 16.25 60
    endloop
  endfacet
  facet normal 0 0 1
    outer loop
      vertex 17.5 -22.3964 60
      vertex 29.0119 -16.75 60
      vertex 28.1458 -16.25 60
    endloop
  endfacet
  facet normal 0 0 1
    outer loop
      vertex 29.0119 -16.75 60
      vertex 17.5 -22.3964 60
      vertex 17.5 -23.3964 60
    endloop
  endfacet
  facet normal 0 0 1
    outer loop
      vertex -17.5 23.3964 60
      vertex -28.1458 16.25 60
      vertex -17.5 22.3964 60
    endloop
  endfacet
  facet normal 0 0 1
    outer loop
      vertex -28.1458 16.25 60
      vertex -29.0119 16.75 60
      vertex -28.1458 -16.25 60
    endloop
  endfacet
  facet normal -0 0 1
    outer loop
      vertex -29.0119 16.75 60
      vertex -28.1458 16.25 60
      vertex -17.5 23.3964 60
    endloop
  endfacet
  facet normal 0 0 1
    outer loop
      vertex -28.1458 -16.25 60
      vertex -17.5 -23.3964 60
      vertex -17.5 -22.3964 60
    endloop
  endfacet
  facet normal 0 0 1
    outer loop
      vertex -28.1458 -16.25 60
      vertex -29.0119 -16.75 60
      vertex -17.5 -23.3964 60
    endloop
  endfacet
  facet normal 0 0 1
    outer loop
      vertex -29.0119 -16.75 60
      vertex -28.1458 -16.25 60
      vertex -29.0119 16.75 60
    endloop
  endfacet
  facet normal 0.5 -0.866025 0
    outer loop
      vertex 17.5 -23.3964 1
      vertex 29.0119 -16.75 60
      vertex 17.5 -23.3964 60
    endloop
  endfacet
  facet normal 0.5 -0.866025 0
    outer loop
      vertex 29.0119 -16.75 0
      vertex 17.5 -23.3964 1
      vertex 17.5 -23.3964 0
    endloop
  endfacet
  facet normal 0.5 -0.866025 0
    outer loop
      vertex 17.5 -23.3964 1
      vertex 29.0119 -16.75 0
      vertex 29.0119 -16.75 60
    endloop
  endfacet
  facet normal -0.5 -0.866025 0
    outer loop
      vertex -29.0119 -16.75 60
      vertex -17.5 -23.3964 1
      vertex -17.5 -23.3964 60
    endloop
  endfacet
  facet normal -0.5 -0.866025 0
    outer loop
      vertex -29.0119 -16.75 0
      vertex -17.5 -23.3964 1
      vertex -29.0119 -16.75 60
    endloop
  endfacet
  facet normal -0.5 -0.866025 -0
    outer loop
      vertex -17.5 -23.3964 1
      vertex -29.0119 -16.75 0
      vertex -17.5 -23.3964 0
    endloop
  endfacet
  facet normal 1 -0 0
    outer loop
      vertex 29.0119 -16.75 60
      vertex 29.0119 16.75 0
      vertex 29.0119 16.75 60
    endloop
  endfacet
  facet normal 1 0 0
    outer loop
      vertex 29.0119 16.75 0
      vertex 29.0119 -16.75 60
      vertex 29.0119 -16.75 0
    endloop
  endfacet
  facet normal -0.5 -0.866025 0
    outer loop
      vertex 17.5 22.3964 1
      vertex 28.1458 16.25 60
      vertex 17.5 22.3964 60
    endloop
  endfacet
  facet normal -0.5 -0.866025 -0
    outer loop
      vertex 28.1458 16.25 60
      vertex 17.5 22.3964 1
      vertex 28.1458 16.25 1
    endloop
  endfacet
  facet normal 1 -0 0
    outer loop
      vertex -28.1458 -16.25 60
      vertex -28.1458 16.25 1
      vertex -28.1458 16.25 60
    endloop
  endfacet
  facet normal 1 0 0
    outer loop
      vertex -28.1458 16.25 1
      vertex -28.1458 -16.25 60
      vertex -28.1458 -16.25 1
    endloop
  endfacet
  facet normal 0.5 -0.866025 0
    outer loop
      vertex -28.1458 16.25 1
      vertex -17.5 22.3964 60
      vertex -28.1458 16.25 60
    endloop
  endfacet
  facet normal 0.5 -0.866025 0
    outer loop
      vertex -17.5 22.3964 60
      vertex -28.1458 16.25 1
      vertex -17.5 22.3964 1
    endloop
  endfacet
  facet normal 0.5 0.866025 -0
    outer loop
      vertex -17.5 -22.3964 1
      vertex -28.1458 -16.25 60
      vertex -17.5 -22.3964 60
    endloop
  endfacet
  facet normal 0.5 0.866025 0
    outer loop
      vertex -28.1458 -16.25 60
      vertex -17.5 -22.3964 1
      vertex -28.1458 -16.25 1
    endloop
  endfacet
  facet normal -0 0 1
    outer loop
      vertex -28.1458 16.25 1
      vertex -17.5 0.5 1
      vertex -17.5 22.3964 1
    endloop
  endfacet
  facet normal 0 0 1
    outer loop
      vertex -24 0.5 1
      vertex -28.1458 16.25 1
      vertex -24 -0.499999 1
    endloop
  endfacet
  facet normal 0 0 1
    outer loop
      vertex -17.5 0.5 1
      vertex -28.1458 16.25 1
      vertex -24 0.5 1
    endloop
  endfacet
  facet normal 0 0 1
    outer loop
      vertex -28.1458 -16.25 1
      vertex -17.5 -0.499999 1
      vertex -24 -0.499999 1
    endloop
  endfacet
  facet normal 0 0 1
    outer loop
      vertex -17.5 -0.499999 1
      vertex -28.1458 -16.25 1
      vertex -17.5 -22.3964 1
    endloop
  endfacet
  facet normal 0 0 1
    outer loop
      vertex -28.1458 -16.25 1
      vertex -24 -0.499999 1
      vertex -28.1458 16.25 1
    endloop
  endfacet
  facet normal 0 0 1
    outer loop
      vertex 28.1458 16.25 1
      vertex 24 0.5 1
      vertex 28.1458 -16.25 1
    endloop
  endfacet
  facet normal 0 0 1
    outer loop
      vertex 17.5 0.5 1
      vertex 28.1458 16.25 1
      vertex 17.5 22.3964 1
    endloop
  endfacet
  facet normal 0 0 1
    outer loop
      vertex 28.1458 16.25 1
      vertex 17.5 0.5 1
      vertex 24 0.5 1
    endloop
  endfacet
  facet normal -0 0 1
    outer loop
      vertex 24 -0.5 1
      vertex 28.1458 -16.25 1
      vertex 24 0.5 1
    endloop
  endfacet
  facet normal -0 0 1
    outer loop
      vertex 17.5 -0.5 1
      vertex 28.1458 -16.25 1
      vertex 24 -0.5 1
    endloop
  endfacet
  facet normal 0 0 1
    outer loop
      vertex 28.1458 -16.25 1
      vertex 17.5 -0.5 1
      vertex 17.5 -22.3964 1
    endloop
  endfacet
  facet normal -0.5 0.866025 0
    outer loop
      vertex 28.1458 -16.25 1
      vertex 17.5 -22.3964 60
      vertex 28.1458 -16.25 60
    endloop
  endfacet
  facet normal -0.5 0.866025 0
    outer loop
      vertex 17.5 -22.3964 60
      vertex 28.1458 -16.25 1
      vertex 17.5 -22.3964 1
    endloop
  endfacet
  facet normal -1 0 0
    outer loop
      vertex 28.1458 -16.25 1
      vertex 28.1458 16.25 60
      vertex 28.1458 16.25 1
    endloop
  endfacet
  facet normal -1 -0 0
    outer loop
      vertex 28.1458 16.25 60
      vertex 28.1458 -16.25 1
      vertex 28.1458 -16.25 60
    endloop
  endfacet
  facet normal -1 0 0
    outer loop
      vertex -17.5 -23.4 0
      vertex -17.5 -23.3964 1
      vertex -17.5 -23.3964 0
    endloop
  endfacet
  facet normal -1 -0 0
    outer loop
      vertex -17.5 -23.3964 1
      vertex -17.5 -23.4 0
      vertex -17.5 -23.4 1
    endloop
  endfacet
  facet normal -1 0 0
    outer loop
      vertex -17.5 23.3964 0
      vertex -17.5 23.4 1
      vertex -17.5 23.4 0
    endloop
  endfacet
  facet normal -1 -0 0
    outer loop
      vertex -17.5 23.4 1
      vertex -17.5 23.3964 0
      vertex -17.5 23.3964 1
    endloop
  endfacet
  facet normal 1 -0 0
    outer loop
      vertex -17.5 22.3964 60
      vertex -17.5 23.3964 1
      vertex -17.5 23.3964 60
    endloop
  endfacet
  facet normal 1 0 0
    outer loop
      vertex -17.5 23.3964 1
      vertex -17.5 22.3964 60
      vertex -17.5 22.3964 1
    endloop
  endfacet
  facet normal 1 -0 0
    outer loop
      vertex -17.5 -23.3964 60
      vertex -17.5 -22.3964 1
      vertex -17.5 -22.3964 60
    endloop
  endfacet
  facet normal 1 0 0
    outer loop
      vertex -17.5 -22.3964 1
      vertex -17.5 -23.3964 60
      vertex -17.5 -23.3964 1
    endloop
  endfacet
  facet normal 1 -0 0
    outer loop
      vertex 17.5 -23.4 1
      vertex 17.5 -23.3964 0
      vertex 17.5 -23.3964 1
    endloop
  endfacet
  facet normal 1 0 0
    outer loop
      vertex 17.5 -23.3964 0
      vertex 17.5 -23.4 1
      vertex 17.5 -23.4 0
    endloop
  endfacet
  facet normal 1 -0 0
    outer loop
      vertex 17.5 23.3964 1
      vertex 17.5 23.4 0
      vertex 17.5 23.4 1
    endloop
  endfacet
  facet normal 1 0 0
    outer loop
      vertex 17.5 23.4 0
      vertex 17.5 23.3964 1
      vertex 17.5 23.3964 0
    endloop
  endfacet
  facet normal -1 0 0
    outer loop
      vertex 17.5 22.3964 1
      vertex 17.5 23.3964 60
      vertex 17.5 23.3964 1
    endloop
  endfacet
  facet normal -1 -0 0
    outer loop
      vertex 17.5 23.3964 60
      vertex 17.5 22.3964 1
      vertex 17.5 22.3964 60
    endloop
  endfacet
  facet normal -1 0 0
    outer loop
      vertex 17.5 -23.3964 1
      vertex 17.5 -22.3964 60
      vertex 17.5 -22.3964 1
    endloop
  endfacet
  facet normal -1 -0 0
    outer loop
      vertex 17.5 -22.3964 60
      vertex 17.5 -23.3964 1
      vertex 17.5 -23.3964 60
    endloop
  endfacet
  facet normal 0 0 1
    outer loop
      vertex -6.02217 -6.6883 1
      vertex -4.93301 -7.54423 1
      vertex -4.5 -7.79423 1
    endloop
  endfacet
  facet normal -0 0 1
    outer loop
      vertex -9 -0.499999 1
      vertex -8.80333 -1.8712 1
      vertex -9 0 1
    endloop
  endfacet
  facet normal 0 0 1
    outer loop
      vertex -6.02217 -6.6883 1
      vertex -12.433 -20.5346 1
      vertex -4.93301 -7.54423 1
    endloop
  endfacet
  facet normal 0 0 1
    outer loop
      vertex -7.28115 -5.29007 1
      vertex -12.433 -20.5346 1
      vertex -6.02217 -6.6883 1
    endloop
  endfacet
  facet normal 0 0 1
    outer loop
      vertex -17.5 -0.499999 1
      vertex -7.28115 -5.29007 1
      vertex -8.22191 -3.66063 1
    endloop
  endfacet
  facet normal 0 0 1
    outer loop
      vertex -17.5 -0.499999 1
      vertex -8.22191 -3.66063 1
      vertex -8.80333 -1.8712 1
    endloop
  endfacet
  facet normal -0 0 1
    outer loop
      vertex -17.5 -0.499999 1
      vertex -8.80333 -1.8712 1
      vertex -9 -0.499999 1
    endloop
  endfacet
  facet normal 0 0 1
    outer loop
      vertex -7.28115 -5.29007 1
      vertex -17.5 -0.499999 1
      vertex -12.433 -20.5346 1
    endloop
  endfacet
  facet normal 0 0 1
    outer loop
      vertex 4.5 -7.79423 1
      vertex 2.78115 -8.55951 1
      vertex 4.06699 -8.04423 1
    endloop
  endfacet
  facet normal 0 0 1
    outer loop
      vertex 9 0 1
      vertex 8.80333 -1.8712 1
      vertex 9 -0.5 1
    endloop
  endfacet
  facet normal -0 0 1
    outer loop
      vertex 12.433 -20.5346 1
      vertex 17.5 -22.3964 1
      vertex 17.5 -0.5 1
    endloop
  endfacet
  facet normal 0 0 1
    outer loop
      vertex 17.5 -22.3964 1
      vertex 12.433 -20.5346 1
      vertex 17.5 -23.3964 1
    endloop
  endfacet
  facet normal 0 0 1
    outer loop
      vertex 17.5 -23.3964 1
      vertex 12.433 -20.5346 1
      vertex 17.5 -23.4 1
    endloop
  endfacet
  facet normal 0 0 1
    outer loop
      vertex 8.80333 -1.8712 1
      vertex 17.5 -0.5 1
      vertex 9 -0.5 1
    endloop
  endfacet
  facet normal 0 0 1
    outer loop
      vertex 8.22191 -3.66063 1
      vertex 17.5 -0.5 1
      vertex 8.80333 -1.8712 1
    endloop
  endfacet
  facet normal 0 0 1
    outer loop
      vertex 7.28115 -5.29007 1
      vertex 17.5 -0.5 1
      vertex 8.22191 -3.66063 1
    endloop
  endfacet
  facet normal 0 0 1
    outer loop
      vertex 17.5 -0.5 1
      vertex 7.28115 -5.29007 1
      vertex 12.433 -20.5346 1
    endloop
  endfacet
  facet normal -0 0 1
    outer loop
      vertex 6.02217 -6.6883 1
      vertex 12.433 -20.5346 1
      vertex 7.28115 -5.29007 1
    endloop
  endfacet
  facet normal 0 0 1
    outer loop
      vertex 6.02217 -6.6883 1
      vertex 4.93301 -7.54423 1
      vertex 12.433 -20.5346 1
    endloop
  endfacet
  facet normal 0 -0 1
    outer loop
      vertex 4.93301 -7.54423 1
      vertex 6.02217 -6.6883 1
      vertex 4.5 -7.79423 1
    endloop
  endfacet
  facet normal -0 0 1
    outer loop
      vertex 11.567 -21.0346 1
      vertex 17.5 -23.4 1
      vertex 12.433 -20.5346 1
    endloop
  endfacet
  facet normal -0 0 1
    outer loop
      vertex 2.78115 -8.55951 1
      vertex 11.567 -21.0346 1
      vertex 4.06699 -8.04423 1
    endloop
  endfacet
  facet normal -0 0 1
    outer loop
      vertex 0.940756 -8.9507 1
      vertex 11.567 -21.0346 1
      vertex 2.78115 -8.55951 1
    endloop
  endfacet
  facet normal -0 0 1
    outer loop
      vertex -0.940756 -8.9507 1
      vertex 11.567 -21.0346 1
      vertex 0.940756 -8.9507 1
    endloop
  endfacet
  facet normal 0 0 1
    outer loop
      vertex -11.567 -21.0346 1
      vertex -0.940756 -8.9507 1
      vertex -2.78115 -8.55951 1
    endloop
  endfacet
  facet normal 0 0 1
    outer loop
      vertex -11.567 -21.0346 1
      vertex -2.78115 -8.55951 1
      vertex -4.06699 -8.04423 1
    endloop
  endfacet
  facet normal 0 0 1
    outer loop
      vertex -0.940756 -8.9507 1
      vertex -11.567 -21.0346 1
      vertex 11.567 -21.0346 1
    endloop
  endfacet
  facet normal -0 0 1
    outer loop
      vertex -11.567 -21.0346 1
      vertex 17.5 -23.4 1
      vertex 11.567 -21.0346 1
    endloop
  endfacet
  facet normal 0 0 1
    outer loop
      vertex -17.5 -22.3964 1
      vertex -12.433 -20.5346 1
      vertex -17.5 -0.499999 1
    endloop
  endfacet
  facet normal 0 0 1
    outer loop
      vertex -17.5 -23.3964 1
      vertex -12.433 -20.5346 1
      vertex -17.5 -22.3964 1
    endloop
  endfacet
  facet normal 0 0 1
    outer loop
      vertex -17.5 -23.4 1
      vertex -12.433 -20.5346 1
      vertex -17.5 -23.3964 1
    endloop
  endfacet
  facet normal 0 0 1
    outer loop
      vertex -12.433 -20.5346 1
      vertex -17.5 -23.4 1
      vertex -11.567 -21.0346 1
    endloop
  endfacet
  facet normal 0 0 1
    outer loop
      vertex -11.567 -21.0346 1
      vertex -17.5 -23.4 1
      vertex 17.5 -23.4 1
    endloop
  endfacet
  facet normal 0 0 1
    outer loop
      vertex -2.78115 -8.55951 1
      vertex -4.5 -7.79423 1
      vertex -4.06699 -8.04423 1
    endloop
  endfacet
  facet normal 0 0 1
    outer loop
      vertex 12.433 20.5346 1
      vertex 17.5 23.3964 1
      vertex 17.5 23.4 1
    endloop
  endfacet
  facet normal 0 0 1
    outer loop
      vertex 17.5 23.3964 1
      vertex 12.433 20.5346 1
      vertex 17.5 22.3964 1
    endloop
  endfacet
  facet normal 0 0 1
    outer loop
      vertex 17.5 22.3964 1
      vertex 12.433 20.5346 1
      vertex 17.5 0.5 1
    endloop
  endfacet
  facet normal 0 0 1
    outer loop
      vertex 17.5 23.4 1
      vertex 11.567 21.0346 1
      vertex 12.433 20.5346 1
    endloop
  endfacet
  facet normal 0 0 1
    outer loop
      vertex 11.567 21.0346 1
      vertex 2.78115 8.55951 1
      vertex 4.06699 8.04423 1
    endloop
  endfacet
  facet normal 0 0 1
    outer loop
      vertex 11.567 21.0346 1
      vertex 0.940756 8.9507 1
      vertex 2.78115 8.55951 1
    endloop
  endfacet
  facet normal 0 0 1
    outer loop
      vertex 11.567 21.0346 1
      vertex -0.940756 8.9507 1
      vertex 0.940756 8.9507 1
    endloop
  endfacet
  facet normal -0 0 1
    outer loop
      vertex -11.567 21.0346 1
      vertex -0.940756 8.9507 1
      vertex 11.567 21.0346 1
    endloop
  endfacet
  facet normal 0 0 1
    outer loop
      vertex -0.940756 8.9507 1
      vertex -11.567 21.0346 1
      vertex -2.78115 8.55951 1
    endloop
  endfacet
  facet normal 0 0 1
    outer loop
      vertex -2.78115 8.55951 1
      vertex -11.567 21.0346 1
      vertex -4.06699 8.04423 1
    endloop
  endfacet
  facet normal 0 0 1
    outer loop
      vertex 17.5 23.4 1
      vertex -11.567 21.0346 1
      vertex 11.567 21.0346 1
    endloop
  endfacet
  facet normal 0 0 1
    outer loop
      vertex -11.567 21.0346 1
      vertex -17.5 23.4 1
      vertex -12.433 20.5346 1
    endloop
  endfacet
  facet normal -0 0 1
    outer loop
      vertex -17.5 23.4 1
      vertex -11.567 21.0346 1
      vertex 17.5 23.4 1
    endloop
  endfacet
  facet normal -0 0 1
    outer loop
      vertex 7.28115 5.29007 1
      vertex 17.5 0.5 1
      vertex 12.433 20.5346 1
    endloop
  endfacet
  facet normal 0 0 1
    outer loop
      vertex 9 0.5 1
      vertex 8.80333 1.8712 1
      vertex 9 0 1
    endloop
  endfacet
  facet normal 0 0 1
    outer loop
      vertex 17.5 0.5 1
      vertex 8.80333 1.8712 1
      vertex 9 0.5 1
    endloop
  endfacet
  facet normal 0 0 1
    outer loop
      vertex 17.5 0.5 1
      vertex 8.22191 3.66063 1
      vertex 8.80333 1.8712 1
    endloop
  endfacet
  facet normal 0 0 1
    outer loop
      vertex 17.5 0.5 1
      vertex 7.28115 5.29007 1
      vertex 8.22191 3.66063 1
    endloop
  endfacet
  facet normal 0 0 1
    outer loop
      vertex 12.433 20.5346 1
      vertex 6.02217 6.6883 1
      vertex 7.28115 5.29007 1
    endloop
  endfacet
  facet normal -0 0 1
    outer loop
      vertex 4.93301 7.54423 1
      vertex 6.02217 6.6883 1
      vertex 12.433 20.5346 1
    endloop
  endfacet
  facet normal 0 0 1
    outer loop
      vertex 6.02217 6.6883 1
      vertex 4.93301 7.54423 1
      vertex 4.5 7.79423 1
    endloop
  endfacet
  facet normal 0 0 1
    outer loop
      vertex 4.5 7.79423 1
      vertex 4.06699 8.04423 1
      vertex 2.78115 8.55951 1
    endloop
  endfacet
  facet normal -0 0 1
    outer loop
      vertex -4.06699 8.04423 1
      vertex -4.5 7.79423 1
      vertex -2.78115 8.55951 1
    endloop
  endfacet
  facet normal 0 0 1
    outer loop
      vertex -4.93301 7.54423 1
      vertex -4.5 7.79423 1
      vertex -4.06699 8.04423 1
    endloop
  endfacet
  facet normal -0 0 1
    outer loop
      vertex -4.93301 7.54423 1
      vertex -6.02217 6.6883 1
      vertex -4.5 7.79423 1
    endloop
  endfacet
  facet normal 0 0 1
    outer loop
      vertex -12.433 20.5346 1
      vertex -6.02217 6.6883 1
      vertex -4.93301 7.54423 1
    endloop
  endfacet
  facet normal 0 0 1
    outer loop
      vertex -12.433 20.5346 1
      vertex -7.28115 5.29007 1
      vertex -6.02217 6.6883 1
    endloop
  endfacet
  facet normal 0 0 1
    outer loop
      vertex -17.5 0.5 1
      vertex -7.28115 5.29007 1
      vertex -12.433 20.5346 1
    endloop
  endfacet
  facet normal 0 0 1
    outer loop
      vertex -7.28115 5.29007 1
      vertex -17.5 0.5 1
      vertex -8.22191 3.66063 1
    endloop
  endfacet
  facet normal 0 0 1
    outer loop
      vertex -8.22191 3.66063 1
      vertex -17.5 0.5 1
      vertex -8.80333 1.8712 1
    endloop
  endfacet
  facet normal -0 0 1
    outer loop
      vertex -17.5 23.3964 1
      vertex -12.433 20.5346 1
      vertex -17.5 23.4 1
    endloop
  endfacet
  facet normal -0 0 1
    outer loop
      vertex -17.5 22.3964 1
      vertex -12.433 20.5346 1
      vertex -17.5 23.3964 1
    endloop
  endfacet
  facet normal 0 0 1
    outer loop
      vertex -17.5 0.5 1
      vertex -12.433 20.5346 1
      vertex -17.5 22.3964 1
    endloop
  endfacet
  facet normal 0 0 1
    outer loop
      vertex -8.80333 1.8712 1
      vertex -17.5 0.5 1
      vertex -9 0.5 1
    endloop
  endfacet
  facet normal 0 0 1
    outer loop
      vertex -8.80333 1.8712 1
      vertex -9 0.5 1
      vertex -9 0 1
    endloop
  endfacet
  facet normal 0 0 1
    outer loop
      vertex 7.82518 1.66329 1
      vertex 7.82518 -1.66329 1
      vertex 8 0 1
    endloop
  endfacet
  facet normal 0 0 1
    outer loop
      vertex 7.30836 3.25389 1
      vertex 7.82518 -1.66329 1
      vertex 7.82518 1.66329 1
    endloop
  endfacet
  facet normal 0 0 1
    outer loop
      vertex 7.30836 3.25389 1
      vertex 7.30836 -3.25389 1
      vertex 7.82518 -1.66329 1
    endloop
  endfacet
  facet normal 0 0 1
    outer loop
      vertex 6.47214 4.70228 1
      vertex 7.30836 -3.25389 1
      vertex 7.30836 3.25389 1
    endloop
  endfacet
  facet normal 0 0 1
    outer loop
      vertex 6.47214 4.70228 1
      vertex 6.47214 -4.70228 1
      vertex 7.30836 -3.25389 1
    endloop
  endfacet
  facet normal 0 0 1
    outer loop
      vertex 5.35304 5.94516 1
      vertex 6.47214 -4.70228 1
      vertex 6.47214 4.70228 1
    endloop
  endfacet
  facet normal 0 0 1
    outer loop
      vertex 5.35304 5.94516 1
      vertex 5.35304 -5.94516 1
      vertex 6.47214 -4.70228 1
    endloop
  endfacet
  facet normal 0 0 1
    outer loop
      vertex 4 6.9282 1
      vertex 5.35304 -5.94516 1
      vertex 5.35304 5.94516 1
    endloop
  endfacet
  facet normal 0 0 1
    outer loop
      vertex 4 6.9282 1
      vertex 4 -6.9282 1
      vertex 5.35304 -5.94516 1
    endloop
  endfacet
  facet normal 0 0 1
    outer loop
      vertex 2.47214 7.60845 1
      vertex 4 -6.9282 1
      vertex 4 6.9282 1
    endloop
  endfacet
  facet normal 0 0 1
    outer loop
      vertex 2.47214 7.60845 1
      vertex 2.47214 -7.60845 1
      vertex 4 -6.9282 1
    endloop
  endfacet
  facet normal 0 0 1
    outer loop
      vertex 0.836227 7.95617 1
      vertex 2.47214 -7.60845 1
      vertex 2.47214 7.60845 1
    endloop
  endfacet
  facet normal 0 0 1
    outer loop
      vertex 0.836227 7.95617 1
      vertex 0.836227 -7.95617 1
      vertex 2.47214 -7.60845 1
    endloop
  endfacet
  facet normal -0 0 1
    outer loop
      vertex -0.836227 7.95617 1
      vertex 0.836227 -7.95617 1
      vertex 0.836227 7.95617 1
    endloop
  endfacet
  facet normal 0 0 1
    outer loop
      vertex -0.836227 7.95617 1
      vertex -0.836227 -7.95617 1
      vertex 0.836227 -7.95617 1
    endloop
  endfacet
  facet normal -0 0 1
    outer loop
      vertex -2.47214 7.60845 1
      vertex -0.836227 -7.95617 1
      vertex -0.836227 7.95617 1
    endloop
  endfacet
  facet normal 0 0 1
    outer loop
      vertex -2.47214 7.60845 1
      vertex -2.47214 -7.60845 1
      vertex -0.836227 -7.95617 1
    endloop
  endfacet
  facet normal -0 0 1
    outer loop
      vertex -4 6.9282 1
      vertex -2.47214 -7.60845 1
      vertex -2.47214 7.60845 1
    endloop
  endfacet
  facet normal 0 0 1
    outer loop
      vertex -4 6.9282 1
      vertex -4 -6.9282 1
      vertex -2.47214 -7.60845 1
    endloop
  endfacet
  facet normal -0 0 1
    outer loop
      vertex -5.35304 5.94516 1
      vertex -4 -6.9282 1
      vertex -4 6.9282 1
    endloop
  endfacet
  facet normal 0 0 1
    outer loop
      vertex -5.35304 5.94516 1
      vertex -5.35304 -5.94516 1
      vertex -4 -6.9282 1
    endloop
  endfacet
  facet normal -0 0 1
    outer loop
      vertex -6.47214 4.70228 1
      vertex -5.35304 -5.94516 1
      vertex -5.35304 5.94516 1
    endloop
  endfacet
  facet normal 0 0 1
    outer loop
      vertex -6.47214 4.70228 1
      vertex -6.47214 -4.70228 1
      vertex -5.35304 -5.94516 1
    endloop
  endfacet
  facet normal -0 0 1
    outer loop
      vertex -7.30836 3.25389 1
      vertex -6.47214 -4.70228 1
      vertex -6.47214 4.70228 1
    endloop
  endfacet
  facet normal 0 0 1
    outer loop
      vertex -7.30836 3.25389 1
      vertex -7.30836 -3.25389 1
      vertex -6.47214 -4.70228 1
    endloop
  endfacet
  facet normal -0 0 1
    outer loop
      vertex -7.82518 1.66329 1
      vertex -7.30836 -3.25389 1
      vertex -7.30836 3.25389 1
    endloop
  endfacet
  facet normal 0 0 1
    outer loop
      vertex -7.82518 1.66329 1
      vertex -7.82518 -1.66329 1
      vertex -7.30836 -3.25389 1
    endloop
  endfacet
  facet normal 0 -0 1
    outer loop
      vertex -7.82518 -1.66329 1
      vertex -7.82518 1.66329 1
      vertex -8 0 1
    endloop
  endfacet
  facet normal 0 1 -0
    outer loop
      vertex 17.5 23.4 0
      vertex -17.5 23.4 1
      vertex 17.5 23.4 1
    endloop
  endfacet
  facet normal 0 1 0
    outer loop
      vertex -17.5 23.4 1
      vertex 17.5 23.4 0
      vertex -17.5 23.4 0
    endloop
  endfacet
  facet normal 0 -1 0
    outer loop
      vertex -17.5 -23.4 0
      vertex 17.5 -23.4 1
      vertex -17.5 -23.4 1
    endloop
  endfacet
  facet normal 0 -1 -0
    outer loop
      vertex 17.5 -23.4 1
      vertex -17.5 -23.4 0
      vertex 17.5 -23.4 0
    endloop
  endfacet
endsolid OpenSCAD_Model
