solid OpenSCAD_Model
  facet normal -1 0 0
    outer loop
      vertex -20 -10.5 -20
      vertex -20 10.5 20
      vertex -20 10.5 -20
    endloop
  endfacet
  facet normal -1 -0 0
    outer loop
      vertex -20 10.5 20
      vertex -20 -10.5 -20
      vertex -20 -10.5 20
    endloop
  endfacet
  facet normal 0 0 1
    outer loop
      vertex -2.5 10.5 20
      vertex -19 9.5 20
      vertex -2.5 9.5 20
    endloop
  endfacet
  facet normal 0 0 1
    outer loop
      vertex -19 9.5 20
      vertex -20 10.5 20
      vertex -19 -9.5 20
    endloop
  endfacet
  facet normal -0 0 1
    outer loop
      vertex -20 10.5 20
      vertex -19 9.5 20
      vertex -2.5 10.5 20
    endloop
  endfacet
  facet normal 0 0 1
    outer loop
      vertex 20 10.5 20
      vertex 19 9.5 20
      vertex 20 -10.5 20
    endloop
  endfacet
  facet normal -0 0 1
    outer loop
      vertex 2.5 10.5 20
      vertex 19 9.5 20
      vertex 20 10.5 20
    endloop
  endfacet
  facet normal 0 0 1
    outer loop
      vertex 19 9.5 20
      vertex 2.5 10.5 20
      vertex 2.5 9.5 20
    endloop
  endfacet
  facet normal -0 0 1
    outer loop
      vertex 19 -9.5 20
      vertex 20 -10.5 20
      vertex 19 9.5 20
    endloop
  endfacet
  facet normal -0 0 1
    outer loop
      vertex -19 -9.5 20
      vertex 20 -10.5 20
      vertex 19 -9.5 20
    endloop
  endfacet
  facet normal 0 0 1
    outer loop
      vertex -19 -9.5 20
      vertex -20 -10.5 20
      vertex 20 -10.5 20
    endloop
  endfacet
  facet normal 0 0 1
    outer loop
      vertex -20 -10.5 20
      vertex -19 -9.5 20
      vertex -20 10.5 20
    endloop
  endfacet
  facet normal 1 -0 0
    outer loop
      vertex 20 -10.5 20
      vertex 20 10.5 -20
      vertex 20 10.5 20
    endloop
  endfacet
  facet normal 1 0 0
    outer loop
      vertex 20 10.5 -20
      vertex 20 -10.5 20
      vertex 20 -10.5 -20
    endloop
  endfacet
  facet normal 0 1 0
    outer loop
      vertex 20 10.5 20
      vertex 2.5 10.5 10
      vertex 2.5 10.5 20
    endloop
  endfacet
  facet normal 0 1 0
    outer loop
      vertex 20 10.5 20
      vertex 2.44537 10.5 9.48022
      vertex 2.5 10.5 10
    endloop
  endfacet
  facet normal 0 1 0
    outer loop
      vertex 20 10.5 20
      vertex 2.28386 10.5 8.98316
      vertex 2.44537 10.5 9.48022
    endloop
  endfacet
  facet normal 0 1 -0
    outer loop
      vertex 20 10.5 -20
      vertex 2.28386 10.5 8.98316
      vertex 20 10.5 20
    endloop
  endfacet
  facet normal 0 1 0
    outer loop
      vertex 2.28386 10.5 8.98316
      vertex 20 10.5 -20
      vertex 2.02254 10.5 8.53054
    endloop
  endfacet
  facet normal 0 1 0
    outer loop
      vertex 2.02254 10.5 8.53054
      vertex 20 10.5 -20
      vertex 1.67283 10.5 8.14214
    endloop
  endfacet
  facet normal 0 1 0
    outer loop
      vertex 0.261321 10.5 7.51369
      vertex 20 10.5 -20
      vertex -0.261321 10.5 7.51369
    endloop
  endfacet
  facet normal 0 1 0
    outer loop
      vertex 0.772542 10.5 7.62236
      vertex 20 10.5 -20
      vertex 0.261321 10.5 7.51369
    endloop
  endfacet
  facet normal 0 1 0
    outer loop
      vertex 1.25 10.5 7.83494
      vertex 20 10.5 -20
      vertex 0.772542 10.5 7.62236
    endloop
  endfacet
  facet normal 0 1 0
    outer loop
      vertex 1.67283 10.5 8.14214
      vertex 20 10.5 -20
      vertex 1.25 10.5 7.83494
    endloop
  endfacet
  facet normal 0 1 -0
    outer loop
      vertex -2.5 10.5 10
      vertex -20 10.5 20
      vertex -2.5 10.5 20
    endloop
  endfacet
  facet normal 0 1 0
    outer loop
      vertex -2.48088 10.5 9.81808
      vertex -20 10.5 20
      vertex -2.5 10.5 10
    endloop
  endfacet
  facet normal 0 1 0
    outer loop
      vertex -2.44537 10.5 9.48022
      vertex -20 10.5 20
      vertex -2.48088 10.5 9.81808
    endloop
  endfacet
  facet normal 0 1 0
    outer loop
      vertex -2.28386 10.5 8.98316
      vertex -20 10.5 20
      vertex -2.44537 10.5 9.48022
    endloop
  endfacet
  facet normal 0 1 0
    outer loop
      vertex -20 10.5 -20
      vertex -2.28386 10.5 8.98316
      vertex -2.02254 10.5 8.53054
    endloop
  endfacet
  facet normal 0 1 0
    outer loop
      vertex -20 10.5 -20
      vertex -2.02254 10.5 8.53054
      vertex -1.67283 10.5 8.14214
    endloop
  endfacet
  facet normal 0 1 0
    outer loop
      vertex -20 10.5 -20
      vertex -1.67283 10.5 8.14214
      vertex -1.25 10.5 7.83494
    endloop
  endfacet
  facet normal 0 1 0
    outer loop
      vertex -20 10.5 -20
      vertex -0.261321 10.5 7.51369
      vertex 20 10.5 -20
    endloop
  endfacet
  facet normal 0 1 0
    outer loop
      vertex -0.261321 10.5 7.51369
      vertex -20 10.5 -20
      vertex -0.772542 10.5 7.62236
    endloop
  endfacet
  facet normal 0 1 0
    outer loop
      vertex -0.772542 10.5 7.62236
      vertex -20 10.5 -20
      vertex -1.25 10.5 7.83494
    endloop
  endfacet
  facet normal 0 1 0
    outer loop
      vertex -2.28386 10.5 8.98316
      vertex -20 10.5 -20
      vertex -20 10.5 20
    endloop
  endfacet
  facet normal 0 0 -1
    outer loop
      vertex 20 -10.5 -20
      vertex 19 -9.5 -20
      vertex 20 10.5 -20
    endloop
  endfacet
  facet normal 0 0 -1
    outer loop
      vertex 20 -10.5 -20
      vertex -19 -9.5 -20
      vertex 19 -9.5 -20
    endloop
  endfacet
  facet normal -0 0 -1
    outer loop
      vertex -19 -9.5 -20
      vertex -20 -10.5 -20
      vertex -19 9.5 -20
    endloop
  endfacet
  facet normal 0 0 -1
    outer loop
      vertex -20 -10.5 -20
      vertex -19 -9.5 -20
      vertex 20 -10.5 -20
    endloop
  endfacet
  facet normal 0 0 -1
    outer loop
      vertex 19 9.5 -20
      vertex 20 10.5 -20
      vertex 19 -9.5 -20
    endloop
  endfacet
  facet normal 0 0 -1
    outer loop
      vertex -19 9.5 -20
      vertex 20 10.5 -20
      vertex 19 9.5 -20
    endloop
  endfacet
  facet normal 0 0 -1
    outer loop
      vertex -19 9.5 -20
      vertex -20 10.5 -20
      vertex 20 10.5 -20
    endloop
  endfacet
  facet normal 0 0 -1
    outer loop
      vertex -20 10.5 -20
      vertex -19 9.5 -20
      vertex -20 -10.5 -20
    endloop
  endfacet
  facet normal 0 -1 0
    outer loop
      vertex -20 -10.5 20
      vertex -0.339717 -10.5 3.2322
      vertex 20 -10.5 20
    endloop
  endfacet
  facet normal 0 -1 0
    outer loop
      vertex -20 -10.5 20
      vertex -1.0043 -10.5 3.09093
      vertex -0.339717 -10.5 3.2322
    endloop
  endfacet
  facet normal 0 -1 0
    outer loop
      vertex -20 -10.5 20
      vertex -1.625 -10.5 2.81458
      vertex -1.0043 -10.5 3.09093
    endloop
  endfacet
  facet normal 0 -1 0
    outer loop
      vertex -20 -10.5 20
      vertex -2.17467 -10.5 2.41522
      vertex -1.625 -10.5 2.81458
    endloop
  endfacet
  facet normal 0 -1 0
    outer loop
      vertex -20 -10.5 20
      vertex -2.6293 -10.5 1.9103
      vertex -2.17467 -10.5 2.41522
    endloop
  endfacet
  facet normal 0 -1 0
    outer loop
      vertex -20 -10.5 20
      vertex -2.96902 -10.5 1.32189
      vertex -2.6293 -10.5 1.9103
    endloop
  endfacet
  facet normal 0 -1 0
    outer loop
      vertex -20 -10.5 20
      vertex -3.17898 -10.5 0.675713
      vertex -2.96902 -10.5 1.32189
    endloop
  endfacet
  facet normal 0 -1 0
    outer loop
      vertex -20 -10.5 20
      vertex -3.25 -10.5 0
      vertex -3.17898 -10.5 0.675713
    endloop
  endfacet
  facet normal 0 -1 0
    outer loop
      vertex -20 -10.5 -20
      vertex -3.25 -10.5 0
      vertex -20 -10.5 20
    endloop
  endfacet
  facet normal 0 -1 -0
    outer loop
      vertex -3.25 -10.5 0
      vertex -20 -10.5 -20
      vertex -3.17898 -10.5 -0.675713
    endloop
  endfacet
  facet normal 0 -1 -0
    outer loop
      vertex -3.17898 -10.5 -0.675713
      vertex -20 -10.5 -20
      vertex -2.96902 -10.5 -1.32189
    endloop
  endfacet
  facet normal 0 -1 -0
    outer loop
      vertex -0.339717 -10.5 -3.2322
      vertex -20 -10.5 -20
      vertex 0.339717 -10.5 -3.2322
    endloop
  endfacet
  facet normal 0 -1 -0
    outer loop
      vertex -1.0043 -10.5 -3.09093
      vertex -20 -10.5 -20
      vertex -0.339717 -10.5 -3.2322
    endloop
  endfacet
  facet normal 0 -1 -0
    outer loop
      vertex -1.625 -10.5 -2.81458
      vertex -20 -10.5 -20
      vertex -1.0043 -10.5 -3.09093
    endloop
  endfacet
  facet normal 0 -1 -0
    outer loop
      vertex -2.17467 -10.5 -2.41522
      vertex -20 -10.5 -20
      vertex -1.625 -10.5 -2.81458
    endloop
  endfacet
  facet normal 0 -1 -0
    outer loop
      vertex -2.6293 -10.5 -1.9103
      vertex -20 -10.5 -20
      vertex -2.17467 -10.5 -2.41522
    endloop
  endfacet
  facet normal 0 -1 -0
    outer loop
      vertex -2.96902 -10.5 -1.32189
      vertex -20 -10.5 -20
      vertex -2.6293 -10.5 -1.9103
    endloop
  endfacet
  facet normal 0 -1 0
    outer loop
      vertex 0.339717 -10.5 3.2322
      vertex 20 -10.5 20
      vertex -0.339717 -10.5 3.2322
    endloop
  endfacet
  facet normal 0 -1 0
    outer loop
      vertex 1.0043 -10.5 3.09093
      vertex 20 -10.5 20
      vertex 0.339717 -10.5 3.2322
    endloop
  endfacet
  facet normal 0 -1 0
    outer loop
      vertex 1.625 -10.5 2.81458
      vertex 20 -10.5 20
      vertex 1.0043 -10.5 3.09093
    endloop
  endfacet
  facet normal 0 -1 0
    outer loop
      vertex 2.17467 -10.5 2.41522
      vertex 20 -10.5 20
      vertex 1.625 -10.5 2.81458
    endloop
  endfacet
  facet normal 0 -1 0
    outer loop
      vertex 2.6293 -10.5 1.9103
      vertex 20 -10.5 20
      vertex 2.17467 -10.5 2.41522
    endloop
  endfacet
  facet normal 0 -1 0
    outer loop
      vertex 2.96902 -10.5 1.32189
      vertex 20 -10.5 20
      vertex 2.6293 -10.5 1.9103
    endloop
  endfacet
  facet normal 0 -1 0
    outer loop
      vertex 3.17898 -10.5 0.675713
      vertex 20 -10.5 20
      vertex 2.96902 -10.5 1.32189
    endloop
  endfacet
  facet normal 0 -1 0
    outer loop
      vertex 3.25 -10.5 0
      vertex 20 -10.5 20
      vertex 3.17898 -10.5 0.675713
    endloop
  endfacet
  facet normal 0 -1 0
    outer loop
      vertex 20 -10.5 -20
      vertex 3.25 -10.5 0
      vertex 3.17898 -10.5 -0.675713
    endloop
  endfacet
  facet normal 0 -1 0
    outer loop
      vertex 20 -10.5 -20
      vertex 3.17898 -10.5 -0.675713
      vertex 2.96902 -10.5 -1.32189
    endloop
  endfacet
  facet normal 0 -1 0
    outer loop
      vertex 20 -10.5 -20
      vertex 2.96902 -10.5 -1.32189
      vertex 2.6293 -10.5 -1.9103
    endloop
  endfacet
  facet normal 0 -1 0
    outer loop
      vertex 20 -10.5 -20
      vertex 0.339717 -10.5 -3.2322
      vertex -20 -10.5 -20
    endloop
  endfacet
  facet normal 0 -1 0
    outer loop
      vertex 0.339717 -10.5 -3.2322
      vertex 20 -10.5 -20
      vertex 1.0043 -10.5 -3.09093
    endloop
  endfacet
  facet normal 0 -1 0
    outer loop
      vertex 1.0043 -10.5 -3.09093
      vertex 20 -10.5 -20
      vertex 1.625 -10.5 -2.81458
    endloop
  endfacet
  facet normal 0 -1 0
    outer loop
      vertex 3.25 -10.5 0
      vertex 20 -10.5 -20
      vertex 20 -10.5 20
    endloop
  endfacet
  facet normal 0 -1 0
    outer loop
      vertex 2.17467 -10.5 -2.41522
      vertex 20 -10.5 -20
      vertex 2.6293 -10.5 -1.9103
    endloop
  endfacet
  facet normal 0 -1 0
    outer loop
      vertex 1.625 -10.5 -2.81458
      vertex 20 -10.5 -20
      vertex 2.17467 -10.5 -2.41522
    endloop
  endfacet
  facet normal 1 -0 0
    outer loop
      vertex -19 -9.5 20
      vertex -19 9.5 -20
      vertex -19 9.5 20
    endloop
  endfacet
  facet normal 1 0 0
    outer loop
      vertex -19 9.5 -20
      vertex -19 -9.5 20
      vertex -19 -9.5 -20
    endloop
  endfacet
  facet normal -1 0 0
    outer loop
      vertex 19 -9.5 -20
      vertex 19 9.5 20
      vertex 19 9.5 -20
    endloop
  endfacet
  facet normal -1 -0 0
    outer loop
      vertex 19 9.5 20
      vertex 19 -9.5 -20
      vertex 19 -9.5 20
    endloop
  endfacet
  facet normal 0 -1 0
    outer loop
      vertex -19 9.5 20
      vertex -2.5 9.5 10
      vertex -2.5 9.5 20
    endloop
  endfacet
  facet normal 0 -1 0
    outer loop
      vertex -19 9.5 20
      vertex -2.4827 9.5 9.8354
      vertex -2.5 9.5 10
    endloop
  endfacet
  facet normal 0 -1 0
    outer loop
      vertex -19 9.5 20
      vertex -2.44537 9.5 9.48022
      vertex -2.4827 9.5 9.8354
    endloop
  endfacet
  facet normal 0 -1 0
    outer loop
      vertex -19 9.5 20
      vertex -2.28386 9.5 8.98316
      vertex -2.44537 9.5 9.48022
    endloop
  endfacet
  facet normal 0 -1 0
    outer loop
      vertex -19 9.5 -20
      vertex -2.28386 9.5 8.98316
      vertex -19 9.5 20
    endloop
  endfacet
  facet normal 0 -1 -0
    outer loop
      vertex -2.28386 9.5 8.98316
      vertex -19 9.5 -20
      vertex -2.02254 9.5 8.53054
    endloop
  endfacet
  facet normal 0 -1 -0
    outer loop
      vertex -2.02254 9.5 8.53054
      vertex -19 9.5 -20
      vertex -1.67283 9.5 8.14214
    endloop
  endfacet
  facet normal 0 -1 -0
    outer loop
      vertex -0.261321 9.5 7.51369
      vertex -19 9.5 -20
      vertex 0.261321 9.5 7.51369
    endloop
  endfacet
  facet normal 0 -1 -0
    outer loop
      vertex -0.772542 9.5 7.62236
      vertex -19 9.5 -20
      vertex -0.261321 9.5 7.51369
    endloop
  endfacet
  facet normal 0 -1 -0
    outer loop
      vertex -1.25 9.5 7.83494
      vertex -19 9.5 -20
      vertex -0.772542 9.5 7.62236
    endloop
  endfacet
  facet normal 0 -1 -0
    outer loop
      vertex -1.67283 9.5 8.14214
      vertex -19 9.5 -20
      vertex -1.25 9.5 7.83494
    endloop
  endfacet
  facet normal 0 -1 0
    outer loop
      vertex 2.5 9.5 10
      vertex 19 9.5 20
      vertex 2.5 9.5 20
    endloop
  endfacet
  facet normal 0 -1 0
    outer loop
      vertex 2.44537 9.5 9.48022
      vertex 19 9.5 20
      vertex 2.5 9.5 10
    endloop
  endfacet
  facet normal 0 -1 0
    outer loop
      vertex 2.28386 9.5 8.98316
      vertex 19 9.5 20
      vertex 2.44537 9.5 9.48022
    endloop
  endfacet
  facet normal 0 -1 0
    outer loop
      vertex 19 9.5 -20
      vertex 2.28386 9.5 8.98316
      vertex 2.02254 9.5 8.53054
    endloop
  endfacet
  facet normal 0 -1 0
    outer loop
      vertex 19 9.5 -20
      vertex 2.02254 9.5 8.53054
      vertex 1.67283 9.5 8.14214
    endloop
  endfacet
  facet normal 0 -1 0
    outer loop
      vertex 19 9.5 -20
      vertex 1.67283 9.5 8.14214
      vertex 1.25 9.5 7.83494
    endloop
  endfacet
  facet normal 0 -1 0
    outer loop
      vertex 19 9.5 -20
      vertex 0.261321 9.5 7.51369
      vertex -19 9.5 -20
    endloop
  endfacet
  facet normal 0 -1 0
    outer loop
      vertex 0.261321 9.5 7.51369
      vertex 19 9.5 -20
      vertex 0.772542 9.5 7.62236
    endloop
  endfacet
  facet normal 0 -1 0
    outer loop
      vertex 0.772542 9.5 7.62236
      vertex 19 9.5 -20
      vertex 1.25 9.5 7.83494
    endloop
  endfacet
  facet normal 0 -1 0
    outer loop
      vertex 2.28386 9.5 8.98316
      vertex 19 9.5 -20
      vertex 19 9.5 20
    endloop
  endfacet
  facet normal 0 1 0
    outer loop
      vertex 19 -9.5 20
      vertex 0.339717 -9.5 3.2322
      vertex -19 -9.5 20
    endloop
  endfacet
  facet normal 0 1 0
    outer loop
      vertex 19 -9.5 20
      vertex 1.0043 -9.5 3.09093
      vertex 0.339717 -9.5 3.2322
    endloop
  endfacet
  facet normal 0 1 0
    outer loop
      vertex 19 -9.5 20
      vertex 1.625 -9.5 2.81458
      vertex 1.0043 -9.5 3.09093
    endloop
  endfacet
  facet normal 0 1 0
    outer loop
      vertex 19 -9.5 20
      vertex 2.17467 -9.5 2.41522
      vertex 1.625 -9.5 2.81458
    endloop
  endfacet
  facet normal 0 1 0
    outer loop
      vertex 19 -9.5 20
      vertex 2.6293 -9.5 1.9103
      vertex 2.17467 -9.5 2.41522
    endloop
  endfacet
  facet normal 0 1 0
    outer loop
      vertex 19 -9.5 20
      vertex 2.96902 -9.5 1.32189
      vertex 2.6293 -9.5 1.9103
    endloop
  endfacet
  facet normal 0 1 0
    outer loop
      vertex 19 -9.5 20
      vertex 3.17898 -9.5 0.675713
      vertex 2.96902 -9.5 1.32189
    endloop
  endfacet
  facet normal 0 1 0
    outer loop
      vertex 19 -9.5 20
      vertex 3.25 -9.5 0
      vertex 3.17898 -9.5 0.675713
    endloop
  endfacet
  facet normal 0 1 -0
    outer loop
      vertex 19 -9.5 -20
      vertex 3.25 -9.5 0
      vertex 19 -9.5 20
    endloop
  endfacet
  facet normal 0 1 0
    outer loop
      vertex 3.25 -9.5 0
      vertex 19 -9.5 -20
      vertex 3.17898 -9.5 -0.675713
    endloop
  endfacet
  facet normal 0 1 0
    outer loop
      vertex 3.17898 -9.5 -0.675713
      vertex 19 -9.5 -20
      vertex 2.96902 -9.5 -1.32189
    endloop
  endfacet
  facet normal 0 1 0
    outer loop
      vertex 0.339717 -9.5 -3.2322
      vertex 19 -9.5 -20
      vertex -0.339717 -9.5 -3.2322
    endloop
  endfacet
  facet normal 0 1 0
    outer loop
      vertex 1.0043 -9.5 -3.09093
      vertex 19 -9.5 -20
      vertex 0.339717 -9.5 -3.2322
    endloop
  endfacet
  facet normal 0 1 0
    outer loop
      vertex 1.625 -9.5 -2.81458
      vertex 19 -9.5 -20
      vertex 1.0043 -9.5 -3.09093
    endloop
  endfacet
  facet normal 0 1 0
    outer loop
      vertex 2.17467 -9.5 -2.41522
      vertex 19 -9.5 -20
      vertex 1.625 -9.5 -2.81458
    endloop
  endfacet
  facet normal 0 1 0
    outer loop
      vertex 2.6293 -9.5 -1.9103
      vertex 19 -9.5 -20
      vertex 2.17467 -9.5 -2.41522
    endloop
  endfacet
  facet normal 0 1 0
    outer loop
      vertex 2.96902 -9.5 -1.32189
      vertex 19 -9.5 -20
      vertex 2.6293 -9.5 -1.9103
    endloop
  endfacet
  facet normal 0 1 -0
    outer loop
      vertex -0.339717 -9.5 3.2322
      vertex -19 -9.5 20
      vertex 0.339717 -9.5 3.2322
    endloop
  endfacet
  facet normal 0 1 -0
    outer loop
      vertex -1.0043 -9.5 3.09093
      vertex -19 -9.5 20
      vertex -0.339717 -9.5 3.2322
    endloop
  endfacet
  facet normal 0 1 -0
    outer loop
      vertex -1.625 -9.5 2.81458
      vertex -19 -9.5 20
      vertex -1.0043 -9.5 3.09093
    endloop
  endfacet
  facet normal 0 1 -0
    outer loop
      vertex -2.17467 -9.5 2.41522
      vertex -19 -9.5 20
      vertex -1.625 -9.5 2.81458
    endloop
  endfacet
  facet normal 0 1 -0
    outer loop
      vertex -2.6293 -9.5 1.9103
      vertex -19 -9.5 20
      vertex -2.17467 -9.5 2.41522
    endloop
  endfacet
  facet normal 0 1 -0
    outer loop
      vertex -2.96902 -9.5 1.32189
      vertex -19 -9.5 20
      vertex -2.6293 -9.5 1.9103
    endloop
  endfacet
  facet normal 0 1 -0
    outer loop
      vertex -3.17898 -9.5 0.675713
      vertex -19 -9.5 20
      vertex -2.96902 -9.5 1.32189
    endloop
  endfacet
  facet normal 0 1 -0
    outer loop
      vertex -3.25 -9.5 0
      vertex -19 -9.5 20
      vertex -3.17898 -9.5 0.675713
    endloop
  endfacet
  facet normal 0 1 0
    outer loop
      vertex -19 -9.5 -20
      vertex -3.25 -9.5 0
      vertex -3.17898 -9.5 -0.675713
    endloop
  endfacet
  facet normal 0 1 0
    outer loop
      vertex -19 -9.5 -20
      vertex -3.17898 -9.5 -0.675713
      vertex -2.96902 -9.5 -1.32189
    endloop
  endfacet
  facet normal 0 1 0
    outer loop
      vertex -19 -9.5 -20
      vertex -2.96902 -9.5 -1.32189
      vertex -2.6293 -9.5 -1.9103
    endloop
  endfacet
  facet normal 0 1 0
    outer loop
      vertex -19 -9.5 -20
      vertex -0.339717 -9.5 -3.2322
      vertex 19 -9.5 -20
    endloop
  endfacet
  facet normal 0 1 0
    outer loop
      vertex -0.339717 -9.5 -3.2322
      vertex -19 -9.5 -20
      vertex -1.0043 -9.5 -3.09093
    endloop
  endfacet
  facet normal 0 1 0
    outer loop
      vertex -1.0043 -9.5 -3.09093
      vertex -19 -9.5 -20
      vertex -1.625 -9.5 -2.81458
    endloop
  endfacet
  facet normal 0 1 0
    outer loop
      vertex -3.25 -9.5 0
      vertex -19 -9.5 -20
      vertex -19 -9.5 20
    endloop
  endfacet
  facet normal 0 1 0
    outer loop
      vertex -2.17467 -9.5 -2.41522
      vertex -19 -9.5 -20
      vertex -2.6293 -9.5 -1.9103
    endloop
  endfacet
  facet normal 0 1 0
    outer loop
      vertex -1.625 -9.5 -2.81458
      vertex -19 -9.5 -20
      vertex -2.17467 -9.5 -2.41522
    endloop
  endfacet
  facet normal -0.994522 0 -0.10453
    outer loop
      vertex 3.25 -10.5 0
      vertex 3.17898 -9.5 0.675713
      vertex 3.25 -9.5 0
    endloop
  endfacet
  facet normal -0.994522 -0 -0.10453
    outer loop
      vertex 3.17898 -9.5 0.675713
      vertex 3.25 -10.5 0
      vertex 3.17898 -10.5 0.675713
    endloop
  endfacet
  facet normal -0.866026 0 -0.5
    outer loop
      vertex 2.96902 -10.5 1.32189
      vertex 2.6293 -9.5 1.9103
      vertex 2.96902 -9.5 1.32189
    endloop
  endfacet
  facet normal -0.866026 -0 -0.5
    outer loop
      vertex 2.6293 -9.5 1.9103
      vertex 2.96902 -10.5 1.32189
      vertex 2.6293 -10.5 1.9103
    endloop
  endfacet
  facet normal -0.743145 0 -0.66913
    outer loop
      vertex 2.6293 -10.5 1.9103
      vertex 2.17467 -9.5 2.41522
      vertex 2.6293 -9.5 1.9103
    endloop
  endfacet
  facet normal -0.743145 -0 -0.66913
    outer loop
      vertex 2.17467 -9.5 2.41522
      vertex 2.6293 -10.5 1.9103
      vertex 2.17467 -10.5 2.41522
    endloop
  endfacet
  facet normal 0.866026 0 -0.5
    outer loop
      vertex -2.6293 -10.5 1.9103
      vertex -2.96902 -9.5 1.32189
      vertex -2.6293 -9.5 1.9103
    endloop
  endfacet
  facet normal 0.866026 0 -0.5
    outer loop
      vertex -2.96902 -9.5 1.32189
      vertex -2.6293 -10.5 1.9103
      vertex -2.96902 -10.5 1.32189
    endloop
  endfacet
  facet normal -0.994522 0 0.10453
    outer loop
      vertex 3.17898 -10.5 -0.675713
      vertex 3.25 -9.5 0
      vertex 3.17898 -9.5 -0.675713
    endloop
  endfacet
  facet normal -0.994522 0 0.10453
    outer loop
      vertex 3.25 -9.5 0
      vertex 3.17898 -10.5 -0.675713
      vertex 3.25 -10.5 0
    endloop
  endfacet
  facet normal -0.207912 0 0.978147
    outer loop
      vertex 0.339717 -9.5 -3.2322
      vertex 1.0043 -10.5 -3.09093
      vertex 1.0043 -9.5 -3.09093
    endloop
  endfacet
  facet normal -0.207912 0 0.978147
    outer loop
      vertex 1.0043 -10.5 -3.09093
      vertex 0.339717 -9.5 -3.2322
      vertex 0.339717 -10.5 -3.2322
    endloop
  endfacet
  facet normal 0 0 -1
    outer loop
      vertex -0.339717 -10.5 3.2322
      vertex 0.339717 -9.5 3.2322
      vertex 0.339717 -10.5 3.2322
    endloop
  endfacet
  facet normal -0 0 -1
    outer loop
      vertex 0.339717 -9.5 3.2322
      vertex -0.339717 -10.5 3.2322
      vertex -0.339717 -9.5 3.2322
    endloop
  endfacet
  facet normal 0.994522 0 -0.10453
    outer loop
      vertex -3.17898 -10.5 0.675713
      vertex -3.25 -9.5 0
      vertex -3.17898 -9.5 0.675713
    endloop
  endfacet
  facet normal 0.994522 0 -0.10453
    outer loop
      vertex -3.25 -9.5 0
      vertex -3.17898 -10.5 0.675713
      vertex -3.25 -10.5 0
    endloop
  endfacet
  facet normal 0.743145 0 -0.66913
    outer loop
      vertex -2.17467 -10.5 2.41522
      vertex -2.6293 -9.5 1.9103
      vertex -2.17467 -9.5 2.41522
    endloop
  endfacet
  facet normal 0.743145 0 -0.66913
    outer loop
      vertex -2.6293 -9.5 1.9103
      vertex -2.17467 -10.5 2.41522
      vertex -2.6293 -10.5 1.9103
    endloop
  endfacet
  facet normal 0.207912 0 -0.978147
    outer loop
      vertex -1.0043 -10.5 3.09093
      vertex -0.339717 -9.5 3.2322
      vertex -0.339717 -10.5 3.2322
    endloop
  endfacet
  facet normal 0.207912 0 -0.978147
    outer loop
      vertex -0.339717 -9.5 3.2322
      vertex -1.0043 -10.5 3.09093
      vertex -1.0043 -9.5 3.09093
    endloop
  endfacet
  facet normal 0.207912 0 0.978147
    outer loop
      vertex -1.0043 -9.5 -3.09093
      vertex -0.339717 -10.5 -3.2322
      vertex -0.339717 -9.5 -3.2322
    endloop
  endfacet
  facet normal 0.207912 0 0.978147
    outer loop
      vertex -0.339717 -10.5 -3.2322
      vertex -1.0043 -9.5 -3.09093
      vertex -1.0043 -10.5 -3.09093
    endloop
  endfacet
  facet normal -0 0 1
    outer loop
      vertex -0.339717 -9.5 -3.2322
      vertex 0.339717 -10.5 -3.2322
      vertex 0.339717 -9.5 -3.2322
    endloop
  endfacet
  facet normal 0 0 1
    outer loop
      vertex 0.339717 -10.5 -3.2322
      vertex -0.339717 -9.5 -3.2322
      vertex -0.339717 -10.5 -3.2322
    endloop
  endfacet
  facet normal -0.951056 0 -0.309017
    outer loop
      vertex 3.17898 -10.5 0.675713
      vertex 2.96902 -9.5 1.32189
      vertex 3.17898 -9.5 0.675713
    endloop
  endfacet
  facet normal -0.951056 -0 -0.309017
    outer loop
      vertex 2.96902 -9.5 1.32189
      vertex 3.17898 -10.5 0.675713
      vertex 2.96902 -10.5 1.32189
    endloop
  endfacet
  facet normal -0.207912 0 -0.978147
    outer loop
      vertex 0.339717 -10.5 3.2322
      vertex 1.0043 -9.5 3.09093
      vertex 1.0043 -10.5 3.09093
    endloop
  endfacet
  facet normal -0.207912 0 -0.978147
    outer loop
      vertex 1.0043 -9.5 3.09093
      vertex 0.339717 -10.5 3.2322
      vertex 0.339717 -9.5 3.2322
    endloop
  endfacet
  facet normal -0.587785 0 -0.809017
    outer loop
      vertex 1.625 -10.5 2.81458
      vertex 2.17467 -9.5 2.41522
      vertex 2.17467 -10.5 2.41522
    endloop
  endfacet
  facet normal -0.587785 0 -0.809017
    outer loop
      vertex 2.17467 -9.5 2.41522
      vertex 1.625 -10.5 2.81458
      vertex 1.625 -9.5 2.81458
    endloop
  endfacet
  facet normal -0.406736 0 -0.913546
    outer loop
      vertex 1.0043 -10.5 3.09093
      vertex 1.625 -9.5 2.81458
      vertex 1.625 -10.5 2.81458
    endloop
  endfacet
  facet normal -0.406736 0 -0.913546
    outer loop
      vertex 1.625 -9.5 2.81458
      vertex 1.0043 -10.5 3.09093
      vertex 1.0043 -9.5 3.09093
    endloop
  endfacet
  facet normal 0.951056 0 -0.309017
    outer loop
      vertex -2.96902 -10.5 1.32189
      vertex -3.17898 -9.5 0.675713
      vertex -2.96902 -9.5 1.32189
    endloop
  endfacet
  facet normal 0.951056 0 -0.309017
    outer loop
      vertex -3.17898 -9.5 0.675713
      vertex -2.96902 -10.5 1.32189
      vertex -3.17898 -10.5 0.675713
    endloop
  endfacet
  facet normal 0.406737 0 -0.913545
    outer loop
      vertex -1.625 -10.5 2.81458
      vertex -1.0043 -9.5 3.09093
      vertex -1.0043 -10.5 3.09093
    endloop
  endfacet
  facet normal 0.406737 0 -0.913545
    outer loop
      vertex -1.0043 -9.5 3.09093
      vertex -1.625 -10.5 2.81458
      vertex -1.625 -9.5 2.81458
    endloop
  endfacet
  facet normal 0.587785 0 -0.809017
    outer loop
      vertex -2.17467 -10.5 2.41522
      vertex -1.625 -9.5 2.81458
      vertex -1.625 -10.5 2.81458
    endloop
  endfacet
  facet normal 0.587785 0 -0.809017
    outer loop
      vertex -1.625 -9.5 2.81458
      vertex -2.17467 -10.5 2.41522
      vertex -2.17467 -9.5 2.41522
    endloop
  endfacet
  facet normal -0.951056 0 0.309017
    outer loop
      vertex 2.96902 -10.5 -1.32189
      vertex 3.17898 -9.5 -0.675713
      vertex 2.96902 -9.5 -1.32189
    endloop
  endfacet
  facet normal -0.951056 0 0.309017
    outer loop
      vertex 3.17898 -9.5 -0.675713
      vertex 2.96902 -10.5 -1.32189
      vertex 3.17898 -10.5 -0.675713
    endloop
  endfacet
  facet normal -0.866026 0 0.5
    outer loop
      vertex 2.6293 -10.5 -1.9103
      vertex 2.96902 -9.5 -1.32189
      vertex 2.6293 -9.5 -1.9103
    endloop
  endfacet
  facet normal -0.866026 0 0.5
    outer loop
      vertex 2.96902 -9.5 -1.32189
      vertex 2.6293 -10.5 -1.9103
      vertex 2.96902 -10.5 -1.32189
    endloop
  endfacet
  facet normal 0.994522 -0 0.10453
    outer loop
      vertex -3.25 -10.5 0
      vertex -3.17898 -9.5 -0.675713
      vertex -3.25 -9.5 0
    endloop
  endfacet
  facet normal 0.994522 0 0.10453
    outer loop
      vertex -3.17898 -9.5 -0.675713
      vertex -3.25 -10.5 0
      vertex -3.17898 -10.5 -0.675713
    endloop
  endfacet
  facet normal 0.743145 -0 0.66913
    outer loop
      vertex -2.6293 -10.5 -1.9103
      vertex -2.17467 -9.5 -2.41522
      vertex -2.6293 -9.5 -1.9103
    endloop
  endfacet
  facet normal 0.743145 0 0.66913
    outer loop
      vertex -2.17467 -9.5 -2.41522
      vertex -2.6293 -10.5 -1.9103
      vertex -2.17467 -10.5 -2.41522
    endloop
  endfacet
  facet normal 0.866026 -0 0.5
    outer loop
      vertex -2.96902 -10.5 -1.32189
      vertex -2.6293 -9.5 -1.9103
      vertex -2.96902 -9.5 -1.32189
    endloop
  endfacet
  facet normal 0.866026 0 0.5
    outer loop
      vertex -2.6293 -9.5 -1.9103
      vertex -2.96902 -10.5 -1.32189
      vertex -2.6293 -10.5 -1.9103
    endloop
  endfacet
  facet normal -0.743145 0 0.66913
    outer loop
      vertex 2.17467 -10.5 -2.41522
      vertex 2.6293 -9.5 -1.9103
      vertex 2.17467 -9.5 -2.41522
    endloop
  endfacet
  facet normal -0.743145 0 0.66913
    outer loop
      vertex 2.6293 -9.5 -1.9103
      vertex 2.17467 -10.5 -2.41522
      vertex 2.6293 -10.5 -1.9103
    endloop
  endfacet
  facet normal 0.951056 -0 0.309017
    outer loop
      vertex -3.17898 -10.5 -0.675713
      vertex -2.96902 -9.5 -1.32189
      vertex -3.17898 -9.5 -0.675713
    endloop
  endfacet
  facet normal 0.951056 0 0.309017
    outer loop
      vertex -2.96902 -9.5 -1.32189
      vertex -3.17898 -10.5 -0.675713
      vertex -2.96902 -10.5 -1.32189
    endloop
  endfacet
  facet normal -0.406736 0 0.913546
    outer loop
      vertex 1.0043 -9.5 -3.09093
      vertex 1.625 -10.5 -2.81458
      vertex 1.625 -9.5 -2.81458
    endloop
  endfacet
  facet normal -0.406736 0 0.913546
    outer loop
      vertex 1.625 -10.5 -2.81458
      vertex 1.0043 -9.5 -3.09093
      vertex 1.0043 -10.5 -3.09093
    endloop
  endfacet
  facet normal -0.587785 0 0.809017
    outer loop
      vertex 1.625 -9.5 -2.81458
      vertex 2.17467 -10.5 -2.41522
      vertex 2.17467 -9.5 -2.41522
    endloop
  endfacet
  facet normal -0.587785 0 0.809017
    outer loop
      vertex 2.17467 -10.5 -2.41522
      vertex 1.625 -9.5 -2.81458
      vertex 1.625 -10.5 -2.81458
    endloop
  endfacet
  facet normal 0.587785 0 0.809017
    outer loop
      vertex -2.17467 -9.5 -2.41522
      vertex -1.625 -10.5 -2.81458
      vertex -1.625 -9.5 -2.81458
    endloop
  endfacet
  facet normal 0.587785 0 0.809017
    outer loop
      vertex -1.625 -10.5 -2.81458
      vertex -2.17467 -9.5 -2.41522
      vertex -2.17467 -10.5 -2.41522
    endloop
  endfacet
  facet normal 0.406736 0 0.913546
    outer loop
      vertex -1.625 -9.5 -2.81458
      vertex -1.0043 -10.5 -3.09093
      vertex -1.0043 -9.5 -3.09093
    endloop
  endfacet
  facet normal 0.406736 0 0.913546
    outer loop
      vertex -1.0043 -10.5 -3.09093
      vertex -1.625 -9.5 -2.81458
      vertex -1.625 -10.5 -2.81458
    endloop
  endfacet
  facet normal 1 -0 0
    outer loop
      vertex -2.5 9.5 20
      vertex -2.5 10.5 10
      vertex -2.5 10.5 20
    endloop
  endfacet
  facet normal 1 0 0
    outer loop
      vertex -2.5 10.5 10
      vertex -2.5 9.5 20
      vertex -2.5 9.5 10
    endloop
  endfacet
  facet normal -1 0 0
    outer loop
      vertex 2.5 9.5 10
      vertex 2.5 10.5 20
      vertex 2.5 10.5 10
    endloop
  endfacet
  facet normal -1 -0 0
    outer loop
      vertex 2.5 10.5 20
      vertex 2.5 9.5 10
      vertex 2.5 9.5 20
    endloop
  endfacet
  facet normal -0 0 1
    outer loop
      vertex -0.261321 10.5 7.51369
      vertex 0.261321 9.5 7.51369
      vertex 0.261321 10.5 7.51369
    endloop
  endfacet
  facet normal 0 0 1
    outer loop
      vertex 0.261321 9.5 7.51369
      vertex -0.261321 10.5 7.51369
      vertex -0.261321 9.5 7.51369
    endloop
  endfacet
  facet normal -0.587786 0 0.809017
    outer loop
      vertex 1.25 10.5 7.83494
      vertex 1.67283 9.5 8.14214
      vertex 1.67283 10.5 8.14214
    endloop
  endfacet
  facet normal -0.587786 0 0.809017
    outer loop
      vertex 1.67283 9.5 8.14214
      vertex 1.25 10.5 7.83494
      vertex 1.25 9.5 7.83494
    endloop
  endfacet
  facet normal -0.207912 0 0.978148
    outer loop
      vertex 0.261321 10.5 7.51369
      vertex 0.772542 9.5 7.62236
      vertex 0.772542 10.5 7.62236
    endloop
  endfacet
  facet normal -0.207912 0 0.978148
    outer loop
      vertex 0.772542 9.5 7.62236
      vertex 0.261321 10.5 7.51369
      vertex 0.261321 9.5 7.51369
    endloop
  endfacet
  facet normal 0.406737 0 0.913545
    outer loop
      vertex -1.25 10.5 7.83494
      vertex -0.772542 9.5 7.62236
      vertex -0.772542 10.5 7.62236
    endloop
  endfacet
  facet normal 0.406737 0 0.913545
    outer loop
      vertex -0.772542 9.5 7.62236
      vertex -1.25 10.5 7.83494
      vertex -1.25 9.5 7.83494
    endloop
  endfacet
  facet normal -0.406736 0 0.913546
    outer loop
      vertex 0.772542 10.5 7.62236
      vertex 1.25 9.5 7.83494
      vertex 1.25 10.5 7.83494
    endloop
  endfacet
  facet normal -0.406736 0 0.913546
    outer loop
      vertex 1.25 9.5 7.83494
      vertex 0.772542 10.5 7.62236
      vertex 0.772542 9.5 7.62236
    endloop
  endfacet
  facet normal -0.951056 0 0.309018
    outer loop
      vertex 2.28386 9.5 8.98316
      vertex 2.44537 10.5 9.48022
      vertex 2.28386 10.5 8.98316
    endloop
  endfacet
  facet normal -0.951056 0 0.309018
    outer loop
      vertex 2.44537 10.5 9.48022
      vertex 2.28386 9.5 8.98316
      vertex 2.44537 9.5 9.48022
    endloop
  endfacet
  facet normal -0.743145 0 0.669131
    outer loop
      vertex 1.67283 9.5 8.14214
      vertex 2.02254 10.5 8.53054
      vertex 1.67283 10.5 8.14214
    endloop
  endfacet
  facet normal -0.743145 0 0.669131
    outer loop
      vertex 2.02254 10.5 8.53054
      vertex 1.67283 9.5 8.14214
      vertex 2.02254 9.5 8.53054
    endloop
  endfacet
  facet normal -0.866025 0 0.5
    outer loop
      vertex 2.02254 9.5 8.53054
      vertex 2.28386 10.5 8.98316
      vertex 2.02254 10.5 8.53054
    endloop
  endfacet
  facet normal -0.866025 0 0.5
    outer loop
      vertex 2.28386 10.5 8.98316
      vertex 2.02254 9.5 8.53054
      vertex 2.28386 9.5 8.98316
    endloop
  endfacet
  facet normal -0.994522 0 0.104529
    outer loop
      vertex 2.44537 9.5 9.48022
      vertex 2.5 10.5 10
      vertex 2.44537 10.5 9.48022
    endloop
  endfacet
  facet normal -0.994522 0 0.104529
    outer loop
      vertex 2.5 10.5 10
      vertex 2.44537 9.5 9.48022
      vertex 2.5 9.5 10
    endloop
  endfacet
  facet normal 0.994522 0 0.104529
    outer loop
      vertex -2.4827 9.5 9.8354
      vertex -2.5 10.5 10
      vertex -2.5 9.5 10
    endloop
  endfacet
  facet normal 0.994522 3.79758e-008 0.104529
    outer loop
      vertex -2.5 10.5 10
      vertex -2.4827 9.5 9.8354
      vertex -2.48088 10.5 9.81808
    endloop
  endfacet
  facet normal 0.207912 0 0.978148
    outer loop
      vertex -0.772542 10.5 7.62236
      vertex -0.261321 9.5 7.51369
      vertex -0.261321 10.5 7.51369
    endloop
  endfacet
  facet normal 0.207912 0 0.978148
    outer loop
      vertex -0.261321 9.5 7.51369
      vertex -0.772542 10.5 7.62236
      vertex -0.772542 9.5 7.62236
    endloop
  endfacet
  facet normal 0.587785 0 0.809017
    outer loop
      vertex -1.67283 10.5 8.14214
      vertex -1.25 9.5 7.83494
      vertex -1.25 10.5 7.83494
    endloop
  endfacet
  facet normal 0.587785 0 0.809017
    outer loop
      vertex -1.25 9.5 7.83494
      vertex -1.67283 10.5 8.14214
      vertex -1.67283 9.5 8.14214
    endloop
  endfacet
  facet normal 0.994522 3.8902e-008 0.104529
    outer loop
      vertex -2.44537 9.5 9.48022
      vertex -2.48088 10.5 9.81808
      vertex -2.4827 9.5 9.8354
    endloop
  endfacet
  facet normal 0.994522 0 0.104529
    outer loop
      vertex -2.48088 10.5 9.81808
      vertex -2.44537 9.5 9.48022
      vertex -2.44537 10.5 9.48022
    endloop
  endfacet
  facet normal 0.951056 -0 0.309018
    outer loop
      vertex -2.44537 9.5 9.48022
      vertex -2.28386 10.5 8.98316
      vertex -2.44537 10.5 9.48022
    endloop
  endfacet
  facet normal 0.951056 0 0.309018
    outer loop
      vertex -2.28386 10.5 8.98316
      vertex -2.44537 9.5 9.48022
      vertex -2.28386 9.5 8.98316
    endloop
  endfacet
  facet normal 0.743145 -0 0.669131
    outer loop
      vertex -2.02254 9.5 8.53054
      vertex -1.67283 10.5 8.14214
      vertex -2.02254 10.5 8.53054
    endloop
  endfacet
  facet normal 0.743145 0 0.669131
    outer loop
      vertex -1.67283 10.5 8.14214
      vertex -2.02254 9.5 8.53054
      vertex -1.67283 9.5 8.14214
    endloop
  endfacet
  facet normal 0.866025 -0 0.5
    outer loop
      vertex -2.28386 9.5 8.98316
      vertex -2.02254 10.5 8.53054
      vertex -2.28386 10.5 8.98316
    endloop
  endfacet
  facet normal 0.866025 0 0.5
    outer loop
      vertex -2.02254 10.5 8.53054
      vertex -2.28386 9.5 8.98316
      vertex -2.02254 9.5 8.53054
    endloop
  endfacet
endsolid OpenSCAD_Model
