solid OpenSCAD_Model
  facet normal 0 0 -1
    outer loop
      vertex 2.02254 18.5305 0
      vertex 14.8153 22.3465 0
      vertex 20 0 0
    endloop
  endfacet
  facet normal 0 -0 -1
    outer loop
      vertex 2.37764 19.2275 0
      vertex 14.8153 22.3465 0
      vertex 2.02254 18.5305 0
    endloop
  endfacet
  facet normal 0 0 -1
    outer loop
      vertex 2.37764 20.7725 0
      vertex 14.8153 22.3465 0
      vertex 2.5 20 0
    endloop
  endfacet
  facet normal -0 0 -1
    outer loop
      vertex 14.8153 22.3465 0
      vertex 2.37764 20.7725 0
      vertex 14.2658 24.6353 0
    endloop
  endfacet
  facet normal -0 0 -1
    outer loop
      vertex 14.2658 24.6353 0
      vertex 2.37764 20.7725 0
      vertex 13.3651 26.8099 0
    endloop
  endfacet
  facet normal -0 0 -1
    outer loop
      vertex 13.3651 26.8099 0
      vertex 2.02254 21.4695 0
      vertex 12.1353 28.8168 0
    endloop
  endfacet
  facet normal -0 0 -1
    outer loop
      vertex 12.1353 28.8168 0
      vertex 2.02254 21.4695 0
      vertex 10.6066 30.6066 0
    endloop
  endfacet
  facet normal 0 0 -1
    outer loop
      vertex 1.46946 22.0225 0
      vertex 10.6066 30.6066 0
      vertex 2.02254 21.4695 0
    endloop
  endfacet
  facet normal 0 0 -1
    outer loop
      vertex 2.02254 21.4695 0
      vertex 13.3651 26.8099 0
      vertex 2.37764 20.7725 0
    endloop
  endfacet
  facet normal 0 -0 -1
    outer loop
      vertex 2.5 20 0
      vertex 14.8153 22.3465 0
      vertex 2.37764 19.2275 0
    endloop
  endfacet
  facet normal 0 0 -1
    outer loop
      vertex 20 0 0
      vertex 1.46946 17.9775 0
      vertex 2.02254 18.5305 0
    endloop
  endfacet
  facet normal 0 0 -1
    outer loop
      vertex 20 0 0
      vertex 0.772542 17.6224 0
      vertex 1.46946 17.9775 0
    endloop
  endfacet
  facet normal 0 0 -1
    outer loop
      vertex 20 0 0
      vertex 0 17.5 0
      vertex 0.772542 17.6224 0
    endloop
  endfacet
  facet normal 0 0 -1
    outer loop
      vertex -20 0 0
      vertex 0 17.5 0
      vertex 20 0 0
    endloop
  endfacet
  facet normal -0 0 -1
    outer loop
      vertex 0 17.5 0
      vertex -20 0 0
      vertex -0.772542 17.6224 0
    endloop
  endfacet
  facet normal 0 0 -1
    outer loop
      vertex -0.772542 22.3776 0
      vertex -6.80986 33.3651 0
      vertex -4.63525 34.2658 0
    endloop
  endfacet
  facet normal 0 0 -1
    outer loop
      vertex -14.8153 22.3465 0
      vertex -2.5 20 0
      vertex -2.37764 19.2275 0
    endloop
  endfacet
  facet normal 0 0 -1
    outer loop
      vertex -2.37764 20.7725 0
      vertex -8.81678 32.1353 0
      vertex -6.80986 33.3651 0
    endloop
  endfacet
  facet normal 0 0 -1
    outer loop
      vertex -2.37764 20.7725 0
      vertex -10.6066 30.6066 0
      vertex -8.81678 32.1353 0
    endloop
  endfacet
  facet normal 0 0 -1
    outer loop
      vertex -14.8153 22.3465 0
      vertex -2.37764 19.2275 0
      vertex -2.02254 18.5305 0
    endloop
  endfacet
  facet normal 0 0 -1
    outer loop
      vertex -2.37764 20.7725 0
      vertex -12.1353 28.8168 0
      vertex -10.6066 30.6066 0
    endloop
  endfacet
  facet normal 0 0 -1
    outer loop
      vertex -2.37764 20.7725 0
      vertex -13.3651 26.8099 0
      vertex -12.1353 28.8168 0
    endloop
  endfacet
  facet normal 0 0 -1
    outer loop
      vertex -20 0 0
      vertex -2.02254 18.5305 0
      vertex -1.46946 17.9775 0
    endloop
  endfacet
  facet normal -0 0 -1
    outer loop
      vertex -0.772542 17.6224 0
      vertex -20 0 0
      vertex -1.46946 17.9775 0
    endloop
  endfacet
  facet normal 0 0 -1
    outer loop
      vertex -2.37764 20.7725 0
      vertex -14.8153 22.3465 0
      vertex -14.2658 24.6353 0
    endloop
  endfacet
  facet normal 0 0 -1
    outer loop
      vertex -2.37764 20.7725 0
      vertex -14.2658 24.6353 0
      vertex -13.3651 26.8099 0
    endloop
  endfacet
  facet normal -0 0 -1
    outer loop
      vertex -2.02254 18.5305 0
      vertex -20 0 0
      vertex -14.8153 22.3465 0
    endloop
  endfacet
  facet normal -0 0 -1
    outer loop
      vertex 10.6066 30.6066 0
      vertex 1.46946 22.0225 0
      vertex 8.81678 32.1353 0
    endloop
  endfacet
  facet normal -0 0 -1
    outer loop
      vertex 8.81678 32.1353 0
      vertex 1.46946 22.0225 0
      vertex 6.80986 33.3651 0
    endloop
  endfacet
  facet normal 0 0 -1
    outer loop
      vertex 0.772542 22.3776 0
      vertex 6.80986 33.3651 0
      vertex 1.46946 22.0225 0
    endloop
  endfacet
  facet normal -0 0 -1
    outer loop
      vertex 6.80986 33.3651 0
      vertex 0.772542 22.3776 0
      vertex 4.63525 34.2658 0
    endloop
  endfacet
  facet normal -0 0 -1
    outer loop
      vertex 4.63525 34.2658 0
      vertex 0.772542 22.3776 0
      vertex 2.34652 34.8153 0
    endloop
  endfacet
  facet normal 0 0 -1
    outer loop
      vertex 0 22.5 0
      vertex 2.34652 34.8153 0
      vertex 0.772542 22.3776 0
    endloop
  endfacet
  facet normal 0 0 -1
    outer loop
      vertex 0 22.5 0
      vertex 0 35 0
      vertex 2.34652 34.8153 0
    endloop
  endfacet
  facet normal 0 0 -1
    outer loop
      vertex -2.34652 34.8153 0
      vertex 0 22.5 0
      vertex -0.772542 22.3776 0
    endloop
  endfacet
  facet normal 0 0 -1
    outer loop
      vertex -6.80986 33.3651 0
      vertex -0.772542 22.3776 0
      vertex -1.46946 22.0225 0
    endloop
  endfacet
  facet normal 0 0 -1
    outer loop
      vertex -6.80986 33.3651 0
      vertex -1.46946 22.0225 0
      vertex -2.02254 21.4695 0
    endloop
  endfacet
  facet normal 0 0 -1
    outer loop
      vertex 0 22.5 0
      vertex -2.34652 34.8153 0
      vertex 0 35 0
    endloop
  endfacet
  facet normal 0 0 -1
    outer loop
      vertex -6.80986 33.3651 0
      vertex -2.02254 21.4695 0
      vertex -2.37764 20.7725 0
    endloop
  endfacet
  facet normal 0 0 -1
    outer loop
      vertex -14.8153 22.3465 0
      vertex -2.37764 20.7725 0
      vertex -2.5 20 0
    endloop
  endfacet
  facet normal 0 0 -1
    outer loop
      vertex -0.772542 22.3776 0
      vertex -4.63525 34.2658 0
      vertex -2.34652 34.8153 0
    endloop
  endfacet
  facet normal 0 -1 0
    outer loop
      vertex -20 0 10
      vertex -9.53647 0 6.42658
      vertex 20 0 10
    endloop
  endfacet
  facet normal 0 -1 0
    outer loop
      vertex 20 0 10
      vertex 9.76824 0 6.46329
      vertex 10 0 6.5
    endloop
  endfacet
  facet normal 0 -1 0
    outer loop
      vertex 9.53647 0 6.42658
      vertex 20 0 10
      vertex -9.53647 0 6.42658
    endloop
  endfacet
  facet normal 0 -1 0
    outer loop
      vertex 20 0 10
      vertex 9.53647 0 6.42658
      vertex 9.76824 0 6.46329
    endloop
  endfacet
  facet normal 0 -1 0
    outer loop
      vertex -9.11832 0 6.21352
      vertex 9.53647 0 6.42658
      vertex -9.53647 0 6.42658
    endloop
  endfacet
  facet normal 0 -1 0
    outer loop
      vertex -9.11832 0 6.21352
      vertex 9.11832 0 6.21352
      vertex 9.53647 0 6.42658
    endloop
  endfacet
  facet normal 0 -1 0
    outer loop
      vertex -8.78647 0 5.88168
      vertex 9.11832 0 6.21352
      vertex -9.11832 0 6.21352
    endloop
  endfacet
  facet normal 0 -1 0
    outer loop
      vertex -8.78647 0 5.88168
      vertex 8.78647 0 5.88168
      vertex 9.11832 0 6.21352
    endloop
  endfacet
  facet normal 0 -1 0
    outer loop
      vertex -8.57341 0 5.46352
      vertex 8.78647 0 5.88168
      vertex -8.78647 0 5.88168
    endloop
  endfacet
  facet normal 0 -1 0
    outer loop
      vertex -8.57341 0 5.46352
      vertex 8.57341 0 5.46352
      vertex 8.78647 0 5.88168
    endloop
  endfacet
  facet normal 0 -1 0
    outer loop
      vertex -8.53671 0 5.23176
      vertex 8.57341 0 5.46352
      vertex -8.57341 0 5.46352
    endloop
  endfacet
  facet normal 0 -1 0
    outer loop
      vertex -8.53671 0 5.23176
      vertex 8.53671 0 5.23176
      vertex 8.57341 0 5.46352
    endloop
  endfacet
  facet normal 0 -1 0
    outer loop
      vertex -8.5 0 5
      vertex 8.53671 0 5.23176
      vertex -8.53671 0 5.23176
    endloop
  endfacet
  facet normal 0 -1 0
    outer loop
      vertex -8.5 0 5
      vertex 8.5 0 5
      vertex 8.53671 0 5.23176
    endloop
  endfacet
  facet normal 0 -1 0
    outer loop
      vertex -8.53671 0 4.76824
      vertex 8.5 0 5
      vertex -8.5 0 5
    endloop
  endfacet
  facet normal 0 -1 0
    outer loop
      vertex -8.53671 0 4.76824
      vertex 8.53671 0 4.76824
      vertex 8.5 0 5
    endloop
  endfacet
  facet normal 0 -1 0
    outer loop
      vertex -8.57341 0 4.53647
      vertex 8.53671 0 4.76824
      vertex -8.53671 0 4.76824
    endloop
  endfacet
  facet normal 0 -1 0
    outer loop
      vertex -8.57341 0 4.53647
      vertex 8.57341 0 4.53647
      vertex 8.53671 0 4.76824
    endloop
  endfacet
  facet normal 0 -1 0
    outer loop
      vertex -8.78647 0 4.11832
      vertex 8.57341 0 4.53647
      vertex -8.57341 0 4.53647
    endloop
  endfacet
  facet normal 0 -1 0
    outer loop
      vertex -8.78647 0 4.11832
      vertex 8.78647 0 4.11832
      vertex 8.57341 0 4.53647
    endloop
  endfacet
  facet normal 0 -1 0
    outer loop
      vertex -9.11832 0 3.78647
      vertex 8.78647 0 4.11832
      vertex -8.78647 0 4.11832
    endloop
  endfacet
  facet normal 0 -1 0
    outer loop
      vertex -9.11832 0 3.78647
      vertex 9.11832 0 3.78647
      vertex 8.78647 0 4.11832
    endloop
  endfacet
  facet normal 0 -1 0
    outer loop
      vertex -9.53647 0 3.57341
      vertex 9.11832 0 3.78647
      vertex -9.11832 0 3.78647
    endloop
  endfacet
  facet normal 0 -1 0
    outer loop
      vertex -9.53647 0 3.57341
      vertex 9.53647 0 3.57341
      vertex 9.11832 0 3.78647
    endloop
  endfacet
  facet normal 0 -1 0
    outer loop
      vertex -20 0 0
      vertex -9.53647 0 3.57341
      vertex -9.76824 0 3.53671
    endloop
  endfacet
  facet normal 0 -1 -0
    outer loop
      vertex -9.53647 0 3.57341
      vertex -20 0 0
      vertex 9.53647 0 3.57341
    endloop
  endfacet
  facet normal 0 -1 0
    outer loop
      vertex -20 0 0
      vertex -9.76824 0 3.53671
      vertex -10 0 3.5
    endloop
  endfacet
  facet normal 0 -1 0
    outer loop
      vertex 20 0 0
      vertex 9.53647 0 3.57341
      vertex -20 0 0
    endloop
  endfacet
  facet normal 0 -1 0
    outer loop
      vertex -9.76824 0 6.46329
      vertex -20 0 10
      vertex -10 0 6.5
    endloop
  endfacet
  facet normal 0 -1 0
    outer loop
      vertex -20 0 10
      vertex -10.2318 0 6.46329
      vertex -10 0 6.5
    endloop
  endfacet
  facet normal 0 -1 0
    outer loop
      vertex -20 0 10
      vertex -10.4635 0 6.42658
      vertex -10.2318 0 6.46329
    endloop
  endfacet
  facet normal 0 -1 0
    outer loop
      vertex -20 0 10
      vertex -10.8817 0 6.21352
      vertex -10.4635 0 6.42658
    endloop
  endfacet
  facet normal 0 -1 0
    outer loop
      vertex -20 0 10
      vertex -11.2135 0 5.88168
      vertex -10.8817 0 6.21352
    endloop
  endfacet
  facet normal 0 -1 0
    outer loop
      vertex -20 0 10
      vertex -11.4266 0 5.46352
      vertex -11.2135 0 5.88168
    endloop
  endfacet
  facet normal 0 -1 0
    outer loop
      vertex -20 0 10
      vertex -11.4633 0 5.23176
      vertex -11.4266 0 5.46352
    endloop
  endfacet
  facet normal 0 -1 0
    outer loop
      vertex -20 0 10
      vertex -11.5 0 5
      vertex -11.4633 0 5.23176
    endloop
  endfacet
  facet normal 0 -1 0
    outer loop
      vertex -20 0 0
      vertex -11.5 0 5
      vertex -20 0 10
    endloop
  endfacet
  facet normal 0 -1 -0
    outer loop
      vertex -11.5 0 5
      vertex -20 0 0
      vertex -11.4633 0 4.76824
    endloop
  endfacet
  facet normal 0 -1 -0
    outer loop
      vertex -11.4633 0 4.76824
      vertex -20 0 0
      vertex -11.4266 0 4.53647
    endloop
  endfacet
  facet normal 0 -1 -0
    outer loop
      vertex -11.4266 0 4.53647
      vertex -20 0 0
      vertex -11.2135 0 4.11832
    endloop
  endfacet
  facet normal 0 -1 0
    outer loop
      vertex 9.53647 0 3.57341
      vertex 20 0 0
      vertex 9.76824 0 3.53671
    endloop
  endfacet
  facet normal 0 -1 -0
    outer loop
      vertex -10.2318 0 3.53671
      vertex -20 0 0
      vertex -10 0 3.5
    endloop
  endfacet
  facet normal 0 -1 -0
    outer loop
      vertex -10.4635 0 3.57341
      vertex -20 0 0
      vertex -10.2318 0 3.53671
    endloop
  endfacet
  facet normal 0 -1 -0
    outer loop
      vertex -10.8817 0 3.78647
      vertex -20 0 0
      vertex -10.4635 0 3.57341
    endloop
  endfacet
  facet normal 0 -1 -0
    outer loop
      vertex -11.2135 0 4.11832
      vertex -20 0 0
      vertex -10.8817 0 3.78647
    endloop
  endfacet
  facet normal 0 -1 0
    outer loop
      vertex -9.53647 0 6.42658
      vertex -20 0 10
      vertex -9.76824 0 6.46329
    endloop
  endfacet
  facet normal 0 -1 0
    outer loop
      vertex 10.2318 0 6.46329
      vertex 20 0 10
      vertex 10 0 6.5
    endloop
  endfacet
  facet normal 0 -1 0
    outer loop
      vertex 10.4635 0 6.42658
      vertex 20 0 10
      vertex 10.2318 0 6.46329
    endloop
  endfacet
  facet normal 0 -1 0
    outer loop
      vertex 10.8817 0 6.21352
      vertex 20 0 10
      vertex 10.4635 0 6.42658
    endloop
  endfacet
  facet normal 0 -1 0
    outer loop
      vertex 11.2135 0 5.88168
      vertex 20 0 10
      vertex 10.8817 0 6.21352
    endloop
  endfacet
  facet normal 0 -1 0
    outer loop
      vertex 11.4266 0 5.46352
      vertex 20 0 10
      vertex 11.2135 0 5.88168
    endloop
  endfacet
  facet normal 0 -1 0
    outer loop
      vertex 11.4633 0 5.23176
      vertex 20 0 10
      vertex 11.4266 0 5.46352
    endloop
  endfacet
  facet normal 0 -1 0
    outer loop
      vertex 11.5 0 5
      vertex 20 0 10
      vertex 11.4633 0 5.23176
    endloop
  endfacet
  facet normal 0 -1 0
    outer loop
      vertex 20 0 0
      vertex 11.5 0 5
      vertex 11.4633 0 4.76824
    endloop
  endfacet
  facet normal 0 -1 0
    outer loop
      vertex 20 0 0
      vertex 11.4633 0 4.76824
      vertex 11.4266 0 4.53647
    endloop
  endfacet
  facet normal 0 -1 0
    outer loop
      vertex 20 0 0
      vertex 11.4266 0 4.53647
      vertex 11.2135 0 4.11832
    endloop
  endfacet
  facet normal 0 -1 0
    outer loop
      vertex 20 0 0
      vertex 11.2135 0 4.11832
      vertex 10.8817 0 3.78647
    endloop
  endfacet
  facet normal 0 -1 0
    outer loop
      vertex 11.5 0 5
      vertex 20 0 0
      vertex 20 0 10
    endloop
  endfacet
  facet normal 0 -1 0
    outer loop
      vertex 10.4635 0 3.57341
      vertex 20 0 0
      vertex 10.8817 0 3.78647
    endloop
  endfacet
  facet normal 0 -1 0
    outer loop
      vertex 10.2318 0 3.53671
      vertex 20 0 0
      vertex 10.4635 0 3.57341
    endloop
  endfacet
  facet normal 0 -1 0
    outer loop
      vertex 10 0 3.5
      vertex 20 0 0
      vertex 10.2318 0 3.53671
    endloop
  endfacet
  facet normal 0 -1 0
    outer loop
      vertex 9.76824 0 3.53671
      vertex 20 0 0
      vertex 10 0 3.5
    endloop
  endfacet
  facet normal 0.97237 0.233445 0
    outer loop
      vertex 14.8153 22.3465 10
      vertex 14.2658 24.6353 0
      vertex 14.2658 24.6353 10
    endloop
  endfacet
  facet normal 0.97237 0.233445 0
    outer loop
      vertex 14.2658 24.6353 0
      vertex 14.8153 22.3465 10
      vertex 14.8153 22.3465 0
    endloop
  endfacet
  facet normal 0.974125 0.226009 0
    outer loop
      vertex 20 0 10
      vertex 14.8153 22.3465 0
      vertex 14.8153 22.3465 10
    endloop
  endfacet
  facet normal 0.974125 0.226009 0
    outer loop
      vertex 14.8153 22.3465 0
      vertex 20 0 10
      vertex 20 0 0
    endloop
  endfacet
  facet normal -0.974125 0.226009 0
    outer loop
      vertex -20 0 0
      vertex -14.8153 22.3465 10
      vertex -14.8153 22.3465 0
    endloop
  endfacet
  facet normal -0.974125 0.226009 0
    outer loop
      vertex -14.8153 22.3465 10
      vertex -20 0 0
      vertex -20 0 10
    endloop
  endfacet
  facet normal 0.0784601 0.996917 -0
    outer loop
      vertex 2.34652 34.8153 0
      vertex 0 35 10
      vertex 2.34652 34.8153 10
    endloop
  endfacet
  facet normal 0.0784601 0.996917 0
    outer loop
      vertex 0 35 10
      vertex 2.34652 34.8153 0
      vertex 0 35 0
    endloop
  endfacet
  facet normal 0 0 1
    outer loop
      vertex 14.8153 22.3465 10
      vertex 2.37764 20.7725 10
      vertex 2.5 20 10
    endloop
  endfacet
  facet normal 0 0 1
    outer loop
      vertex 0.772542 22.3776 10
      vertex 4.63525 34.2658 10
      vertex 2.34652 34.8153 10
    endloop
  endfacet
  facet normal 0 0 1
    outer loop
      vertex 6.80986 33.3651 10
      vertex 2.02254 21.4695 10
      vertex 2.37764 20.7725 10
    endloop
  endfacet
  facet normal 0 0 1
    outer loop
      vertex 6.80986 33.3651 10
      vertex 1.46946 22.0225 10
      vertex 2.02254 21.4695 10
    endloop
  endfacet
  facet normal 0 0 1
    outer loop
      vertex 6.80986 33.3651 10
      vertex 0.772542 22.3776 10
      vertex 1.46946 22.0225 10
    endloop
  endfacet
  facet normal 0 0 1
    outer loop
      vertex 0 22.5 10
      vertex 2.34652 34.8153 10
      vertex 0 35 10
    endloop
  endfacet
  facet normal 0 0 1
    outer loop
      vertex 2.34652 34.8153 10
      vertex 0 22.5 10
      vertex 0.772542 22.3776 10
    endloop
  endfacet
  facet normal -0 0 1
    outer loop
      vertex -2.34652 34.8153 10
      vertex 0 22.5 10
      vertex 0 35 10
    endloop
  endfacet
  facet normal 0 0 1
    outer loop
      vertex 0 22.5 10
      vertex -2.34652 34.8153 10
      vertex -0.772542 22.3776 10
    endloop
  endfacet
  facet normal -0 0 1
    outer loop
      vertex -4.63525 34.2658 10
      vertex -0.772542 22.3776 10
      vertex -2.34652 34.8153 10
    endloop
  endfacet
  facet normal -0 0 1
    outer loop
      vertex -6.80986 33.3651 10
      vertex -0.772542 22.3776 10
      vertex -4.63525 34.2658 10
    endloop
  endfacet
  facet normal 0 0 1
    outer loop
      vertex -0.772542 22.3776 10
      vertex -6.80986 33.3651 10
      vertex -1.46946 22.0225 10
    endloop
  endfacet
  facet normal -0 0 1
    outer loop
      vertex -8.81678 32.1353 10
      vertex -1.46946 22.0225 10
      vertex -6.80986 33.3651 10
    endloop
  endfacet
  facet normal -0 0 1
    outer loop
      vertex -10.6066 30.6066 10
      vertex -1.46946 22.0225 10
      vertex -8.81678 32.1353 10
    endloop
  endfacet
  facet normal 0 0 1
    outer loop
      vertex 2.37764 20.7725 10
      vertex 14.8153 22.3465 10
      vertex 14.2658 24.6353 10
    endloop
  endfacet
  facet normal 0 0 1
    outer loop
      vertex 2.37764 20.7725 10
      vertex 14.2658 24.6353 10
      vertex 13.3651 26.8099 10
    endloop
  endfacet
  facet normal 0 0 1
    outer loop
      vertex 2.37764 20.7725 10
      vertex 13.3651 26.8099 10
      vertex 12.1353 28.8168 10
    endloop
  endfacet
  facet normal 0 0 1
    outer loop
      vertex 2.37764 20.7725 10
      vertex 12.1353 28.8168 10
      vertex 10.6066 30.6066 10
    endloop
  endfacet
  facet normal 0 0 1
    outer loop
      vertex 2.37764 20.7725 10
      vertex 10.6066 30.6066 10
      vertex 8.81678 32.1353 10
    endloop
  endfacet
  facet normal 0 0 1
    outer loop
      vertex 2.37764 20.7725 10
      vertex 8.81678 32.1353 10
      vertex 6.80986 33.3651 10
    endloop
  endfacet
  facet normal 0 0 1
    outer loop
      vertex 0.772542 22.3776 10
      vertex 6.80986 33.3651 10
      vertex 4.63525 34.2658 10
    endloop
  endfacet
  facet normal 0 0 1
    outer loop
      vertex 14.8153 22.3465 10
      vertex 2.5 20 10
      vertex 2.37764 19.2275 10
    endloop
  endfacet
  facet normal 0 0 1
    outer loop
      vertex 14.8153 22.3465 10
      vertex 2.37764 19.2275 10
      vertex 2.02254 18.5305 10
    endloop
  endfacet
  facet normal 0 0 1
    outer loop
      vertex 14.8153 22.3465 10
      vertex 2.02254 18.5305 10
      vertex 20 0 10
    endloop
  endfacet
  facet normal -0 0 1
    outer loop
      vertex 1.46946 17.9775 10
      vertex 20 0 10
      vertex 2.02254 18.5305 10
    endloop
  endfacet
  facet normal -0 0 1
    outer loop
      vertex 0.772542 17.6224 10
      vertex 20 0 10
      vertex 1.46946 17.9775 10
    endloop
  endfacet
  facet normal -0 0 1
    outer loop
      vertex 0 17.5 10
      vertex 20 0 10
      vertex 0.772542 17.6224 10
    endloop
  endfacet
  facet normal 0 0 1
    outer loop
      vertex -20 0 10
      vertex 0 17.5 10
      vertex -0.772542 17.6224 10
    endloop
  endfacet
  facet normal 0 0 1
    outer loop
      vertex -20 0 10
      vertex -0.772542 17.6224 10
      vertex -1.46946 17.9775 10
    endloop
  endfacet
  facet normal 0 0 1
    outer loop
      vertex -1.46946 22.0225 10
      vertex -10.6066 30.6066 10
      vertex -2.02254 21.4695 10
    endloop
  endfacet
  facet normal -0 0 1
    outer loop
      vertex -12.1353 28.8168 10
      vertex -2.02254 21.4695 10
      vertex -10.6066 30.6066 10
    endloop
  endfacet
  facet normal -0 0 1
    outer loop
      vertex -13.3651 26.8099 10
      vertex -2.02254 21.4695 10
      vertex -12.1353 28.8168 10
    endloop
  endfacet
  facet normal 0 0 1
    outer loop
      vertex -2.02254 21.4695 10
      vertex -13.3651 26.8099 10
      vertex -2.37764 20.7725 10
    endloop
  endfacet
  facet normal -0 0 1
    outer loop
      vertex -14.2658 24.6353 10
      vertex -2.37764 20.7725 10
      vertex -13.3651 26.8099 10
    endloop
  endfacet
  facet normal -0 0 1
    outer loop
      vertex -14.8153 22.3465 10
      vertex -2.37764 20.7725 10
      vertex -14.2658 24.6353 10
    endloop
  endfacet
  facet normal 0 0 1
    outer loop
      vertex -2.37764 20.7725 10
      vertex -14.8153 22.3465 10
      vertex -2.5 20 10
    endloop
  endfacet
  facet normal 0 0 1
    outer loop
      vertex -2.5 20 10
      vertex -14.8153 22.3465 10
      vertex -2.37764 19.2275 10
    endloop
  endfacet
  facet normal 0 0 1
    outer loop
      vertex -2.37764 19.2275 10
      vertex -14.8153 22.3465 10
      vertex -2.02254 18.5305 10
    endloop
  endfacet
  facet normal 0 0 1
    outer loop
      vertex -20 0 10
      vertex -2.02254 18.5305 10
      vertex -14.8153 22.3465 10
    endloop
  endfacet
  facet normal 0 0 1
    outer loop
      vertex -2.02254 18.5305 10
      vertex -20 0 10
      vertex -1.46946 17.9775 10
    endloop
  endfacet
  facet normal 0 0 1
    outer loop
      vertex 0 17.5 10
      vertex -20 0 10
      vertex 20 0 10
    endloop
  endfacet
  facet normal 0.649448 0.760406 0
    outer loop
      vertex 10.6066 30.6066 2.09608
      vertex 10.6066 30.6066 0
      vertex 10 31.1247 2
    endloop
  endfacet
  facet normal 0.649448 0.760406 -4.15537e-07
    outer loop
      vertex 8.81678 32.1353 0
      vertex 10 31.1247 2
      vertex 10.6066 30.6066 0
    endloop
  endfacet
  facet normal 0.649448 0.760406 -6.5726e-07
    outer loop
      vertex 10 31.1247 2
      vertex 8.81678 32.1353 0
      vertex 9.07295 31.9165 2.14683
    endloop
  endfacet
  facet normal 0.649445 0.760409 0
    outer loop
      vertex 9.07295 31.9165 2.14683
      vertex 8.81678 32.1353 0
      vertex 8.81678 32.1353 2.27735
    endloop
  endfacet
  facet normal 0.649448 0.760406 4.15537e-07
    outer loop
      vertex 10.6066 30.6066 10
      vertex 10 31.1247 8
      vertex 8.81678 32.1353 10
    endloop
  endfacet
  facet normal 0.649448 0.760406 0
    outer loop
      vertex 10 31.1247 8
      vertex 10.6066 30.6066 10
      vertex 10.6066 30.6066 7.90392
    endloop
  endfacet
  facet normal 0.649448 0.760406 6.5726e-07
    outer loop
      vertex 9.07295 31.9165 7.85317
      vertex 8.81678 32.1353 10
      vertex 10 31.1247 8
    endloop
  endfacet
  facet normal 0.649445 0.760409 0
    outer loop
      vertex 8.81678 32.1353 10
      vertex 9.07295 31.9165 7.85317
      vertex 8.81678 32.1353 7.72264
    endloop
  endfacet
  facet normal -0.97237 0.233445 0
    outer loop
      vertex -14.8153 22.3465 0
      vertex -14.2658 24.6353 10
      vertex -14.2658 24.6353 0
    endloop
  endfacet
  facet normal -0.97237 0.233445 0
    outer loop
      vertex -14.2658 24.6353 10
      vertex -14.8153 22.3465 0
      vertex -14.8153 22.3465 10
    endloop
  endfacet
  facet normal -0.923879 0.382684 0
    outer loop
      vertex -14.2658 24.6353 0
      vertex -13.3651 26.8099 10
      vertex -13.3651 26.8099 0
    endloop
  endfacet
  facet normal -0.923879 0.382684 0
    outer loop
      vertex -13.3651 26.8099 10
      vertex -14.2658 24.6353 0
      vertex -14.2658 24.6353 10
    endloop
  endfacet
  facet normal -0.85264 0.522498 0
    outer loop
      vertex -13.3651 26.8099 0
      vertex -12.1353 28.8168 2.94485
      vertex -12.1353 28.8168 0
    endloop
  endfacet
  facet normal -0.85264 0.522498 -4.48488e-08
    outer loop
      vertex -12.1353 28.8168 2.94485
      vertex -13.3651 26.8099 0
      vertex -12.4271 28.3406 3.23664
    endloop
  endfacet
  facet normal -0.852641 0.522497 1.41565e-07
    outer loop
      vertex -12.8532 27.6452 4.07295
      vertex -13.3651 26.8099 0
      vertex -13 27.4056 5
    endloop
  endfacet
  facet normal -0.85264 0.522499 -2.96675e-07
    outer loop
      vertex -12.4271 28.3406 3.23664
      vertex -13.3651 26.8099 0
      vertex -12.8532 27.6452 4.07295
    endloop
  endfacet
  facet normal -0.85264 0.522498 4.48488e-08
    outer loop
      vertex -13.3651 26.8099 10
      vertex -12.1353 28.8168 7.05515
      vertex -12.4271 28.3406 6.76336
    endloop
  endfacet
  facet normal -0.85264 0.522499 2.96675e-07
    outer loop
      vertex -13.3651 26.8099 10
      vertex -12.4271 28.3406 6.76336
      vertex -12.8532 27.6452 5.92705
    endloop
  endfacet
  facet normal -0.85264 0.522498 0
    outer loop
      vertex -12.1353 28.8168 7.05515
      vertex -13.3651 26.8099 10
      vertex -12.1353 28.8168 10
    endloop
  endfacet
  facet normal -0.852641 0.522497 -1.41565e-07
    outer loop
      vertex -13 27.4056 5
      vertex -13.3651 26.8099 10
      vertex -12.8532 27.6452 5.92705
    endloop
  endfacet
  facet normal -0.852641 0.522498 0
    outer loop
      vertex -13.3651 26.8099 10
      vertex -13 27.4056 5
      vertex -13.3651 26.8099 0
    endloop
  endfacet
  facet normal 0.760407 0.649447 0
    outer loop
      vertex 10.9271 30.2314 2.14683
      vertex 10.6066 30.6066 0
      vertex 10.6066 30.6066 2.09608
    endloop
  endfacet
  facet normal 0.760406 0.649448 8.47739e-08
    outer loop
      vertex 12.1353 28.8168 0
      vertex 10.9271 30.2314 2.14683
      vertex 11.7634 29.2522 2.57295
    endloop
  endfacet
  facet normal 0.760406 0.649448 -0
    outer loop
      vertex 12.1353 28.8168 0
      vertex 11.7634 29.2522 2.57295
      vertex 12.1353 28.8168 2.94485
    endloop
  endfacet
  facet normal 0.760406 0.649448 2.41707e-07
    outer loop
      vertex 10.9271 30.2314 2.14683
      vertex 12.1353 28.8168 0
      vertex 10.6066 30.6066 0
    endloop
  endfacet
  facet normal 0.760407 0.649447 0
    outer loop
      vertex 10.6066 30.6066 10
      vertex 10.9271 30.2314 7.85317
      vertex 10.6066 30.6066 7.90392
    endloop
  endfacet
  facet normal 0.760406 0.649448 -2.41707e-07
    outer loop
      vertex 12.1353 28.8168 10
      vertex 10.9271 30.2314 7.85317
      vertex 10.6066 30.6066 10
    endloop
  endfacet
  facet normal 0.760406 0.649448 -8.47739e-08
    outer loop
      vertex 10.9271 30.2314 7.85317
      vertex 12.1353 28.8168 10
      vertex 11.7634 29.2522 7.42705
    endloop
  endfacet
  facet normal 0.760406 0.649448 0
    outer loop
      vertex 11.7634 29.2522 7.42705
      vertex 12.1353 28.8168 10
      vertex 12.1353 28.8168 7.05515
    endloop
  endfacet
  facet normal 0.85264 0.522498 0
    outer loop
      vertex 13.3651 26.8099 10
      vertex 12.1353 28.8168 7.05515
      vertex 12.1353 28.8168 10
    endloop
  endfacet
  facet normal 0.85264 0.522498 4.48488e-08
    outer loop
      vertex 12.1353 28.8168 7.05515
      vertex 13.3651 26.8099 10
      vertex 12.4271 28.3406 6.76336
    endloop
  endfacet
  facet normal 0.852641 0.522497 -1.41565e-07
    outer loop
      vertex 12.8532 27.6452 5.92705
      vertex 13.3651 26.8099 10
      vertex 13 27.4056 5
    endloop
  endfacet
  facet normal 0.85264 0.522499 2.96675e-07
    outer loop
      vertex 12.4271 28.3406 6.76336
      vertex 13.3651 26.8099 10
      vertex 12.8532 27.6452 5.92705
    endloop
  endfacet
  facet normal 0.85264 0.522498 -4.48488e-08
    outer loop
      vertex 13.3651 26.8099 0
      vertex 12.1353 28.8168 2.94485
      vertex 12.4271 28.3406 3.23664
    endloop
  endfacet
  facet normal 0.85264 0.522499 -2.96675e-07
    outer loop
      vertex 13.3651 26.8099 0
      vertex 12.4271 28.3406 3.23664
      vertex 12.8532 27.6452 4.07295
    endloop
  endfacet
  facet normal 0.85264 0.522498 0
    outer loop
      vertex 12.1353 28.8168 2.94485
      vertex 13.3651 26.8099 0
      vertex 12.1353 28.8168 0
    endloop
  endfacet
  facet normal 0.852641 0.522497 1.41565e-07
    outer loop
      vertex 13 27.4056 5
      vertex 13.3651 26.8099 0
      vertex 12.8532 27.6452 4.07295
    endloop
  endfacet
  facet normal 0.852641 0.522498 -0
    outer loop
      vertex 13.3651 26.8099 0
      vertex 13 27.4056 5
      vertex 13.3651 26.8099 10
    endloop
  endfacet
  facet normal 0.923879 0.382684 0
    outer loop
      vertex 14.2658 24.6353 10
      vertex 13.3651 26.8099 0
      vertex 13.3651 26.8099 10
    endloop
  endfacet
  facet normal 0.923879 0.382684 0
    outer loop
      vertex 13.3651 26.8099 0
      vertex 14.2658 24.6353 10
      vertex 14.2658 24.6353 0
    endloop
  endfacet
  facet normal -0.760407 0.649447 0
    outer loop
      vertex -10.9271 30.2314 7.85317
      vertex -10.6066 30.6066 10
      vertex -10.6066 30.6066 7.90392
    endloop
  endfacet
  facet normal -0.760406 0.649448 -8.47739e-08
    outer loop
      vertex -12.1353 28.8168 10
      vertex -10.9271 30.2314 7.85317
      vertex -11.7634 29.2522 7.42705
    endloop
  endfacet
  facet normal -0.760406 0.649448 0
    outer loop
      vertex -12.1353 28.8168 10
      vertex -11.7634 29.2522 7.42705
      vertex -12.1353 28.8168 7.05515
    endloop
  endfacet
  facet normal -0.760406 0.649448 -2.41707e-07
    outer loop
      vertex -10.9271 30.2314 7.85317
      vertex -12.1353 28.8168 10
      vertex -10.6066 30.6066 10
    endloop
  endfacet
  facet normal -0.760407 0.649447 0
    outer loop
      vertex -10.6066 30.6066 0
      vertex -10.9271 30.2314 2.14683
      vertex -10.6066 30.6066 2.09608
    endloop
  endfacet
  facet normal -0.760406 0.649448 2.41707e-07
    outer loop
      vertex -12.1353 28.8168 0
      vertex -10.9271 30.2314 2.14683
      vertex -10.6066 30.6066 0
    endloop
  endfacet
  facet normal -0.760406 0.649448 8.47739e-08
    outer loop
      vertex -10.9271 30.2314 2.14683
      vertex -12.1353 28.8168 0
      vertex -11.7634 29.2522 2.57295
    endloop
  endfacet
  facet normal -0.760406 0.649448 0
    outer loop
      vertex -11.7634 29.2522 2.57295
      vertex -12.1353 28.8168 0
      vertex -12.1353 28.8168 2.94485
    endloop
  endfacet
  facet normal -0.0784601 0.996917 0
    outer loop
      vertex 0 35 0
      vertex -2.34652 34.8153 10
      vertex 0 35 10
    endloop
  endfacet
  facet normal -0.0784601 0.996917 0
    outer loop
      vertex -2.34652 34.8153 10
      vertex 0 35 0
      vertex -2.34652 34.8153 0
    endloop
  endfacet
  facet normal 0.233445 0.97237 -0
    outer loop
      vertex 4.63525 34.2658 0
      vertex 2.34652 34.8153 10
      vertex 4.63525 34.2658 10
    endloop
  endfacet
  facet normal 0.233445 0.97237 0
    outer loop
      vertex 2.34652 34.8153 10
      vertex 4.63525 34.2658 0
      vertex 2.34652 34.8153 0
    endloop
  endfacet
  facet normal 0.382683 0.92388 -0
    outer loop
      vertex 6.80986 33.3651 0
      vertex 4.63525 34.2658 10
      vertex 6.80986 33.3651 10
    endloop
  endfacet
  facet normal 0.382683 0.92388 0
    outer loop
      vertex 4.63525 34.2658 10
      vertex 6.80986 33.3651 0
      vertex 4.63525 34.2658 0
    endloop
  endfacet
  facet normal 0.522499 0.85264 0
    outer loop
      vertex 8.23664 32.4908 7.42705
      vertex 8.81678 32.1353 10
      vertex 8.81678 32.1353 7.72264
    endloop
  endfacet
  facet normal 0.522499 0.85264 -1.8258e-08
    outer loop
      vertex 8.81678 32.1353 10
      vertex 8.23664 32.4908 7.42705
      vertex 6.80986 33.3651 10
    endloop
  endfacet
  facet normal 0.5225 0.852639 1.00049e-06
    outer loop
      vertex 7.57295 32.8975 6.76336
      vertex 6.80986 33.3651 10
      vertex 8.23664 32.4908 7.42705
    endloop
  endfacet
  facet normal 0.522496 0.852642 -3.90308e-07
    outer loop
      vertex 7.14683 33.1586 5.92705
      vertex 6.80986 33.3651 10
      vertex 7.57295 32.8975 6.76336
    endloop
  endfacet
  facet normal 0.522499 0.85264 -5.72971e-08
    outer loop
      vertex 7 33.2486 5
      vertex 6.80986 33.3651 10
      vertex 7.14683 33.1586 5.92705
    endloop
  endfacet
  facet normal 0.522499 0.85264 -0
    outer loop
      vertex 8.81678 32.1353 0
      vertex 8.23664 32.4908 2.57295
      vertex 8.81678 32.1353 2.27735
    endloop
  endfacet
  facet normal 0.522499 0.85264 1.8258e-08
    outer loop
      vertex 6.80986 33.3651 0
      vertex 8.23664 32.4908 2.57295
      vertex 8.81678 32.1353 0
    endloop
  endfacet
  facet normal 0.5225 0.852639 -1.00049e-06
    outer loop
      vertex 8.23664 32.4908 2.57295
      vertex 6.80986 33.3651 0
      vertex 7.57295 32.8975 3.23664
    endloop
  endfacet
  facet normal 0.5225 0.852639 0
    outer loop
      vertex 7 33.2486 5
      vertex 6.80986 33.3651 0
      vertex 6.80986 33.3651 10
    endloop
  endfacet
  facet normal 0.522499 0.85264 5.72971e-08
    outer loop
      vertex 7.14683 33.1586 4.07295
      vertex 6.80986 33.3651 0
      vertex 7 33.2486 5
    endloop
  endfacet
  facet normal 0.522496 0.852642 3.90308e-07
    outer loop
      vertex 7.57295 32.8975 3.23664
      vertex 6.80986 33.3651 0
      vertex 7.14683 33.1586 4.07295
    endloop
  endfacet
  facet normal -0.522499 0.85264 -1.8258e-08
    outer loop
      vertex -8.23664 32.4908 7.42705
      vertex -8.81678 32.1353 10
      vertex -6.80986 33.3651 10
    endloop
  endfacet
  facet normal -0.522499 0.85264 0
    outer loop
      vertex -8.81678 32.1353 10
      vertex -8.23664 32.4908 7.42705
      vertex -8.81678 32.1353 7.72264
    endloop
  endfacet
  facet normal -0.5225 0.852639 1.00049e-06
    outer loop
      vertex -6.80986 33.3651 10
      vertex -7.57295 32.8975 6.76336
      vertex -8.23664 32.4908 7.42705
    endloop
  endfacet
  facet normal -0.522496 0.852642 -3.90308e-07
    outer loop
      vertex -6.80986 33.3651 10
      vertex -7.14683 33.1586 5.92705
      vertex -7.57295 32.8975 6.76336
    endloop
  endfacet
  facet normal -0.522499 0.85264 -5.72971e-08
    outer loop
      vertex -6.80986 33.3651 10
      vertex -7 33.2486 5
      vertex -7.14683 33.1586 5.92705
    endloop
  endfacet
  facet normal -0.5225 0.852639 0
    outer loop
      vertex -6.80986 33.3651 0
      vertex -7 33.2486 5
      vertex -6.80986 33.3651 10
    endloop
  endfacet
  facet normal -0.522499 0.85264 5.72971e-08
    outer loop
      vertex -6.80986 33.3651 0
      vertex -7.14683 33.1586 4.07295
      vertex -7 33.2486 5
    endloop
  endfacet
  facet normal -0.522496 0.852642 3.90308e-07
    outer loop
      vertex -6.80986 33.3651 0
      vertex -7.57295 32.8975 3.23664
      vertex -7.14683 33.1586 4.07295
    endloop
  endfacet
  facet normal -0.5225 0.852639 -1.00049e-06
    outer loop
      vertex -6.80986 33.3651 0
      vertex -8.23664 32.4908 2.57295
      vertex -7.57295 32.8975 3.23664
    endloop
  endfacet
  facet normal -0.522499 0.85264 1.8258e-08
    outer loop
      vertex -8.81678 32.1353 0
      vertex -8.23664 32.4908 2.57295
      vertex -6.80986 33.3651 0
    endloop
  endfacet
  facet normal -0.522499 0.85264 0
    outer loop
      vertex -8.23664 32.4908 2.57295
      vertex -8.81678 32.1353 0
      vertex -8.81678 32.1353 2.27735
    endloop
  endfacet
  facet normal -0.649448 0.760406 4.15537e-07
    outer loop
      vertex -8.81678 32.1353 10
      vertex -10 31.1247 8
      vertex -10.6066 30.6066 10
    endloop
  endfacet
  facet normal -0.649448 0.760406 6.5726e-07
    outer loop
      vertex -8.81678 32.1353 10
      vertex -9.07295 31.9165 7.85317
      vertex -10 31.1247 8
    endloop
  endfacet
  facet normal -0.649445 0.760409 0
    outer loop
      vertex -9.07295 31.9165 7.85317
      vertex -8.81678 32.1353 10
      vertex -8.81678 32.1353 7.72264
    endloop
  endfacet
  facet normal -0.649448 0.760406 0
    outer loop
      vertex -10.6066 30.6066 10
      vertex -10 31.1247 8
      vertex -10.6066 30.6066 7.90392
    endloop
  endfacet
  facet normal -0.649448 0.760406 -6.5726e-07
    outer loop
      vertex -9.07295 31.9165 2.14683
      vertex -8.81678 32.1353 0
      vertex -10 31.1247 2
    endloop
  endfacet
  facet normal -0.649445 0.760409 0
    outer loop
      vertex -8.81678 32.1353 0
      vertex -9.07295 31.9165 2.14683
      vertex -8.81678 32.1353 2.27735
    endloop
  endfacet
  facet normal -0.649448 0.760406 -4.15537e-07
    outer loop
      vertex -10.6066 30.6066 0
      vertex -10 31.1247 2
      vertex -8.81678 32.1353 0
    endloop
  endfacet
  facet normal -0.649448 0.760406 0
    outer loop
      vertex -10 31.1247 2
      vertex -10.6066 30.6066 0
      vertex -10.6066 30.6066 2.09608
    endloop
  endfacet
  facet normal -0.233445 0.97237 0
    outer loop
      vertex -2.34652 34.8153 0
      vertex -4.63525 34.2658 10
      vertex -2.34652 34.8153 10
    endloop
  endfacet
  facet normal -0.233445 0.97237 0
    outer loop
      vertex -4.63525 34.2658 10
      vertex -2.34652 34.8153 0
      vertex -4.63525 34.2658 0
    endloop
  endfacet
  facet normal -0.382683 0.92388 0
    outer loop
      vertex -4.63525 34.2658 0
      vertex -6.80986 33.3651 10
      vertex -4.63525 34.2658 10
    endloop
  endfacet
  facet normal -0.382683 0.92388 0
    outer loop
      vertex -6.80986 33.3651 10
      vertex -4.63525 34.2658 0
      vertex -6.80986 33.3651 0
    endloop
  endfacet
  facet normal -0.987688 -0.156435 0
    outer loop
      vertex 2.5 20 0
      vertex 2.37764 20.7725 10
      vertex 2.37764 20.7725 0
    endloop
  endfacet
  facet normal -0.987688 -0.156435 0
    outer loop
      vertex 2.37764 20.7725 10
      vertex 2.5 20 0
      vertex 2.5 20 10
    endloop
  endfacet
  facet normal 0.156436 -0.987688 0
    outer loop
      vertex -0.772542 22.3776 0
      vertex 0 22.5 10
      vertex -0.772542 22.3776 10
    endloop
  endfacet
  facet normal 0.156436 -0.987688 0
    outer loop
      vertex 0 22.5 10
      vertex -0.772542 22.3776 0
      vertex 0 22.5 0
    endloop
  endfacet
  facet normal -0.156434 0.987688 0
    outer loop
      vertex 0.772542 17.6224 0
      vertex 0 17.5 10
      vertex 0.772542 17.6224 10
    endloop
  endfacet
  facet normal -0.156434 0.987688 0
    outer loop
      vertex 0 17.5 10
      vertex 0.772542 17.6224 0
      vertex 0 17.5 0
    endloop
  endfacet
  facet normal -0.453991 0.891006 0
    outer loop
      vertex 1.46946 17.9775 0
      vertex 0.772542 17.6224 10
      vertex 1.46946 17.9775 10
    endloop
  endfacet
  facet normal -0.453991 0.891006 0
    outer loop
      vertex 0.772542 17.6224 10
      vertex 1.46946 17.9775 0
      vertex 0.772542 17.6224 0
    endloop
  endfacet
  facet normal -0.707106 -0.707108 0
    outer loop
      vertex 1.46946 22.0225 0
      vertex 2.02254 21.4695 10
      vertex 1.46946 22.0225 10
    endloop
  endfacet
  facet normal -0.707106 -0.707108 -0
    outer loop
      vertex 2.02254 21.4695 10
      vertex 1.46946 22.0225 0
      vertex 2.02254 21.4695 0
    endloop
  endfacet
  facet normal -0.891007 -0.45399 0
    outer loop
      vertex 2.37764 20.7725 0
      vertex 2.02254 21.4695 10
      vertex 2.02254 21.4695 0
    endloop
  endfacet
  facet normal -0.891007 -0.45399 0
    outer loop
      vertex 2.02254 21.4695 10
      vertex 2.37764 20.7725 0
      vertex 2.37764 20.7725 10
    endloop
  endfacet
  facet normal 0.891007 -0.45399 0
    outer loop
      vertex -2.37764 20.7725 10
      vertex -2.02254 21.4695 0
      vertex -2.02254 21.4695 10
    endloop
  endfacet
  facet normal 0.891007 -0.45399 0
    outer loop
      vertex -2.02254 21.4695 0
      vertex -2.37764 20.7725 10
      vertex -2.37764 20.7725 0
    endloop
  endfacet
  facet normal 0.987688 -0.156435 0
    outer loop
      vertex -2.5 20 10
      vertex -2.37764 20.7725 0
      vertex -2.37764 20.7725 10
    endloop
  endfacet
  facet normal 0.987688 -0.156435 0
    outer loop
      vertex -2.37764 20.7725 0
      vertex -2.5 20 10
      vertex -2.5 20 0
    endloop
  endfacet
  facet normal 0.453991 -0.891006 0
    outer loop
      vertex -1.46946 22.0225 0
      vertex -0.772542 22.3776 10
      vertex -1.46946 22.0225 10
    endloop
  endfacet
  facet normal 0.453991 -0.891006 0
    outer loop
      vertex -0.772542 22.3776 10
      vertex -1.46946 22.0225 0
      vertex -0.772542 22.3776 0
    endloop
  endfacet
  facet normal -0.987688 0.156435 0
    outer loop
      vertex 2.37764 19.2275 0
      vertex 2.5 20 10
      vertex 2.5 20 0
    endloop
  endfacet
  facet normal -0.987688 0.156435 0
    outer loop
      vertex 2.5 20 10
      vertex 2.37764 19.2275 0
      vertex 2.37764 19.2275 10
    endloop
  endfacet
  facet normal 0.453991 0.891006 -0
    outer loop
      vertex -0.772542 17.6224 0
      vertex -1.46946 17.9775 10
      vertex -0.772542 17.6224 10
    endloop
  endfacet
  facet normal 0.453991 0.891006 0
    outer loop
      vertex -1.46946 17.9775 10
      vertex -0.772542 17.6224 0
      vertex -1.46946 17.9775 0
    endloop
  endfacet
  facet normal 0.891006 0.453991 0
    outer loop
      vertex -2.02254 18.5305 10
      vertex -2.37764 19.2275 0
      vertex -2.37764 19.2275 10
    endloop
  endfacet
  facet normal 0.891006 0.453991 0
    outer loop
      vertex -2.37764 19.2275 0
      vertex -2.02254 18.5305 10
      vertex -2.02254 18.5305 0
    endloop
  endfacet
  facet normal -0.156436 -0.987688 0
    outer loop
      vertex 0 22.5 0
      vertex 0.772542 22.3776 10
      vertex 0 22.5 10
    endloop
  endfacet
  facet normal -0.156436 -0.987688 -0
    outer loop
      vertex 0.772542 22.3776 10
      vertex 0 22.5 0
      vertex 0.772542 22.3776 0
    endloop
  endfacet
  facet normal -0.453991 -0.891006 0
    outer loop
      vertex 0.772542 22.3776 0
      vertex 1.46946 22.0225 10
      vertex 0.772542 22.3776 10
    endloop
  endfacet
  facet normal -0.453991 -0.891006 -0
    outer loop
      vertex 1.46946 22.0225 10
      vertex 0.772542 22.3776 0
      vertex 1.46946 22.0225 0
    endloop
  endfacet
  facet normal 0.987688 0.156435 0
    outer loop
      vertex -2.37764 19.2275 10
      vertex -2.5 20 0
      vertex -2.5 20 10
    endloop
  endfacet
  facet normal 0.987688 0.156435 0
    outer loop
      vertex -2.5 20 0
      vertex -2.37764 19.2275 10
      vertex -2.37764 19.2275 0
    endloop
  endfacet
  facet normal 0.707106 -0.707108 0
    outer loop
      vertex -2.02254 21.4695 0
      vertex -1.46946 22.0225 10
      vertex -2.02254 21.4695 10
    endloop
  endfacet
  facet normal 0.707106 -0.707108 0
    outer loop
      vertex -1.46946 22.0225 10
      vertex -2.02254 21.4695 0
      vertex -1.46946 22.0225 0
    endloop
  endfacet
  facet normal -0.707107 0.707107 0
    outer loop
      vertex 1.46946 17.9775 0
      vertex 2.02254 18.5305 10
      vertex 2.02254 18.5305 0
    endloop
  endfacet
  facet normal -0.707107 0.707107 0
    outer loop
      vertex 2.02254 18.5305 10
      vertex 1.46946 17.9775 0
      vertex 1.46946 17.9775 10
    endloop
  endfacet
  facet normal -0.891006 0.453991 0
    outer loop
      vertex 2.02254 18.5305 0
      vertex 2.37764 19.2275 10
      vertex 2.37764 19.2275 0
    endloop
  endfacet
  facet normal -0.891006 0.453991 0
    outer loop
      vertex 2.37764 19.2275 10
      vertex 2.02254 18.5305 0
      vertex 2.02254 18.5305 10
    endloop
  endfacet
  facet normal 0.156434 0.987688 -0
    outer loop
      vertex 0 17.5 0
      vertex -0.772542 17.6224 10
      vertex 0 17.5 10
    endloop
  endfacet
  facet normal 0.156434 0.987688 0
    outer loop
      vertex -0.772542 17.6224 10
      vertex 0 17.5 0
      vertex -0.772542 17.6224 0
    endloop
  endfacet
  facet normal 0.707107 0.707107 0
    outer loop
      vertex -1.46946 17.9775 10
      vertex -2.02254 18.5305 0
      vertex -2.02254 18.5305 10
    endloop
  endfacet
  facet normal 0.707107 0.707107 0
    outer loop
      vertex -2.02254 18.5305 0
      vertex -1.46946 17.9775 10
      vertex -1.46946 17.9775 0
    endloop
  endfacet
  facet normal -0.987687 6.77686e-08 -0.15644
    outer loop
      vertex 11.4633 0 5.23176
      vertex 11.4266 15 5.46352
      vertex 11.4449 15 5.34764
    endloop
  endfacet
  facet normal -0.987688 -0 -0.156436
    outer loop
      vertex 11.4266 15 5.46352
      vertex 11.4633 0 5.23176
      vertex 11.4266 0 5.46352
    endloop
  endfacet
  facet normal -0.891007 0 -0.45399
    outer loop
      vertex 11.4266 0 5.46352
      vertex 11.2135 15 5.88168
      vertex 11.4266 15 5.46352
    endloop
  endfacet
  facet normal -0.891007 -0 -0.45399
    outer loop
      vertex 11.2135 15 5.88168
      vertex 11.4266 0 5.46352
      vertex 11.2135 0 5.88168
    endloop
  endfacet
  facet normal -0.987688 -4.9729e-09 -0.156434
    outer loop
      vertex 11.5 0 5
      vertex 11.4449 15 5.34764
      vertex 11.5 15 5
    endloop
  endfacet
  facet normal -0.987688 3.13978e-08 -0.156435
    outer loop
      vertex 11.4449 15 5.34764
      vertex 11.5 0 5
      vertex 11.4633 0 5.23176
    endloop
  endfacet
  facet normal 0.987688 -2.25895e-08 0.156434
    outer loop
      vertex 8.53671 0 4.76824
      vertex 8.57341 15 4.53647
      vertex 8.51835 15 4.88412
    endloop
  endfacet
  facet normal 0.987688 0 0.156436
    outer loop
      vertex 8.57341 15 4.53647
      vertex 8.53671 0 4.76824
      vertex 8.57341 0 4.53647
    endloop
  endfacet
  facet normal 0.156435 4.97295e-09 -0.987688
    outer loop
      vertex 9.53647 0 6.42658
      vertex 9.65236 15 6.44494
      vertex 9.76824 0 6.46329
    endloop
  endfacet
  facet normal 0.156436 0 -0.987688
    outer loop
      vertex 9.65236 15 6.44494
      vertex 9.53647 0 6.42658
      vertex 9.53647 15 6.42658
    endloop
  endfacet
  facet normal -0.156435 0 0.987688
    outer loop
      vertex 10.4635 15 3.57341
      vertex 10.2318 0 3.53671
      vertex 10.4635 0 3.57341
    endloop
  endfacet
  facet normal -0.156436 3.3153e-09 0.987688
    outer loop
      vertex 10.2318 0 3.53671
      vertex 10.4635 15 3.57341
      vertex 10.1159 15 3.51835
    endloop
  endfacet
  facet normal -0.707107 0 -0.707107
    outer loop
      vertex 11.2135 0 5.88168
      vertex 10.8817 15 6.21352
      vertex 11.2135 15 5.88168
    endloop
  endfacet
  facet normal -0.707107 -0 -0.707107
    outer loop
      vertex 10.8817 15 6.21352
      vertex 11.2135 0 5.88168
      vertex 10.8817 0 6.21352
    endloop
  endfacet
  facet normal 0.707107 0 -0.707107
    outer loop
      vertex 9.11832 0 6.21352
      vertex 8.78647 15 5.88168
      vertex 9.11832 15 6.21352
    endloop
  endfacet
  facet normal 0.707107 0 -0.707107
    outer loop
      vertex 8.78647 15 5.88168
      vertex 9.11832 0 6.21352
      vertex 8.78647 0 5.88168
    endloop
  endfacet
  facet normal 0.45399 0 -0.891007
    outer loop
      vertex 9.11832 0 6.21352
      vertex 9.53647 15 6.42658
      vertex 9.53647 0 6.42658
    endloop
  endfacet
  facet normal 0.45399 0 -0.891007
    outer loop
      vertex 9.53647 15 6.42658
      vertex 9.11832 0 6.21352
      vertex 9.11832 15 6.21352
    endloop
  endfacet
  facet normal -0.45399 0 0.891007
    outer loop
      vertex 10.4635 15 3.57341
      vertex 10.8817 0 3.78647
      vertex 10.8817 15 3.78647
    endloop
  endfacet
  facet normal -0.45399 0 0.891007
    outer loop
      vertex 10.8817 0 3.78647
      vertex 10.4635 15 3.57341
      vertex 10.4635 0 3.57341
    endloop
  endfacet
  facet normal -0.891007 0 0.45399
    outer loop
      vertex 11.2135 0 4.11832
      vertex 11.4266 15 4.53647
      vertex 11.2135 15 4.11832
    endloop
  endfacet
  facet normal -0.891007 0 0.45399
    outer loop
      vertex 11.4266 15 4.53647
      vertex 11.2135 0 4.11832
      vertex 11.4266 0 4.53647
    endloop
  endfacet
  facet normal 0.891007 -0 0.45399
    outer loop
      vertex 8.57341 0 4.53647
      vertex 8.78647 15 4.11832
      vertex 8.57341 15 4.53647
    endloop
  endfacet
  facet normal 0.891007 0 0.45399
    outer loop
      vertex 8.78647 15 4.11832
      vertex 8.57341 0 4.53647
      vertex 8.78647 0 4.11832
    endloop
  endfacet
  facet normal -0.45399 0 -0.891007
    outer loop
      vertex 10.4635 0 6.42658
      vertex 10.8817 15 6.21352
      vertex 10.8817 0 6.21352
    endloop
  endfacet
  facet normal -0.45399 0 -0.891007
    outer loop
      vertex 10.8817 15 6.21352
      vertex 10.4635 0 6.42658
      vertex 10.4635 15 6.42658
    endloop
  endfacet
  facet normal 0.156433 -3.13978e-08 -0.987688
    outer loop
      vertex 9.76824 0 6.46329
      vertex 10 15 6.5
      vertex 10 0 6.5
    endloop
  endfacet
  facet normal 0.156433 -1.76166e-08 -0.987689
    outer loop
      vertex 10 15 6.5
      vertex 9.76824 0 6.46329
      vertex 9.65236 15 6.44494
    endloop
  endfacet
  facet normal 0.891007 0 -0.45399
    outer loop
      vertex 8.78647 0 5.88168
      vertex 8.57341 15 5.46352
      vertex 8.78647 15 5.88168
    endloop
  endfacet
  facet normal 0.891007 0 -0.45399
    outer loop
      vertex 8.57341 15 5.46352
      vertex 8.78647 0 5.88168
      vertex 8.57341 0 5.46352
    endloop
  endfacet
  facet normal 0.987689 0 -0.156432
    outer loop
      vertex 8.57341 0 5.46352
      vertex 8.55506 15 5.34764
      vertex 8.57341 15 5.46352
    endloop
  endfacet
  facet normal 0.987688 -2.89113e-08 -0.156436
    outer loop
      vertex 8.55506 15 5.34764
      vertex 8.57341 0 5.46352
      vertex 8.53671 0 5.23176
    endloop
  endfacet
  facet normal -0.707107 0 0.707107
    outer loop
      vertex 10.8817 0 3.78647
      vertex 11.2135 15 4.11832
      vertex 10.8817 15 3.78647
    endloop
  endfacet
  facet normal -0.707107 0 0.707107
    outer loop
      vertex 11.2135 15 4.11832
      vertex 10.8817 0 3.78647
      vertex 11.2135 0 4.11832
    endloop
  endfacet
  facet normal -0.987687 -6.77686e-08 0.15644
    outer loop
      vertex 11.4633 0 4.76824
      vertex 11.5 15 5
      vertex 11.4816 15 4.88412
    endloop
  endfacet
  facet normal -0.987688 4.97295e-09 0.156435
    outer loop
      vertex 11.5 15 5
      vertex 11.4633 0 4.76824
      vertex 11.5 0 5
    endloop
  endfacet
  facet normal 0.156434 1.56989e-08 0.987688
    outer loop
      vertex 9.88412 15 3.51835
      vertex 10 0 3.5
      vertex 10 15 3.5
    endloop
  endfacet
  facet normal 0.156433 1.0726e-08 0.987688
    outer loop
      vertex 10 0 3.5
      vertex 9.88412 15 3.51835
      vertex 9.76824 0 3.53671
    endloop
  endfacet
  facet normal -0.156434 1.56989e-08 0.987688
    outer loop
      vertex 10 15 3.5
      vertex 10.2318 0 3.53671
      vertex 10.1159 15 3.51835
    endloop
  endfacet
  facet normal -0.156434 1.56989e-08 0.987688
    outer loop
      vertex 10.2318 0 3.53671
      vertex 10 15 3.5
      vertex 10 0 3.5
    endloop
  endfacet
  facet normal 0.707107 -0 0.707107
    outer loop
      vertex 8.78647 0 4.11832
      vertex 9.11832 15 3.78647
      vertex 8.78647 15 4.11832
    endloop
  endfacet
  facet normal 0.707107 0 0.707107
    outer loop
      vertex 9.11832 15 3.78647
      vertex 8.78647 0 4.11832
      vertex 9.11832 0 3.78647
    endloop
  endfacet
  facet normal -0.156436 0 -0.987688
    outer loop
      vertex 10.4635 0 6.42658
      vertex 10.3476 15 6.44494
      vertex 10.4635 15 6.42658
    endloop
  endfacet
  facet normal -0.156435 4.97295e-09 -0.987688
    outer loop
      vertex 10.3476 15 6.44494
      vertex 10.4635 0 6.42658
      vertex 10.2318 0 6.46329
    endloop
  endfacet
  facet normal -0.156434 -5.75307e-09 -0.987688
    outer loop
      vertex 10 0 6.5
      vertex 10.3476 15 6.44494
      vertex 10.2318 0 6.46329
    endloop
  endfacet
  facet normal -0.156433 -3.13978e-08 -0.987689
    outer loop
      vertex 10.3476 15 6.44494
      vertex 10 0 6.5
      vertex 10 15 6.5
    endloop
  endfacet
  facet normal 0.987688 -4.35213e-08 -0.156434
    outer loop
      vertex 8.53671 0 5.23176
      vertex 8.5 15 5
      vertex 8.55506 15 5.34764
    endloop
  endfacet
  facet normal 0.987689 -4.97282e-09 -0.156432
    outer loop
      vertex 8.5 15 5
      vertex 8.53671 0 5.23176
      vertex 8.5 0 5
    endloop
  endfacet
  facet normal 0.987689 4.97284e-09 0.156432
    outer loop
      vertex 8.5 0 5
      vertex 8.51835 15 4.88412
      vertex 8.5 15 5
    endloop
  endfacet
  facet normal 0.987689 0 0.156432
    outer loop
      vertex 8.51835 15 4.88412
      vertex 8.5 0 5
      vertex 8.53671 0 4.76824
    endloop
  endfacet
  facet normal -0.987688 0 0.156434
    outer loop
      vertex 11.4266 0 4.53647
      vertex 11.4816 15 4.88412
      vertex 11.4266 15 4.53647
    endloop
  endfacet
  facet normal -0.987688 -3.38842e-08 0.156436
    outer loop
      vertex 11.4816 15 4.88412
      vertex 11.4266 0 4.53647
      vertex 11.4633 0 4.76824
    endloop
  endfacet
  facet normal 0.45399 0 0.891007
    outer loop
      vertex 9.11832 15 3.78647
      vertex 9.53647 0 3.57341
      vertex 9.53647 15 3.57341
    endloop
  endfacet
  facet normal 0.45399 0 0.891007
    outer loop
      vertex 9.53647 0 3.57341
      vertex 9.11832 15 3.78647
      vertex 9.11832 0 3.78647
    endloop
  endfacet
  facet normal 0.156435 -3.3153e-09 0.987688
    outer loop
      vertex 9.53647 15 3.57341
      vertex 9.76824 0 3.53671
      vertex 9.88412 15 3.51835
    endloop
  endfacet
  facet normal 0.156435 0 0.987688
    outer loop
      vertex 9.76824 0 3.53671
      vertex 9.53647 15 3.57341
      vertex 9.53647 0 3.57341
    endloop
  endfacet
  facet normal -0.987688 0 0.156434
    outer loop
      vertex 12.8532 15 4.07295
      vertex 13 27.4056 5
      vertex 12.8532 27.6452 4.07295
    endloop
  endfacet
  facet normal -0.987688 0 0.156434
    outer loop
      vertex 13 27.4056 5
      vertex 12.8532 15 4.07295
      vertex 13 15 5
    endloop
  endfacet
  facet normal 0.156433 -0 0.987688
    outer loop
      vertex 9.07295 15 2.14683
      vertex 10 31.1247 2
      vertex 9.07295 31.9165 2.14683
    endloop
  endfacet
  facet normal 0.156433 0 0.987688
    outer loop
      vertex 10 31.1247 2
      vertex 9.07295 15 2.14683
      vertex 10 15 2
    endloop
  endfacet
  facet normal -0.156435 0 -0.987688
    outer loop
      vertex 10 15 8
      vertex 10.9271 30.2314 7.85317
      vertex 10.9271 15 7.85317
    endloop
  endfacet
  facet normal -0.156435 -0 -0.987688
    outer loop
      vertex 10 31.1247 8
      vertex 10.9271 30.2314 7.85317
      vertex 10 15 8
    endloop
  endfacet
  facet normal -0.156436 -1.54969e-06 -0.987688
    outer loop
      vertex 10.9271 30.2314 7.85317
      vertex 10 31.1247 8
      vertex 10.6066 30.6066 7.90392
    endloop
  endfacet
  facet normal -0.891006 0 -0.453991
    outer loop
      vertex 12.4271 15 6.76336
      vertex 12.8532 27.6452 5.92705
      vertex 12.8532 15 5.92705
    endloop
  endfacet
  facet normal -0.891006 0 -0.453991
    outer loop
      vertex 12.8532 27.6452 5.92705
      vertex 12.4271 15 6.76336
      vertex 12.4271 28.3406 6.76336
    endloop
  endfacet
  facet normal -0.453991 0 0.891006
    outer loop
      vertex 10.9271 15 2.14683
      vertex 11.7634 29.2522 2.57295
      vertex 10.9271 30.2314 2.14683
    endloop
  endfacet
  facet normal -0.453991 0 0.891006
    outer loop
      vertex 11.7634 29.2522 2.57295
      vertex 10.9271 15 2.14683
      vertex 11.7634 15 2.57295
    endloop
  endfacet
  facet normal -0.891006 0 0.453991
    outer loop
      vertex 12.4271 15 3.23664
      vertex 12.8532 27.6452 4.07295
      vertex 12.4271 28.3406 3.23664
    endloop
  endfacet
  facet normal -0.891006 0 0.453991
    outer loop
      vertex 12.8532 27.6452 4.07295
      vertex 12.4271 15 3.23664
      vertex 12.8532 15 4.07295
    endloop
  endfacet
  facet normal -0.156434 -1.9304e-07 0.987688
    outer loop
      vertex 10 31.1247 2
      vertex 10.9271 30.2314 2.14683
      vertex 10.6066 30.6066 2.09608
    endloop
  endfacet
  facet normal -0.156434 0 0.987688
    outer loop
      vertex 10.9271 30.2314 2.14683
      vertex 10 31.1247 2
      vertex 10 15 2
    endloop
  endfacet
  facet normal -0.156434 0 0.987688
    outer loop
      vertex 10.9271 30.2314 2.14683
      vertex 10 15 2
      vertex 10.9271 15 2.14683
    endloop
  endfacet
  facet normal 0.891006 -0 0.453991
    outer loop
      vertex 7.14683 15 4.07295
      vertex 7.57295 32.8975 3.23664
      vertex 7.14683 33.1586 4.07295
    endloop
  endfacet
  facet normal 0.891006 0 0.453991
    outer loop
      vertex 7.57295 32.8975 3.23664
      vertex 7.14683 15 4.07295
      vertex 7.57295 15 3.23664
    endloop
  endfacet
  facet normal 0 1 -0
    outer loop
      vertex 10.3476 15 6.44494
      vertex 10 15 8
      vertex 10.9271 15 7.85317
    endloop
  endfacet
  facet normal 0 1 0
    outer loop
      vertex 10.4635 15 6.42658
      vertex 10.9271 15 7.85317
      vertex 11.7634 15 7.42705
    endloop
  endfacet
  facet normal 0 1 0
    outer loop
      vertex 10 15 8
      vertex 10.3476 15 6.44494
      vertex 10 15 6.5
    endloop
  endfacet
  facet normal 0 1 0
    outer loop
      vertex 10.8817 15 6.21352
      vertex 11.7634 15 7.42705
      vertex 12.4271 15 6.76336
    endloop
  endfacet
  facet normal 0 1 0
    outer loop
      vertex 9.65236 15 6.44494
      vertex 10 15 8
      vertex 10 15 6.5
    endloop
  endfacet
  facet normal 0 1 -0
    outer loop
      vertex 9.53647 15 6.42658
      vertex 9.07295 15 7.85317
      vertex 9.65236 15 6.44494
    endloop
  endfacet
  facet normal 0 1 0
    outer loop
      vertex 10 15 8
      vertex 9.65236 15 6.44494
      vertex 9.07295 15 7.85317
    endloop
  endfacet
  facet normal 0 1 0
    outer loop
      vertex 10.9271 15 7.85317
      vertex 10.4635 15 6.42658
      vertex 10.3476 15 6.44494
    endloop
  endfacet
  facet normal 0 1 0
    outer loop
      vertex 11.7634 15 7.42705
      vertex 10.8817 15 6.21352
      vertex 10.4635 15 6.42658
    endloop
  endfacet
  facet normal 0 1 0
    outer loop
      vertex 11.2135 15 5.88168
      vertex 12.4271 15 6.76336
      vertex 12.8532 15 5.92705
    endloop
  endfacet
  facet normal 0 1 0
    outer loop
      vertex 12.4271 15 6.76336
      vertex 11.2135 15 5.88168
      vertex 10.8817 15 6.21352
    endloop
  endfacet
  facet normal 0 1 0
    outer loop
      vertex 12.8532 15 5.92705
      vertex 11.4266 15 5.46352
      vertex 11.2135 15 5.88168
    endloop
  endfacet
  facet normal 0 1 0
    outer loop
      vertex 12.8532 15 5.92705
      vertex 11.4449 15 5.34764
      vertex 11.4266 15 5.46352
    endloop
  endfacet
  facet normal 0 1 0
    outer loop
      vertex 13 15 5
      vertex 11.4449 15 5.34764
      vertex 12.8532 15 5.92705
    endloop
  endfacet
  facet normal 0 1 0
    outer loop
      vertex 13 15 5
      vertex 11.5 15 5
      vertex 11.4449 15 5.34764
    endloop
  endfacet
  facet normal 0 1 0
    outer loop
      vertex 13 15 5
      vertex 11.4816 15 4.88412
      vertex 11.5 15 5
    endloop
  endfacet
  facet normal 0 1 -0
    outer loop
      vertex 12.8532 15 4.07295
      vertex 11.4816 15 4.88412
      vertex 13 15 5
    endloop
  endfacet
  facet normal 0 1 0
    outer loop
      vertex 11.4816 15 4.88412
      vertex 12.8532 15 4.07295
      vertex 11.4266 15 4.53647
    endloop
  endfacet
  facet normal 0 1 0
    outer loop
      vertex 11.4266 15 4.53647
      vertex 12.8532 15 4.07295
      vertex 11.2135 15 4.11832
    endloop
  endfacet
  facet normal 0 1 -0
    outer loop
      vertex 12.4271 15 3.23664
      vertex 11.2135 15 4.11832
      vertex 12.8532 15 4.07295
    endloop
  endfacet
  facet normal 0 1 0
    outer loop
      vertex 11.2135 15 4.11832
      vertex 12.4271 15 3.23664
      vertex 10.8817 15 3.78647
    endloop
  endfacet
  facet normal 0 1 -0
    outer loop
      vertex 10.9271 15 2.14683
      vertex 10.4635 15 3.57341
      vertex 11.7634 15 2.57295
    endloop
  endfacet
  facet normal 0 1 0
    outer loop
      vertex 10.8817 15 3.78647
      vertex 11.7634 15 2.57295
      vertex 10.4635 15 3.57341
    endloop
  endfacet
  facet normal 0 1 -0
    outer loop
      vertex 11.7634 15 2.57295
      vertex 10.8817 15 3.78647
      vertex 12.4271 15 3.23664
    endloop
  endfacet
  facet normal 0 1 0
    outer loop
      vertex 9.07295 15 7.85317
      vertex 9.53647 15 6.42658
      vertex 8.23664 15 7.42705
    endloop
  endfacet
  facet normal 0 1 -0
    outer loop
      vertex 9.11832 15 6.21352
      vertex 8.23664 15 7.42705
      vertex 9.53647 15 6.42658
    endloop
  endfacet
  facet normal 0 1 0
    outer loop
      vertex 8.23664 15 7.42705
      vertex 9.11832 15 6.21352
      vertex 7.57295 15 6.76336
    endloop
  endfacet
  facet normal 0 1 -0
    outer loop
      vertex 8.78647 15 5.88168
      vertex 7.57295 15 6.76336
      vertex 9.11832 15 6.21352
    endloop
  endfacet
  facet normal 0 1 0
    outer loop
      vertex 7.57295 15 6.76336
      vertex 8.78647 15 5.88168
      vertex 7.14683 15 5.92705
    endloop
  endfacet
  facet normal 0 1 -0
    outer loop
      vertex 8.57341 15 5.46352
      vertex 7.14683 15 5.92705
      vertex 8.78647 15 5.88168
    endloop
  endfacet
  facet normal 0 1 -0
    outer loop
      vertex 8.55506 15 5.34764
      vertex 7.14683 15 5.92705
      vertex 8.57341 15 5.46352
    endloop
  endfacet
  facet normal 0 1 0
    outer loop
      vertex 8.55506 15 5.34764
      vertex 7 15 5
      vertex 7.14683 15 5.92705
    endloop
  endfacet
  facet normal 0 1 -0
    outer loop
      vertex 8.5 15 5
      vertex 7 15 5
      vertex 8.55506 15 5.34764
    endloop
  endfacet
  facet normal 0 1 0
    outer loop
      vertex 8.51835 15 4.88412
      vertex 7 15 5
      vertex 8.5 15 5
    endloop
  endfacet
  facet normal 0 1 0
    outer loop
      vertex 7.14683 15 4.07295
      vertex 8.51835 15 4.88412
      vertex 8.57341 15 4.53647
    endloop
  endfacet
  facet normal 0 1 0
    outer loop
      vertex 7.14683 15 4.07295
      vertex 8.57341 15 4.53647
      vertex 8.78647 15 4.11832
    endloop
  endfacet
  facet normal 0 1 0
    outer loop
      vertex 8.51835 15 4.88412
      vertex 7.14683 15 4.07295
      vertex 7 15 5
    endloop
  endfacet
  facet normal 0 1 0
    outer loop
      vertex 7.57295 15 3.23664
      vertex 8.78647 15 4.11832
      vertex 9.11832 15 3.78647
    endloop
  endfacet
  facet normal 0 1 0
    outer loop
      vertex 8.23664 15 2.57295
      vertex 9.11832 15 3.78647
      vertex 9.53647 15 3.57341
    endloop
  endfacet
  facet normal 0 1 0
    outer loop
      vertex 8.78647 15 4.11832
      vertex 7.57295 15 3.23664
      vertex 7.14683 15 4.07295
    endloop
  endfacet
  facet normal 0 1 0
    outer loop
      vertex 9.07295 15 2.14683
      vertex 9.53647 15 3.57341
      vertex 9.88412 15 3.51835
    endloop
  endfacet
  facet normal 0 1 -0
    outer loop
      vertex 10 15 2
      vertex 9.88412 15 3.51835
      vertex 10 15 3.5
    endloop
  endfacet
  facet normal 0 1 0
    outer loop
      vertex 10.4635 15 3.57341
      vertex 10.9271 15 2.14683
      vertex 10.1159 15 3.51835
    endloop
  endfacet
  facet normal 0 1 0
    outer loop
      vertex 10 15 2
      vertex 10.1159 15 3.51835
      vertex 10.9271 15 2.14683
    endloop
  endfacet
  facet normal 0 1 0
    outer loop
      vertex 9.11832 15 3.78647
      vertex 8.23664 15 2.57295
      vertex 7.57295 15 3.23664
    endloop
  endfacet
  facet normal 0 1 0
    outer loop
      vertex 10.1159 15 3.51835
      vertex 10 15 2
      vertex 10 15 3.5
    endloop
  endfacet
  facet normal 0 1 0
    outer loop
      vertex 9.53647 15 3.57341
      vertex 9.07295 15 2.14683
      vertex 8.23664 15 2.57295
    endloop
  endfacet
  facet normal 0 1 0
    outer loop
      vertex 9.88412 15 3.51835
      vertex 10 15 2
      vertex 9.07295 15 2.14683
    endloop
  endfacet
  facet normal 0.987688 -0 0.156433
    outer loop
      vertex 7 15 5
      vertex 7.14683 33.1586 4.07295
      vertex 7 33.2486 5
    endloop
  endfacet
  facet normal 0.987688 0 0.156433
    outer loop
      vertex 7.14683 33.1586 4.07295
      vertex 7 15 5
      vertex 7.14683 15 4.07295
    endloop
  endfacet
  facet normal 0.453991 5.64338e-07 0.891006
    outer loop
      vertex 8.23664 32.4908 2.57295
      vertex 9.07295 31.9165 2.14683
      vertex 8.81678 32.1353 2.27735
    endloop
  endfacet
  facet normal 0.453991 0 0.891006
    outer loop
      vertex 9.07295 31.9165 2.14683
      vertex 8.23664 32.4908 2.57295
      vertex 8.23664 15 2.57295
    endloop
  endfacet
  facet normal 0.453991 0 0.891006
    outer loop
      vertex 9.07295 31.9165 2.14683
      vertex 8.23664 15 2.57295
      vertex 9.07295 15 2.14683
    endloop
  endfacet
  facet normal -0.707107 0 0.707107
    outer loop
      vertex 11.7634 29.2522 2.57295
      vertex 12.4271 28.3406 3.23664
      vertex 12.1353 28.8168 2.94485
    endloop
  endfacet
  facet normal -0.707107 0 0.707107
    outer loop
      vertex 11.7634 15 2.57295
      vertex 12.4271 28.3406 3.23664
      vertex 11.7634 29.2522 2.57295
    endloop
  endfacet
  facet normal -0.707107 0 0.707107
    outer loop
      vertex 12.4271 28.3406 3.23664
      vertex 11.7634 15 2.57295
      vertex 12.4271 15 3.23664
    endloop
  endfacet
  facet normal 0.987688 0 -0.156434
    outer loop
      vertex 7 15 5
      vertex 7.14683 33.1586 5.92705
      vertex 7.14683 15 5.92705
    endloop
  endfacet
  facet normal 0.987688 0 -0.156434
    outer loop
      vertex 7.14683 33.1586 5.92705
      vertex 7 15 5
      vertex 7 33.2486 5
    endloop
  endfacet
  facet normal 0.707107 -0 0.707107
    outer loop
      vertex 7.57295 15 3.23664
      vertex 8.23664 32.4908 2.57295
      vertex 7.57295 32.8975 3.23664
    endloop
  endfacet
  facet normal 0.707107 0 0.707107
    outer loop
      vertex 8.23664 32.4908 2.57295
      vertex 7.57295 15 3.23664
      vertex 8.23664 15 2.57295
    endloop
  endfacet
  facet normal -0.453991 0 -0.891006
    outer loop
      vertex 10.9271 15 7.85317
      vertex 11.7634 29.2522 7.42705
      vertex 11.7634 15 7.42705
    endloop
  endfacet
  facet normal -0.453991 0 -0.891006
    outer loop
      vertex 11.7634 29.2522 7.42705
      vertex 10.9271 15 7.85317
      vertex 10.9271 30.2314 7.85317
    endloop
  endfacet
  facet normal -0.987688 0 -0.156435
    outer loop
      vertex 12.8532 15 5.92705
      vertex 13 27.4056 5
      vertex 13 15 5
    endloop
  endfacet
  facet normal -0.987688 0 -0.156435
    outer loop
      vertex 13 27.4056 5
      vertex 12.8532 15 5.92705
      vertex 12.8532 27.6452 5.92705
    endloop
  endfacet
  facet normal -0.707107 0 -0.707107
    outer loop
      vertex 12.4271 28.3406 6.76336
      vertex 11.7634 29.2522 7.42705
      vertex 12.1353 28.8168 7.05515
    endloop
  endfacet
  facet normal -0.707107 0 -0.707107
    outer loop
      vertex 11.7634 15 7.42705
      vertex 12.4271 28.3406 6.76336
      vertex 12.4271 15 6.76336
    endloop
  endfacet
  facet normal -0.707107 0 -0.707107
    outer loop
      vertex 12.4271 28.3406 6.76336
      vertex 11.7634 15 7.42705
      vertex 11.7634 29.2522 7.42705
    endloop
  endfacet
  facet normal 0.156434 0 -0.987688
    outer loop
      vertex 9.07295 15 7.85317
      vertex 10 31.1247 8
      vertex 10 15 8
    endloop
  endfacet
  facet normal 0.156434 0 -0.987688
    outer loop
      vertex 10 31.1247 8
      vertex 9.07295 15 7.85317
      vertex 9.07295 31.9165 7.85317
    endloop
  endfacet
  facet normal 0.707107 0 -0.707107
    outer loop
      vertex 7.57295 15 6.76336
      vertex 8.23664 32.4908 7.42705
      vertex 8.23664 15 7.42705
    endloop
  endfacet
  facet normal 0.707107 0 -0.707107
    outer loop
      vertex 8.23664 32.4908 7.42705
      vertex 7.57295 15 6.76336
      vertex 7.57295 32.8975 6.76336
    endloop
  endfacet
  facet normal 0.891006 0 -0.453991
    outer loop
      vertex 7.14683 15 5.92705
      vertex 7.57295 32.8975 6.76336
      vertex 7.57295 15 6.76336
    endloop
  endfacet
  facet normal 0.891006 0 -0.453991
    outer loop
      vertex 7.57295 32.8975 6.76336
      vertex 7.14683 15 5.92705
      vertex 7.14683 33.1586 5.92705
    endloop
  endfacet
  facet normal 0.453991 0 -0.891006
    outer loop
      vertex 8.23664 15 7.42705
      vertex 9.07295 31.9165 7.85317
      vertex 9.07295 15 7.85317
    endloop
  endfacet
  facet normal 0.453991 0 -0.891006
    outer loop
      vertex 8.23664 32.4908 7.42705
      vertex 9.07295 31.9165 7.85317
      vertex 8.23664 15 7.42705
    endloop
  endfacet
  facet normal 0.453988 -4.39041e-06 -0.891008
    outer loop
      vertex 9.07295 31.9165 7.85317
      vertex 8.23664 32.4908 7.42705
      vertex 8.81678 32.1353 7.72264
    endloop
  endfacet
  facet normal -0.987689 -5.78227e-08 -0.156432
    outer loop
      vertex -8.53671 0 5.23176
      vertex -8.57341 15 5.46352
      vertex -8.55506 15 5.34764
    endloop
  endfacet
  facet normal -0.987688 -0 -0.156436
    outer loop
      vertex -8.57341 15 5.46352
      vertex -8.53671 0 5.23176
      vertex -8.57341 0 5.46352
    endloop
  endfacet
  facet normal -0.987688 -4.9729e-09 -0.156434
    outer loop
      vertex -8.5 0 5
      vertex -8.55506 15 5.34764
      vertex -8.5 15 5
    endloop
  endfacet
  facet normal -0.987689 -6.27956e-08 -0.156432
    outer loop
      vertex -8.55506 15 5.34764
      vertex -8.5 0 5
      vertex -8.53671 0 5.23176
    endloop
  endfacet
  facet normal 0.987688 -2.25895e-08 0.156434
    outer loop
      vertex -11.4633 0 4.76824
      vertex -11.4266 15 4.53647
      vertex -11.4816 15 4.88412
    endloop
  endfacet
  facet normal 0.987688 0 0.156436
    outer loop
      vertex -11.4266 15 4.53647
      vertex -11.4633 0 4.76824
      vertex -11.4266 0 4.53647
    endloop
  endfacet
  facet normal -0.156434 5.75307e-09 0.987688
    outer loop
      vertex -10 15 3.5
      vertex -9.76824 0 3.53671
      vertex -9.88412 15 3.51835
    endloop
  endfacet
  facet normal -0.156433 1.56989e-08 0.987688
    outer loop
      vertex -9.76824 0 3.53671
      vertex -10 15 3.5
      vertex -10 0 3.5
    endloop
  endfacet
  facet normal 0.156435 4.97295e-09 -0.987688
    outer loop
      vertex -10.4635 0 6.42658
      vertex -10.3476 15 6.44494
      vertex -10.2318 0 6.46329
    endloop
  endfacet
  facet normal 0.156436 0 -0.987688
    outer loop
      vertex -10.3476 15 6.44494
      vertex -10.4635 0 6.42658
      vertex -10.4635 15 6.42658
    endloop
  endfacet
  facet normal -0.707107 0 -0.707107
    outer loop
      vertex -8.78647 0 5.88168
      vertex -9.11832 15 6.21352
      vertex -8.78647 15 5.88168
    endloop
  endfacet
  facet normal -0.707107 -0 -0.707107
    outer loop
      vertex -9.11832 15 6.21352
      vertex -8.78647 0 5.88168
      vertex -9.11832 0 6.21352
    endloop
  endfacet
  facet normal 0.987688 1.92742e-08 -0.156434
    outer loop
      vertex -11.4633 0 5.23176
      vertex -11.5 15 5
      vertex -11.4449 15 5.34764
    endloop
  endfacet
  facet normal 0.987688 -4.97295e-09 -0.156435
    outer loop
      vertex -11.5 15 5
      vertex -11.4633 0 5.23176
      vertex -11.5 0 5
    endloop
  endfacet
  facet normal 0.891007 -0 0.45399
    outer loop
      vertex -11.4266 0 4.53647
      vertex -11.2135 15 4.11832
      vertex -11.4266 15 4.53647
    endloop
  endfacet
  facet normal 0.891007 0 0.45399
    outer loop
      vertex -11.2135 15 4.11832
      vertex -11.4266 0 4.53647
      vertex -11.2135 0 4.11832
    endloop
  endfacet
  facet normal 0.707107 -0 0.707107
    outer loop
      vertex -11.2135 0 4.11832
      vertex -10.8817 15 3.78647
      vertex -11.2135 15 4.11832
    endloop
  endfacet
  facet normal 0.707107 0 0.707107
    outer loop
      vertex -10.8817 15 3.78647
      vertex -11.2135 0 4.11832
      vertex -10.8817 0 3.78647
    endloop
  endfacet
  facet normal 0.156436 3.3153e-09 0.987688
    outer loop
      vertex -10.4635 15 3.57341
      vertex -10.2318 0 3.53671
      vertex -10.1159 15 3.51835
    endloop
  endfacet
  facet normal 0.156435 0 0.987688
    outer loop
      vertex -10.2318 0 3.53671
      vertex -10.4635 15 3.57341
      vertex -10.4635 0 3.57341
    endloop
  endfacet
  facet normal -0.45399 0 0.891007
    outer loop
      vertex -9.53647 15 3.57341
      vertex -9.11832 0 3.78647
      vertex -9.11832 15 3.78647
    endloop
  endfacet
  facet normal -0.45399 0 0.891007
    outer loop
      vertex -9.11832 0 3.78647
      vertex -9.53647 15 3.57341
      vertex -9.53647 0 3.57341
    endloop
  endfacet
  facet normal -0.156433 -1.0726e-08 -0.987688
    outer loop
      vertex -10 0 6.5
      vertex -9.65236 15 6.44494
      vertex -9.76824 0 6.46329
    endloop
  endfacet
  facet normal -0.156433 -3.13978e-08 -0.987689
    outer loop
      vertex -9.65236 15 6.44494
      vertex -10 0 6.5
      vertex -10 15 6.5
    endloop
  endfacet
  facet normal -0.891007 0 -0.45399
    outer loop
      vertex -8.57341 0 5.46352
      vertex -8.78647 15 5.88168
      vertex -8.57341 15 5.46352
    endloop
  endfacet
  facet normal -0.891007 -0 -0.45399
    outer loop
      vertex -8.78647 15 5.88168
      vertex -8.57341 0 5.46352
      vertex -8.78647 0 5.88168
    endloop
  endfacet
  facet normal -0.891007 0 0.45399
    outer loop
      vertex -8.78647 0 4.11832
      vertex -8.57341 15 4.53647
      vertex -8.78647 15 4.11832
    endloop
  endfacet
  facet normal -0.891007 0 0.45399
    outer loop
      vertex -8.57341 15 4.53647
      vertex -8.78647 0 4.11832
      vertex -8.57341 0 4.53647
    endloop
  endfacet
  facet normal 0.987687 0 -0.15644
    outer loop
      vertex -11.4266 0 5.46352
      vertex -11.4449 15 5.34764
      vertex -11.4266 15 5.46352
    endloop
  endfacet
  facet normal 0.987688 3.38842e-08 -0.156436
    outer loop
      vertex -11.4449 15 5.34764
      vertex -11.4266 0 5.46352
      vertex -11.4633 0 5.23176
    endloop
  endfacet
  facet normal 0.891007 0 -0.45399
    outer loop
      vertex -11.2135 0 5.88168
      vertex -11.4266 15 5.46352
      vertex -11.2135 15 5.88168
    endloop
  endfacet
  facet normal 0.891007 0 -0.45399
    outer loop
      vertex -11.4266 15 5.46352
      vertex -11.2135 0 5.88168
      vertex -11.4266 0 5.46352
    endloop
  endfacet
  facet normal 0.707107 0 -0.707107
    outer loop
      vertex -10.8817 0 6.21352
      vertex -11.2135 15 5.88168
      vertex -10.8817 15 6.21352
    endloop
  endfacet
  facet normal 0.707107 0 -0.707107
    outer loop
      vertex -11.2135 15 5.88168
      vertex -10.8817 0 6.21352
      vertex -11.2135 0 5.88168
    endloop
  endfacet
  facet normal 0.156434 1.56989e-08 0.987688
    outer loop
      vertex -10.1159 15 3.51835
      vertex -10 0 3.5
      vertex -10 15 3.5
    endloop
  endfacet
  facet normal 0.156434 1.56989e-08 0.987688
    outer loop
      vertex -10 0 3.5
      vertex -10.1159 15 3.51835
      vertex -10.2318 0 3.53671
    endloop
  endfacet
  facet normal 0.45399 0 0.891007
    outer loop
      vertex -10.8817 15 3.78647
      vertex -10.4635 0 3.57341
      vertex -10.4635 15 3.57341
    endloop
  endfacet
  facet normal 0.45399 0 0.891007
    outer loop
      vertex -10.4635 0 3.57341
      vertex -10.8817 15 3.78647
      vertex -10.8817 0 3.78647
    endloop
  endfacet
  facet normal -0.156435 0 0.987688
    outer loop
      vertex -9.53647 15 3.57341
      vertex -9.76824 0 3.53671
      vertex -9.53647 0 3.57341
    endloop
  endfacet
  facet normal -0.156435 -3.3153e-09 0.987688
    outer loop
      vertex -9.76824 0 3.53671
      vertex -9.53647 15 3.57341
      vertex -9.88412 15 3.51835
    endloop
  endfacet
  facet normal -0.707107 0 0.707107
    outer loop
      vertex -9.11832 0 3.78647
      vertex -8.78647 15 4.11832
      vertex -9.11832 15 3.78647
    endloop
  endfacet
  facet normal -0.707107 0 0.707107
    outer loop
      vertex -8.78647 15 4.11832
      vertex -9.11832 0 3.78647
      vertex -8.78647 0 4.11832
    endloop
  endfacet
  facet normal -0.987688 0 0.156434
    outer loop
      vertex -8.57341 0 4.53647
      vertex -8.51835 15 4.88412
      vertex -8.57341 15 4.53647
    endloop
  endfacet
  facet normal -0.987688 -3.38842e-08 0.156436
    outer loop
      vertex -8.51835 15 4.88412
      vertex -8.57341 0 4.53647
      vertex -8.53671 0 4.76824
    endloop
  endfacet
  facet normal -0.987689 -4.97284e-09 0.156432
    outer loop
      vertex -8.53671 0 4.76824
      vertex -8.5 15 5
      vertex -8.51835 15 4.88412
    endloop
  endfacet
  facet normal -0.987689 4.97282e-09 0.156432
    outer loop
      vertex -8.5 15 5
      vertex -8.53671 0 4.76824
      vertex -8.5 0 5
    endloop
  endfacet
  facet normal -0.45399 0 -0.891007
    outer loop
      vertex -9.53647 0 6.42658
      vertex -9.11832 15 6.21352
      vertex -9.11832 0 6.21352
    endloop
  endfacet
  facet normal -0.45399 0 -0.891007
    outer loop
      vertex -9.11832 15 6.21352
      vertex -9.53647 0 6.42658
      vertex -9.53647 15 6.42658
    endloop
  endfacet
  facet normal -0.156436 0 -0.987688
    outer loop
      vertex -9.53647 0 6.42658
      vertex -9.65236 15 6.44494
      vertex -9.53647 15 6.42658
    endloop
  endfacet
  facet normal -0.156435 4.97295e-09 -0.987688
    outer loop
      vertex -9.65236 15 6.44494
      vertex -9.53647 0 6.42658
      vertex -9.76824 0 6.46329
    endloop
  endfacet
  facet normal 0.156434 -3.13978e-08 -0.987688
    outer loop
      vertex -10.2318 0 6.46329
      vertex -10 15 6.5
      vertex -10 0 6.5
    endloop
  endfacet
  facet normal 0.156433 -1.43014e-08 -0.987689
    outer loop
      vertex -10 15 6.5
      vertex -10.2318 0 6.46329
      vertex -10.3476 15 6.44494
    endloop
  endfacet
  facet normal 0.987687 4.9731e-09 0.15644
    outer loop
      vertex -11.5 0 5
      vertex -11.4816 15 4.88412
      vertex -11.5 15 5
    endloop
  endfacet
  facet normal 0.987688 -3.13978e-08 0.156435
    outer loop
      vertex -11.4816 15 4.88412
      vertex -11.5 0 5
      vertex -11.4633 0 4.76824
    endloop
  endfacet
  facet normal 0.45399 0 -0.891007
    outer loop
      vertex -10.8817 0 6.21352
      vertex -10.4635 15 6.42658
      vertex -10.4635 0 6.42658
    endloop
  endfacet
  facet normal 0.45399 0 -0.891007
    outer loop
      vertex -10.4635 15 6.42658
      vertex -10.8817 0 6.21352
      vertex -10.8817 15 6.21352
    endloop
  endfacet
  facet normal -0.987688 0 0.156433
    outer loop
      vertex -7 15 5
      vertex -7.14683 33.1586 4.07295
      vertex -7.14683 15 4.07295
    endloop
  endfacet
  facet normal -0.987688 0 0.156433
    outer loop
      vertex -7.14683 33.1586 4.07295
      vertex -7 15 5
      vertex -7 33.2486 5
    endloop
  endfacet
  facet normal 0.987688 0 0.156434
    outer loop
      vertex -12.8532 15 4.07295
      vertex -13 27.4056 5
      vertex -13 15 5
    endloop
  endfacet
  facet normal 0.987688 0 0.156434
    outer loop
      vertex -13 27.4056 5
      vertex -12.8532 15 4.07295
      vertex -12.8532 27.6452 4.07295
    endloop
  endfacet
  facet normal 0.156434 -1.9304e-07 0.987688
    outer loop
      vertex -10.9271 30.2314 2.14683
      vertex -10 31.1247 2
      vertex -10.6066 30.6066 2.09608
    endloop
  endfacet
  facet normal 0.156434 0 0.987688
    outer loop
      vertex -10 31.1247 2
      vertex -10.9271 30.2314 2.14683
      vertex -10 15 2
    endloop
  endfacet
  facet normal 0.156434 0 0.987688
    outer loop
      vertex -10 15 2
      vertex -10.9271 30.2314 2.14683
      vertex -10.9271 15 2.14683
    endloop
  endfacet
  facet normal -0.156434 -0 -0.987688
    outer loop
      vertex -10 31.1247 8
      vertex -9.07295 15 7.85317
      vertex -10 15 8
    endloop
  endfacet
  facet normal -0.156434 0 -0.987688
    outer loop
      vertex -9.07295 15 7.85317
      vertex -10 31.1247 8
      vertex -9.07295 31.9165 7.85317
    endloop
  endfacet
  facet normal -0.453991 0 -0.891006
    outer loop
      vertex -9.07295 31.9165 7.85317
      vertex -8.23664 32.4908 7.42705
      vertex -8.23664 15 7.42705
    endloop
  endfacet
  facet normal -0.453991 -0 -0.891006
    outer loop
      vertex -9.07295 31.9165 7.85317
      vertex -8.23664 15 7.42705
      vertex -9.07295 15 7.85317
    endloop
  endfacet
  facet normal -0.453988 -4.39041e-06 -0.891008
    outer loop
      vertex -8.23664 32.4908 7.42705
      vertex -9.07295 31.9165 7.85317
      vertex -8.81678 32.1353 7.72264
    endloop
  endfacet
  facet normal -0.453991 5.64338e-07 0.891006
    outer loop
      vertex -9.07295 31.9165 2.14683
      vertex -8.23664 32.4908 2.57295
      vertex -8.81678 32.1353 2.27735
    endloop
  endfacet
  facet normal -0.453991 0 0.891006
    outer loop
      vertex -8.23664 32.4908 2.57295
      vertex -9.07295 31.9165 2.14683
      vertex -8.23664 15 2.57295
    endloop
  endfacet
  facet normal -0.453991 0 0.891006
    outer loop
      vertex -8.23664 15 2.57295
      vertex -9.07295 31.9165 2.14683
      vertex -9.07295 15 2.14683
    endloop
  endfacet
  facet normal -0.891006 0 0.453991
    outer loop
      vertex -7.14683 15 4.07295
      vertex -7.57295 32.8975 3.23664
      vertex -7.57295 15 3.23664
    endloop
  endfacet
  facet normal -0.891006 0 0.453991
    outer loop
      vertex -7.57295 32.8975 3.23664
      vertex -7.14683 15 4.07295
      vertex -7.14683 33.1586 4.07295
    endloop
  endfacet
  facet normal -0.156433 0 0.987688
    outer loop
      vertex -10 31.1247 2
      vertex -9.07295 15 2.14683
      vertex -9.07295 31.9165 2.14683
    endloop
  endfacet
  facet normal -0.156433 0 0.987688
    outer loop
      vertex -9.07295 15 2.14683
      vertex -10 31.1247 2
      vertex -10 15 2
    endloop
  endfacet
  facet normal 0.707107 0 0.707107
    outer loop
      vertex -12.4271 28.3406 3.23664
      vertex -11.7634 29.2522 2.57295
      vertex -12.1353 28.8168 2.94485
    endloop
  endfacet
  facet normal 0.707107 0 0.707107
    outer loop
      vertex -11.7634 15 2.57295
      vertex -12.4271 28.3406 3.23664
      vertex -12.4271 15 3.23664
    endloop
  endfacet
  facet normal 0.707107 0 0.707107
    outer loop
      vertex -12.4271 28.3406 3.23664
      vertex -11.7634 15 2.57295
      vertex -11.7634 29.2522 2.57295
    endloop
  endfacet
  facet normal 0.891006 0 0.453991
    outer loop
      vertex -12.4271 15 3.23664
      vertex -12.8532 27.6452 4.07295
      vertex -12.8532 15 4.07295
    endloop
  endfacet
  facet normal 0.891006 0 0.453991
    outer loop
      vertex -12.8532 27.6452 4.07295
      vertex -12.4271 15 3.23664
      vertex -12.4271 28.3406 3.23664
    endloop
  endfacet
  facet normal 0.453991 0 0.891006
    outer loop
      vertex -11.7634 29.2522 2.57295
      vertex -10.9271 15 2.14683
      vertex -10.9271 30.2314 2.14683
    endloop
  endfacet
  facet normal 0.453991 0 0.891006
    outer loop
      vertex -10.9271 15 2.14683
      vertex -11.7634 29.2522 2.57295
      vertex -11.7634 15 2.57295
    endloop
  endfacet
  facet normal 0 1 -0
    outer loop
      vertex -9.65236 15 6.44494
      vertex -10 15 8
      vertex -9.07295 15 7.85317
    endloop
  endfacet
  facet normal 0 1 0
    outer loop
      vertex -9.53647 15 6.42658
      vertex -9.07295 15 7.85317
      vertex -8.23664 15 7.42705
    endloop
  endfacet
  facet normal 0 1 0
    outer loop
      vertex -10 15 8
      vertex -9.65236 15 6.44494
      vertex -10 15 6.5
    endloop
  endfacet
  facet normal 0 1 0
    outer loop
      vertex -9.11832 15 6.21352
      vertex -8.23664 15 7.42705
      vertex -7.57295 15 6.76336
    endloop
  endfacet
  facet normal 0 1 0
    outer loop
      vertex -10.3476 15 6.44494
      vertex -10 15 8
      vertex -10 15 6.5
    endloop
  endfacet
  facet normal 0 1 -0
    outer loop
      vertex -10.4635 15 6.42658
      vertex -10.9271 15 7.85317
      vertex -10.3476 15 6.44494
    endloop
  endfacet
  facet normal 0 1 0
    outer loop
      vertex -10 15 8
      vertex -10.3476 15 6.44494
      vertex -10.9271 15 7.85317
    endloop
  endfacet
  facet normal 0 1 0
    outer loop
      vertex -9.07295 15 7.85317
      vertex -9.53647 15 6.42658
      vertex -9.65236 15 6.44494
    endloop
  endfacet
  facet normal 0 1 0
    outer loop
      vertex -8.23664 15 7.42705
      vertex -9.11832 15 6.21352
      vertex -9.53647 15 6.42658
    endloop
  endfacet
  facet normal 0 1 0
    outer loop
      vertex -8.78647 15 5.88168
      vertex -7.57295 15 6.76336
      vertex -7.14683 15 5.92705
    endloop
  endfacet
  facet normal 0 1 0
    outer loop
      vertex -7.57295 15 6.76336
      vertex -8.78647 15 5.88168
      vertex -9.11832 15 6.21352
    endloop
  endfacet
  facet normal 0 1 0
    outer loop
      vertex -7.14683 15 5.92705
      vertex -8.57341 15 5.46352
      vertex -8.78647 15 5.88168
    endloop
  endfacet
  facet normal 0 1 0
    outer loop
      vertex -7.14683 15 5.92705
      vertex -8.55506 15 5.34764
      vertex -8.57341 15 5.46352
    endloop
  endfacet
  facet normal 0 1 0
    outer loop
      vertex -7 15 5
      vertex -8.55506 15 5.34764
      vertex -7.14683 15 5.92705
    endloop
  endfacet
  facet normal 0 1 0
    outer loop
      vertex -7 15 5
      vertex -8.5 15 5
      vertex -8.55506 15 5.34764
    endloop
  endfacet
  facet normal 0 1 0
    outer loop
      vertex -7 15 5
      vertex -8.51835 15 4.88412
      vertex -8.5 15 5
    endloop
  endfacet
  facet normal 0 1 -0
    outer loop
      vertex -7.14683 15 4.07295
      vertex -8.51835 15 4.88412
      vertex -7 15 5
    endloop
  endfacet
  facet normal 0 1 0
    outer loop
      vertex -8.51835 15 4.88412
      vertex -7.14683 15 4.07295
      vertex -8.57341 15 4.53647
    endloop
  endfacet
  facet normal 0 1 0
    outer loop
      vertex -8.57341 15 4.53647
      vertex -7.14683 15 4.07295
      vertex -8.78647 15 4.11832
    endloop
  endfacet
  facet normal 0 1 -0
    outer loop
      vertex -7.57295 15 3.23664
      vertex -8.78647 15 4.11832
      vertex -7.14683 15 4.07295
    endloop
  endfacet
  facet normal 0 1 0
    outer loop
      vertex -8.78647 15 4.11832
      vertex -7.57295 15 3.23664
      vertex -9.11832 15 3.78647
    endloop
  endfacet
  facet normal 0 1 -0
    outer loop
      vertex -9.07295 15 2.14683
      vertex -9.53647 15 3.57341
      vertex -8.23664 15 2.57295
    endloop
  endfacet
  facet normal 0 1 0
    outer loop
      vertex -9.11832 15 3.78647
      vertex -8.23664 15 2.57295
      vertex -9.53647 15 3.57341
    endloop
  endfacet
  facet normal 0 1 -0
    outer loop
      vertex -8.23664 15 2.57295
      vertex -9.11832 15 3.78647
      vertex -7.57295 15 3.23664
    endloop
  endfacet
  facet normal 0 1 0
    outer loop
      vertex -10.9271 15 7.85317
      vertex -10.4635 15 6.42658
      vertex -11.7634 15 7.42705
    endloop
  endfacet
  facet normal 0 1 -0
    outer loop
      vertex -10.8817 15 6.21352
      vertex -11.7634 15 7.42705
      vertex -10.4635 15 6.42658
    endloop
  endfacet
  facet normal 0 1 0
    outer loop
      vertex -11.7634 15 7.42705
      vertex -10.8817 15 6.21352
      vertex -12.4271 15 6.76336
    endloop
  endfacet
  facet normal 0 1 -0
    outer loop
      vertex -11.2135 15 5.88168
      vertex -12.4271 15 6.76336
      vertex -10.8817 15 6.21352
    endloop
  endfacet
  facet normal 0 1 0
    outer loop
      vertex -12.4271 15 6.76336
      vertex -11.2135 15 5.88168
      vertex -12.8532 15 5.92705
    endloop
  endfacet
  facet normal 0 1 -0
    outer loop
      vertex -11.4266 15 5.46352
      vertex -12.8532 15 5.92705
      vertex -11.2135 15 5.88168
    endloop
  endfacet
  facet normal 0 1 -0
    outer loop
      vertex -11.4449 15 5.34764
      vertex -12.8532 15 5.92705
      vertex -11.4266 15 5.46352
    endloop
  endfacet
  facet normal 0 1 0
    outer loop
      vertex -11.4449 15 5.34764
      vertex -13 15 5
      vertex -12.8532 15 5.92705
    endloop
  endfacet
  facet normal 0 1 -0
    outer loop
      vertex -11.5 15 5
      vertex -13 15 5
      vertex -11.4449 15 5.34764
    endloop
  endfacet
  facet normal 0 1 0
    outer loop
      vertex -11.4816 15 4.88412
      vertex -13 15 5
      vertex -11.5 15 5
    endloop
  endfacet
  facet normal 0 1 0
    outer loop
      vertex -12.8532 15 4.07295
      vertex -11.4816 15 4.88412
      vertex -11.4266 15 4.53647
    endloop
  endfacet
  facet normal 0 1 0
    outer loop
      vertex -12.8532 15 4.07295
      vertex -11.4266 15 4.53647
      vertex -11.2135 15 4.11832
    endloop
  endfacet
  facet normal 0 1 0
    outer loop
      vertex -11.4816 15 4.88412
      vertex -12.8532 15 4.07295
      vertex -13 15 5
    endloop
  endfacet
  facet normal 0 1 0
    outer loop
      vertex -12.4271 15 3.23664
      vertex -11.2135 15 4.11832
      vertex -10.8817 15 3.78647
    endloop
  endfacet
  facet normal 0 1 0
    outer loop
      vertex -11.7634 15 2.57295
      vertex -10.8817 15 3.78647
      vertex -10.4635 15 3.57341
    endloop
  endfacet
  facet normal 0 1 0
    outer loop
      vertex -11.2135 15 4.11832
      vertex -12.4271 15 3.23664
      vertex -12.8532 15 4.07295
    endloop
  endfacet
  facet normal 0 1 0
    outer loop
      vertex -10.9271 15 2.14683
      vertex -10.4635 15 3.57341
      vertex -10.1159 15 3.51835
    endloop
  endfacet
  facet normal 0 1 -0
    outer loop
      vertex -10 15 2
      vertex -10.1159 15 3.51835
      vertex -10 15 3.5
    endloop
  endfacet
  facet normal 0 1 0
    outer loop
      vertex -9.53647 15 3.57341
      vertex -9.07295 15 2.14683
      vertex -9.88412 15 3.51835
    endloop
  endfacet
  facet normal 0 1 0
    outer loop
      vertex -10 15 2
      vertex -9.88412 15 3.51835
      vertex -9.07295 15 2.14683
    endloop
  endfacet
  facet normal 0 1 0
    outer loop
      vertex -10.8817 15 3.78647
      vertex -11.7634 15 2.57295
      vertex -12.4271 15 3.23664
    endloop
  endfacet
  facet normal 0 1 0
    outer loop
      vertex -9.88412 15 3.51835
      vertex -10 15 2
      vertex -10 15 3.5
    endloop
  endfacet
  facet normal 0 1 0
    outer loop
      vertex -10.4635 15 3.57341
      vertex -10.9271 15 2.14683
      vertex -11.7634 15 2.57295
    endloop
  endfacet
  facet normal 0 1 0
    outer loop
      vertex -10.1159 15 3.51835
      vertex -10 15 2
      vertex -10.9271 15 2.14683
    endloop
  endfacet
  facet normal -0.707107 0 0.707107
    outer loop
      vertex -7.57295 15 3.23664
      vertex -8.23664 32.4908 2.57295
      vertex -8.23664 15 2.57295
    endloop
  endfacet
  facet normal -0.707107 0 0.707107
    outer loop
      vertex -8.23664 32.4908 2.57295
      vertex -7.57295 15 3.23664
      vertex -7.57295 32.8975 3.23664
    endloop
  endfacet
  facet normal -0.987688 0 -0.156434
    outer loop
      vertex -7 15 5
      vertex -7.14683 33.1586 5.92705
      vertex -7 33.2486 5
    endloop
  endfacet
  facet normal -0.987688 -0 -0.156434
    outer loop
      vertex -7.14683 33.1586 5.92705
      vertex -7 15 5
      vertex -7.14683 15 5.92705
    endloop
  endfacet
  facet normal -0.707107 0 -0.707107
    outer loop
      vertex -7.57295 15 6.76336
      vertex -8.23664 32.4908 7.42705
      vertex -7.57295 32.8975 6.76336
    endloop
  endfacet
  facet normal -0.707107 -0 -0.707107
    outer loop
      vertex -8.23664 32.4908 7.42705
      vertex -7.57295 15 6.76336
      vertex -8.23664 15 7.42705
    endloop
  endfacet
  facet normal 0.891006 0 -0.453991
    outer loop
      vertex -12.4271 15 6.76336
      vertex -12.8532 27.6452 5.92705
      vertex -12.4271 28.3406 6.76336
    endloop
  endfacet
  facet normal 0.891006 0 -0.453991
    outer loop
      vertex -12.8532 27.6452 5.92705
      vertex -12.4271 15 6.76336
      vertex -12.8532 15 5.92705
    endloop
  endfacet
  facet normal 0.987688 0 -0.156435
    outer loop
      vertex -12.8532 15 5.92705
      vertex -13 27.4056 5
      vertex -12.8532 27.6452 5.92705
    endloop
  endfacet
  facet normal 0.987688 0 -0.156435
    outer loop
      vertex -13 27.4056 5
      vertex -12.8532 15 5.92705
      vertex -13 15 5
    endloop
  endfacet
  facet normal -0.891006 0 -0.453991
    outer loop
      vertex -7.14683 15 5.92705
      vertex -7.57295 32.8975 6.76336
      vertex -7.14683 33.1586 5.92705
    endloop
  endfacet
  facet normal -0.891006 -0 -0.453991
    outer loop
      vertex -7.57295 32.8975 6.76336
      vertex -7.14683 15 5.92705
      vertex -7.57295 15 6.76336
    endloop
  endfacet
  facet normal 0.453991 0 -0.891006
    outer loop
      vertex -11.7634 29.2522 7.42705
      vertex -10.9271 15 7.85317
      vertex -11.7634 15 7.42705
    endloop
  endfacet
  facet normal 0.453991 0 -0.891006
    outer loop
      vertex -10.9271 15 7.85317
      vertex -11.7634 29.2522 7.42705
      vertex -10.9271 30.2314 7.85317
    endloop
  endfacet
  facet normal 0.156435 0 -0.987688
    outer loop
      vertex -10.9271 30.2314 7.85317
      vertex -10 31.1247 8
      vertex -10 15 8
    endloop
  endfacet
  facet normal 0.156435 0 -0.987688
    outer loop
      vertex -10.9271 30.2314 7.85317
      vertex -10 15 8
      vertex -10.9271 15 7.85317
    endloop
  endfacet
  facet normal 0.156436 -1.54969e-06 -0.987688
    outer loop
      vertex -10 31.1247 8
      vertex -10.9271 30.2314 7.85317
      vertex -10.6066 30.6066 7.90392
    endloop
  endfacet
  facet normal 0.707107 0 -0.707107
    outer loop
      vertex -11.7634 29.2522 7.42705
      vertex -12.4271 28.3406 6.76336
      vertex -12.1353 28.8168 7.05515
    endloop
  endfacet
  facet normal 0.707107 0 -0.707107
    outer loop
      vertex -11.7634 15 7.42705
      vertex -12.4271 28.3406 6.76336
      vertex -11.7634 29.2522 7.42705
    endloop
  endfacet
  facet normal 0.707107 0 -0.707107
    outer loop
      vertex -12.4271 28.3406 6.76336
      vertex -11.7634 15 7.42705
      vertex -12.4271 15 6.76336
    endloop
  endfacet
endsolid OpenSCAD_Model
