solid OpenSCAD_Model
  facet normal -0 0 1
    outer loop
      vertex 12.4315 -1.30661 8.5
      vertex 50.9888 -8.56707 8.5
      vertex 12.5 0 8.5
    endloop
  endfacet
  facet normal 0 0 1
    outer loop
      vertex 50.9888 -8.56707 8.5
      vertex 12.4315 1.30661 8.5
      vertex 12.5 0 8.5
    endloop
  endfacet
  facet normal 0 0 1
    outer loop
      vertex 50.9888 -8.56707 8.5
      vertex 12.2268 2.5989 8.5
      vertex 12.4315 1.30661 8.5
    endloop
  endfacet
  facet normal 0 0 1
    outer loop
      vertex 50.9888 -8.56707 8.5
      vertex 11.8882 3.86271 8.5
      vertex 12.2268 2.5989 8.5
    endloop
  endfacet
  facet normal -0 -0 1
    outer loop
      vertex 11.8882 3.86271 8.5
      vertex 50.9888 -8.56707 8.5
      vertex 11.431 5.05377 8.5
    endloop
  endfacet
  facet normal -0 0 1
    outer loop
      vertex 12.2268 -2.5989 8.5
      vertex 50.9888 -8.56707 8.5
      vertex 12.4315 -1.30661 8.5
    endloop
  endfacet
  facet normal -0 0 1
    outer loop
      vertex 11.8882 -3.86271 8.5
      vertex 50.9888 -8.56707 8.5
      vertex 12.2268 -2.5989 8.5
    endloop
  endfacet
  facet normal 0 0 1
    outer loop
      vertex 50.9888 -8.56707 8.5
      vertex 11.8882 -3.86271 8.5
      vertex 45.4541 -24.6409 8.5
    endloop
  endfacet
  facet normal -0 0 1
    outer loop
      vertex 11.4193 -5.08421 8.5
      vertex 45.4541 -24.6409 8.5
      vertex 11.8882 -3.86271 8.5
    endloop
  endfacet
  facet normal -0 0 1
    outer loop
      vertex 10.8253 -6.25 8.5
      vertex 45.4541 -24.6409 8.5
      vertex 11.4193 -5.08421 8.5
    endloop
  endfacet
  facet normal -0 0 1
    outer loop
      vertex 10.1127 -7.34731 8.5
      vertex 45.4541 -24.6409 8.5
      vertex 10.8253 -6.25 8.5
    endloop
  endfacet
  facet normal -0 0 1
    outer loop
      vertex 9.28931 -8.36413 8.5
      vertex 45.4541 -24.6409 8.5
      vertex 10.1127 -7.34731 8.5
    endloop
  endfacet
  facet normal -0 0 1
    outer loop
      vertex 8.36413 -9.28931 8.5
      vertex 45.4541 -24.6409 8.5
      vertex 9.28931 -8.36413 8.5
    endloop
  endfacet
  facet normal -0 0 1
    outer loop
      vertex 7.34731 -10.1127 8.5
      vertex 45.4541 -24.6409 8.5
      vertex 8.36413 -9.28931 8.5
    endloop
  endfacet
  facet normal -0 0 1
    outer loop
      vertex 6.25 -10.8253 8.5
      vertex 45.4541 -24.6409 8.5
      vertex 7.34731 -10.1127 8.5
    endloop
  endfacet
  facet normal 0 0 1
    outer loop
      vertex 45.4541 -24.6409 8.5
      vertex 6.25 -10.8253 8.5
      vertex 5.87932 -11.0142 8.5
    endloop
  endfacet
  facet normal 0.945519 -0.325568 0
    outer loop
      vertex 50.9888 -8.56707 8.5
      vertex 49.9144 -11.6873 5.2
      vertex 50.9888 -8.56707 -8.5
    endloop
  endfacet
  facet normal 0.945519 -0.325568 1.04461e-007
    outer loop
      vertex 50.9888 -8.56707 8.5
      vertex 46.5285 -21.5207 5.2
      vertex 49.9144 -11.6873 5.2
    endloop
  endfacet
  facet normal 0.945519 -0.325568 0
    outer loop
      vertex 46.5285 -21.5207 5.2
      vertex 45.4541 -24.6409 8.5
      vertex 46.5285 -21.5207 -5.2
    endloop
  endfacet
  facet normal 0.945519 -0.325568 -1.39728e-007
    outer loop
      vertex 45.4541 -24.6409 8.5
      vertex 46.5285 -21.5207 5.2
      vertex 50.9888 -8.56707 8.5
    endloop
  endfacet
  facet normal 0.945519 -0.325568 0
    outer loop
      vertex 49.9144 -11.6873 -5.2
      vertex 50.9888 -8.56707 -8.5
      vertex 49.9144 -11.6873 5.2
    endloop
  endfacet
  facet normal 0.945519 -0.325568 -1.04461e-007
    outer loop
      vertex 46.5285 -21.5207 -5.2
      vertex 50.9888 -8.56707 -8.5
      vertex 49.9144 -11.6873 -5.2
    endloop
  endfacet
  facet normal 0.945519 -0.325568 1.39728e-007
    outer loop
      vertex 46.5285 -21.5207 -5.2
      vertex 45.4541 -24.6409 -8.5
      vertex 50.9888 -8.56707 -8.5
    endloop
  endfacet
  facet normal 0.945519 -0.325568 0
    outer loop
      vertex 45.4541 -24.6409 -8.5
      vertex 46.5285 -21.5207 -5.2
      vertex 45.4541 -24.6409 8.5
    endloop
  endfacet
  facet normal 0.325568 0.945519 -0
    outer loop
      vertex 50.9888 -8.56707 -8.5
      vertex 11.431 5.05377 8.5
      vertex 50.9888 -8.56707 8.5
    endloop
  endfacet
  facet normal 0.325568 0.945519 0
    outer loop
      vertex 11.431 5.05377 8.5
      vertex 50.9888 -8.56707 -8.5
      vertex 11.431 5.05377 -8.5
    endloop
  endfacet
  facet normal 0 0 -1
    outer loop
      vertex 45.4541 -24.6409 -8.5
      vertex 11.431 5.05377 -8.5
      vertex 50.9888 -8.56707 -8.5
    endloop
  endfacet
  facet normal 0 0 -1
    outer loop
      vertex 2.28386 1.01684 -8.5
      vertex 11.4193 5.08421 -8.5
      vertex 11.431 5.05377 -8.5
    endloop
  endfacet
  facet normal -0 0 -1
    outer loop
      vertex 11.4193 5.08421 -8.5
      vertex 2.16506 1.25 -8.5
      vertex 10.8253 6.25 -8.5
    endloop
  endfacet
  facet normal -0 0 -1
    outer loop
      vertex 10.8253 6.25 -8.5
      vertex 2.16506 1.25 -8.5
      vertex 10.1127 7.34731 -8.5
    endloop
  endfacet
  facet normal -0 0 -1
    outer loop
      vertex 10.1127 7.34731 -8.5
      vertex 2.02254 1.46946 -8.5
      vertex 9.28931 8.36413 -8.5
    endloop
  endfacet
  facet normal 0 0 -1
    outer loop
      vertex 1.85786 1.67283 -8.5
      vertex 9.28931 8.36413 -8.5
      vertex 2.02254 1.46946 -8.5
    endloop
  endfacet
  facet normal 0 0 -1
    outer loop
      vertex 1.67283 1.85786 -8.5
      vertex 8.36413 9.28931 -8.5
      vertex 1.85786 1.67283 -8.5
    endloop
  endfacet
  facet normal 0 0 -1
    outer loop
      vertex 5.87932 -11.0142 -8.5
      vertex 11.431 5.05377 -8.5
      vertex 45.4541 -24.6409 -8.5
    endloop
  endfacet
  facet normal 0 0 -1
    outer loop
      vertex 2.37764 -0.772542 -8.5
      vertex 11.431 5.05377 -8.5
      vertex 5.87932 -11.0142 -8.5
    endloop
  endfacet
  facet normal 0 0 -1
    outer loop
      vertex 1.01684 -2.28386 -8.5
      vertex 5.87932 -11.0142 -8.5
      vertex 5.08421 -11.4193 -8.5
    endloop
  endfacet
  facet normal 0 0 -1
    outer loop
      vertex 2.4863 0.261321 -8.5
      vertex 11.431 5.05377 -8.5
      vertex 2.5 0 -8.5
    endloop
  endfacet
  facet normal 0 0 -1
    outer loop
      vertex 1.01684 -2.28386 -8.5
      vertex 5.08421 -11.4193 -8.5
      vertex 3.86271 -11.8882 -8.5
    endloop
  endfacet
  facet normal 0 0 -1
    outer loop
      vertex 2.44537 0.519779 -8.5
      vertex 11.431 5.05377 -8.5
      vertex 2.4863 0.261321 -8.5
    endloop
  endfacet
  facet normal 0 0 -1
    outer loop
      vertex 0.772542 -2.37764 -8.5
      vertex 3.86271 -11.8882 -8.5
      vertex 2.5989 -12.2268 -8.5
    endloop
  endfacet
  facet normal 0 0 -1
    outer loop
      vertex 2.37764 0.772542 -8.5
      vertex 11.431 5.05377 -8.5
      vertex 2.44537 0.519779 -8.5
    endloop
  endfacet
  facet normal 0 0 -1
    outer loop
      vertex 2.28386 1.01684 -8.5
      vertex 11.431 5.05377 -8.5
      vertex 2.37764 0.772542 -8.5
    endloop
  endfacet
  facet normal 0 0 -1
    outer loop
      vertex 11.431 5.05377 -8.5
      vertex 2.4863 -0.261321 -8.5
      vertex 2.5 0 -8.5
    endloop
  endfacet
  facet normal 0 0 -1
    outer loop
      vertex 11.431 5.05377 -8.5
      vertex 2.44537 -0.519779 -8.5
      vertex 2.4863 -0.261321 -8.5
    endloop
  endfacet
  facet normal 0 0 -1
    outer loop
      vertex 11.431 5.05377 -8.5
      vertex 2.37764 -0.772542 -8.5
      vertex 2.44537 -0.519779 -8.5
    endloop
  endfacet
  facet normal 0 0 -1
    outer loop
      vertex 5.87932 -11.0142 -8.5
      vertex 2.28386 -1.01684 -8.5
      vertex 2.37764 -0.772542 -8.5
    endloop
  endfacet
  facet normal 0 0 -1
    outer loop
      vertex 5.87932 -11.0142 -8.5
      vertex 2.16506 -1.25 -8.5
      vertex 2.28386 -1.01684 -8.5
    endloop
  endfacet
  facet normal 0 0 -1
    outer loop
      vertex 5.87932 -11.0142 -8.5
      vertex 2.02254 -1.46946 -8.5
      vertex 2.16506 -1.25 -8.5
    endloop
  endfacet
  facet normal 0 0 -1
    outer loop
      vertex 5.87932 -11.0142 -8.5
      vertex 1.85786 -1.67283 -8.5
      vertex 2.02254 -1.46946 -8.5
    endloop
  endfacet
  facet normal 0 0 -1
    outer loop
      vertex 5.87932 -11.0142 -8.5
      vertex 1.67283 -1.85786 -8.5
      vertex 1.85786 -1.67283 -8.5
    endloop
  endfacet
  facet normal 0 0 -1
    outer loop
      vertex 5.87932 -11.0142 -8.5
      vertex 1.46946 -2.02254 -8.5
      vertex 1.67283 -1.85786 -8.5
    endloop
  endfacet
  facet normal 0 0 -1
    outer loop
      vertex 0.519779 -2.44537 -8.5
      vertex 2.5989 -12.2268 -8.5
      vertex 1.30661 -12.4315 -8.5
    endloop
  endfacet
  facet normal 0 0 -1
    outer loop
      vertex 5.87932 -11.0142 -8.5
      vertex 1.25 -2.16506 -8.5
      vertex 1.46946 -2.02254 -8.5
    endloop
  endfacet
  facet normal 0 0 -1
    outer loop
      vertex 5.87932 -11.0142 -8.5
      vertex 1.01684 -2.28386 -8.5
      vertex 1.25 -2.16506 -8.5
    endloop
  endfacet
  facet normal 0 0 -1
    outer loop
      vertex 3.86271 -11.8882 -8.5
      vertex 0.772542 -2.37764 -8.5
      vertex 1.01684 -2.28386 -8.5
    endloop
  endfacet
  facet normal 0 0 -1
    outer loop
      vertex 2.5989 -12.2268 -8.5
      vertex 0.519779 -2.44537 -8.5
      vertex 0.772542 -2.37764 -8.5
    endloop
  endfacet
  facet normal 0 0 -1
    outer loop
      vertex 1.30661 -12.4315 -8.5
      vertex 0.261321 -2.4863 -8.5
      vertex 0.519779 -2.44537 -8.5
    endloop
  endfacet
  facet normal 0 0 -1
    outer loop
      vertex 0 -12.5 -8.5
      vertex 0.261321 -2.4863 -8.5
      vertex 1.30661 -12.4315 -8.5
    endloop
  endfacet
  facet normal 0 0 -1
    outer loop
      vertex 0 -12.5 -8.5
      vertex 0 -2.5 -8.5
      vertex 0.261321 -2.4863 -8.5
    endloop
  endfacet
  facet normal 0 0 -1
    outer loop
      vertex 0 -12.5 -8.5
      vertex -0.261321 -2.4863 -8.5
      vertex 0 -2.5 -8.5
    endloop
  endfacet
  facet normal 0 0 -1
    outer loop
      vertex -1.30661 -12.4315 -8.5
      vertex -0.261321 -2.4863 -8.5
      vertex 0 -12.5 -8.5
    endloop
  endfacet
  facet normal -0 0 -1
    outer loop
      vertex -0.261321 -2.4863 -8.5
      vertex -1.30661 -12.4315 -8.5
      vertex -0.519779 -2.44537 -8.5
    endloop
  endfacet
  facet normal 0 0 -1
    outer loop
      vertex -2.5989 -12.2268 -8.5
      vertex -0.519779 -2.44537 -8.5
      vertex -1.30661 -12.4315 -8.5
    endloop
  endfacet
  facet normal -0 0 -1
    outer loop
      vertex -0.519779 -2.44537 -8.5
      vertex -2.5989 -12.2268 -8.5
      vertex -0.772542 -2.37764 -8.5
    endloop
  endfacet
  facet normal 0 0 -1
    outer loop
      vertex -3.86271 -11.8882 -8.5
      vertex -0.772542 -2.37764 -8.5
      vertex -2.5989 -12.2268 -8.5
    endloop
  endfacet
  facet normal -0 0 -1
    outer loop
      vertex -0.772542 -2.37764 -8.5
      vertex -3.86271 -11.8882 -8.5
      vertex -1.01684 -2.28386 -8.5
    endloop
  endfacet
  facet normal 0 0 -1
    outer loop
      vertex -5.08421 -11.4193 -8.5
      vertex -1.01684 -2.28386 -8.5
      vertex -3.86271 -11.8882 -8.5
    endloop
  endfacet
  facet normal -0 0 -1
    outer loop
      vertex -1.01684 -2.28386 -8.5
      vertex -5.08421 -11.4193 -8.5
      vertex -1.25 -2.16506 -8.5
    endloop
  endfacet
  facet normal 0 0 -1
    outer loop
      vertex -6.25 -10.8253 -8.5
      vertex -1.25 -2.16506 -8.5
      vertex -5.08421 -11.4193 -8.5
    endloop
  endfacet
  facet normal -0 0 -1
    outer loop
      vertex -1.25 -2.16506 -8.5
      vertex -6.25 -10.8253 -8.5
      vertex -1.46946 -2.02254 -8.5
    endloop
  endfacet
  facet normal 0 0 -1
    outer loop
      vertex -7.34731 -10.1127 -8.5
      vertex -1.46946 -2.02254 -8.5
      vertex -6.25 -10.8253 -8.5
    endloop
  endfacet
  facet normal -0 0 -1
    outer loop
      vertex -1.46946 -2.02254 -8.5
      vertex -7.34731 -10.1127 -8.5
      vertex -1.67283 -1.85786 -8.5
    endloop
  endfacet
  facet normal 0 0 -1
    outer loop
      vertex -8.36413 -9.28931 -8.5
      vertex -1.67283 -1.85786 -8.5
      vertex -7.34731 -10.1127 -8.5
    endloop
  endfacet
  facet normal -0 0 -1
    outer loop
      vertex -1.67283 -1.85786 -8.5
      vertex -8.36413 -9.28931 -8.5
      vertex -1.85786 -1.67283 -8.5
    endloop
  endfacet
  facet normal -0 0 -1
    outer loop
      vertex -1.85786 -1.67283 -8.5
      vertex -9.28931 -8.36413 -8.5
      vertex -2.02254 -1.46946 -8.5
    endloop
  endfacet
  facet normal 0 0 -1
    outer loop
      vertex -9.28931 -8.36413 -8.5
      vertex -1.85786 -1.67283 -8.5
      vertex -8.36413 -9.28931 -8.5
    endloop
  endfacet
  facet normal 0 0 -1
    outer loop
      vertex 11.4193 5.08421 -8.5
      vertex 2.28386 1.01684 -8.5
      vertex 2.16506 1.25 -8.5
    endloop
  endfacet
  facet normal 0 0 -1
    outer loop
      vertex 10.1127 7.34731 -8.5
      vertex 2.16506 1.25 -8.5
      vertex 2.02254 1.46946 -8.5
    endloop
  endfacet
  facet normal -0 0 -1
    outer loop
      vertex 9.28931 8.36413 -8.5
      vertex 1.85786 1.67283 -8.5
      vertex 8.36413 9.28931 -8.5
    endloop
  endfacet
  facet normal -0 0 -1
    outer loop
      vertex 8.36413 9.28931 -8.5
      vertex 1.67283 1.85786 -8.5
      vertex 7.34731 10.1127 -8.5
    endloop
  endfacet
  facet normal 0 0 -1
    outer loop
      vertex 1.46946 2.02254 -8.5
      vertex 7.34731 10.1127 -8.5
      vertex 1.67283 1.85786 -8.5
    endloop
  endfacet
  facet normal -0 0 -1
    outer loop
      vertex 7.34731 10.1127 -8.5
      vertex 1.46946 2.02254 -8.5
      vertex 6.25 10.8253 -8.5
    endloop
  endfacet
  facet normal 0 0 -1
    outer loop
      vertex 1.25 2.16506 -8.5
      vertex 6.25 10.8253 -8.5
      vertex 1.46946 2.02254 -8.5
    endloop
  endfacet
  facet normal -0 0 -1
    outer loop
      vertex 6.25 10.8253 -8.5
      vertex 1.25 2.16506 -8.5
      vertex 5.08421 11.4193 -8.5
    endloop
  endfacet
  facet normal 0 0 -1
    outer loop
      vertex 1.01684 2.28386 -8.5
      vertex 5.08421 11.4193 -8.5
      vertex 1.25 2.16506 -8.5
    endloop
  endfacet
  facet normal -0 0 -1
    outer loop
      vertex 5.08421 11.4193 -8.5
      vertex 1.01684 2.28386 -8.5
      vertex 3.86271 11.8882 -8.5
    endloop
  endfacet
  facet normal 0 0 -1
    outer loop
      vertex 0.772542 2.37764 -8.5
      vertex 3.86271 11.8882 -8.5
      vertex 1.01684 2.28386 -8.5
    endloop
  endfacet
  facet normal -0 0 -1
    outer loop
      vertex 3.86271 11.8882 -8.5
      vertex 0.772542 2.37764 -8.5
      vertex 2.5989 12.2268 -8.5
    endloop
  endfacet
  facet normal 0 0 -1
    outer loop
      vertex 0.519779 2.44537 -8.5
      vertex 2.5989 12.2268 -8.5
      vertex 0.772542 2.37764 -8.5
    endloop
  endfacet
  facet normal -0 0 -1
    outer loop
      vertex 2.5989 12.2268 -8.5
      vertex 0.519779 2.44537 -8.5
      vertex 1.30661 12.4315 -8.5
    endloop
  endfacet
  facet normal 0 0 -1
    outer loop
      vertex 0.261321 2.4863 -8.5
      vertex 1.30661 12.4315 -8.5
      vertex 0.519779 2.44537 -8.5
    endloop
  endfacet
  facet normal 0 0 -1
    outer loop
      vertex 0 2.5 -8.5
      vertex 1.30661 12.4315 -8.5
      vertex 0.261321 2.4863 -8.5
    endloop
  endfacet
  facet normal 0 0 -1
    outer loop
      vertex 0 2.5 -8.5
      vertex 0 12.5 -8.5
      vertex 1.30661 12.4315 -8.5
    endloop
  endfacet
  facet normal 0 0 -1
    outer loop
      vertex -0.261321 2.4863 -8.5
      vertex 0 12.5 -8.5
      vertex 0 2.5 -8.5
    endloop
  endfacet
  facet normal 0 0 -1
    outer loop
      vertex -1.30661 12.4315 -8.5
      vertex -0.261321 2.4863 -8.5
      vertex -0.519779 2.44537 -8.5
    endloop
  endfacet
  facet normal 0 0 -1
    outer loop
      vertex -2.5989 12.2268 -8.5
      vertex -0.519779 2.44537 -8.5
      vertex -0.772542 2.37764 -8.5
    endloop
  endfacet
  facet normal 0 0 -1
    outer loop
      vertex -3.86271 11.8882 -8.5
      vertex -0.772542 2.37764 -8.5
      vertex -1.01684 2.28386 -8.5
    endloop
  endfacet
  facet normal 0 0 -1
    outer loop
      vertex -5.08421 11.4193 -8.5
      vertex -1.01684 2.28386 -8.5
      vertex -1.25 2.16506 -8.5
    endloop
  endfacet
  facet normal 0 0 -1
    outer loop
      vertex -0.261321 2.4863 -8.5
      vertex -1.30661 12.4315 -8.5
      vertex 0 12.5 -8.5
    endloop
  endfacet
  facet normal 0 0 -1
    outer loop
      vertex -6.25 10.8253 -8.5
      vertex -1.25 2.16506 -8.5
      vertex -1.46946 2.02254 -8.5
    endloop
  endfacet
  facet normal 0 0 -1
    outer loop
      vertex -7.34731 10.1127 -8.5
      vertex -1.46946 2.02254 -8.5
      vertex -1.67283 1.85786 -8.5
    endloop
  endfacet
  facet normal 0 0 -1
    outer loop
      vertex -8.36413 9.28931 -8.5
      vertex -1.67283 1.85786 -8.5
      vertex -1.85786 1.67283 -8.5
    endloop
  endfacet
  facet normal 0 0 -1
    outer loop
      vertex -9.28931 8.36413 -8.5
      vertex -1.85786 1.67283 -8.5
      vertex -2.02254 1.46946 -8.5
    endloop
  endfacet
  facet normal 0 0 -1
    outer loop
      vertex -10.1127 7.34731 -8.5
      vertex -2.02254 1.46946 -8.5
      vertex -2.16506 1.25 -8.5
    endloop
  endfacet
  facet normal 0 0 -1
    outer loop
      vertex -10.8253 6.25 -8.5
      vertex -2.16506 1.25 -8.5
      vertex -2.28386 1.01684 -8.5
    endloop
  endfacet
  facet normal 0 0 -1
    outer loop
      vertex -11.4193 5.08421 -8.5
      vertex -2.28386 1.01684 -8.5
      vertex -2.37764 0.772542 -8.5
    endloop
  endfacet
  facet normal 0 0 -1
    outer loop
      vertex -11.8882 3.86271 -8.5
      vertex -2.37764 0.772542 -8.5
      vertex -2.44537 0.519779 -8.5
    endloop
  endfacet
  facet normal 0 0 -1
    outer loop
      vertex -12.2268 2.5989 -8.5
      vertex -2.44537 0.519779 -8.5
      vertex -2.4863 0.261321 -8.5
    endloop
  endfacet
  facet normal 0 0 -1
    outer loop
      vertex -0.519779 2.44537 -8.5
      vertex -2.5989 12.2268 -8.5
      vertex -1.30661 12.4315 -8.5
    endloop
  endfacet
  facet normal 0 0 -1
    outer loop
      vertex -12.4315 1.30661 -8.5
      vertex -2.4863 0.261321 -8.5
      vertex -2.5 0 -8.5
    endloop
  endfacet
  facet normal 0 0 -1
    outer loop
      vertex -10.1127 -7.34731 -8.5
      vertex -2.02254 -1.46946 -8.5
      vertex -9.28931 -8.36413 -8.5
    endloop
  endfacet
  facet normal -0 0 -1
    outer loop
      vertex -2.02254 -1.46946 -8.5
      vertex -10.1127 -7.34731 -8.5
      vertex -2.16506 -1.25 -8.5
    endloop
  endfacet
  facet normal 0 0 -1
    outer loop
      vertex -0.772542 2.37764 -8.5
      vertex -3.86271 11.8882 -8.5
      vertex -2.5989 12.2268 -8.5
    endloop
  endfacet
  facet normal 0 0 -1
    outer loop
      vertex -10.8253 -6.25 -8.5
      vertex -2.16506 -1.25 -8.5
      vertex -10.1127 -7.34731 -8.5
    endloop
  endfacet
  facet normal 0 0 -1
    outer loop
      vertex -1.01684 2.28386 -8.5
      vertex -5.08421 11.4193 -8.5
      vertex -3.86271 11.8882 -8.5
    endloop
  endfacet
  facet normal 0 0 -1
    outer loop
      vertex -1.25 2.16506 -8.5
      vertex -6.25 10.8253 -8.5
      vertex -5.08421 11.4193 -8.5
    endloop
  endfacet
  facet normal -0 0 -1
    outer loop
      vertex -2.16506 -1.25 -8.5
      vertex -10.8253 -6.25 -8.5
      vertex -2.28386 -1.01684 -8.5
    endloop
  endfacet
  facet normal 0 0 -1
    outer loop
      vertex -11.4193 -5.08421 -8.5
      vertex -2.28386 -1.01684 -8.5
      vertex -10.8253 -6.25 -8.5
    endloop
  endfacet
  facet normal 0 0 -1
    outer loop
      vertex -1.46946 2.02254 -8.5
      vertex -7.34731 10.1127 -8.5
      vertex -6.25 10.8253 -8.5
    endloop
  endfacet
  facet normal -0 0 -1
    outer loop
      vertex -2.28386 -1.01684 -8.5
      vertex -11.4193 -5.08421 -8.5
      vertex -2.37764 -0.772542 -8.5
    endloop
  endfacet
  facet normal 0 0 -1
    outer loop
      vertex -1.67283 1.85786 -8.5
      vertex -8.36413 9.28931 -8.5
      vertex -7.34731 10.1127 -8.5
    endloop
  endfacet
  facet normal 0 0 -1
    outer loop
      vertex -11.8882 -3.86271 -8.5
      vertex -2.37764 -0.772542 -8.5
      vertex -11.4193 -5.08421 -8.5
    endloop
  endfacet
  facet normal 0 0 -1
    outer loop
      vertex -1.85786 1.67283 -8.5
      vertex -9.28931 8.36413 -8.5
      vertex -8.36413 9.28931 -8.5
    endloop
  endfacet
  facet normal -0 0 -1
    outer loop
      vertex -2.37764 -0.772542 -8.5
      vertex -11.8882 -3.86271 -8.5
      vertex -2.44537 -0.519779 -8.5
    endloop
  endfacet
  facet normal 0 0 -1
    outer loop
      vertex -2.02254 1.46946 -8.5
      vertex -10.1127 7.34731 -8.5
      vertex -9.28931 8.36413 -8.5
    endloop
  endfacet
  facet normal 0 0 -1
    outer loop
      vertex -12.2268 -2.5989 -8.5
      vertex -2.44537 -0.519779 -8.5
      vertex -11.8882 -3.86271 -8.5
    endloop
  endfacet
  facet normal 0 0 -1
    outer loop
      vertex -2.16506 1.25 -8.5
      vertex -10.8253 6.25 -8.5
      vertex -10.1127 7.34731 -8.5
    endloop
  endfacet
  facet normal -0 0 -1
    outer loop
      vertex -2.44537 -0.519779 -8.5
      vertex -12.2268 -2.5989 -8.5
      vertex -2.4863 -0.261321 -8.5
    endloop
  endfacet
  facet normal 0 0 -1
    outer loop
      vertex -2.28386 1.01684 -8.5
      vertex -11.4193 5.08421 -8.5
      vertex -10.8253 6.25 -8.5
    endloop
  endfacet
  facet normal 0 0 -1
    outer loop
      vertex -12.4315 -1.30661 -8.5
      vertex -2.4863 -0.261321 -8.5
      vertex -12.2268 -2.5989 -8.5
    endloop
  endfacet
  facet normal 0 0 -1
    outer loop
      vertex -2.37764 0.772542 -8.5
      vertex -11.8882 3.86271 -8.5
      vertex -11.4193 5.08421 -8.5
    endloop
  endfacet
  facet normal -0 0 -1
    outer loop
      vertex -2.4863 -0.261321 -8.5
      vertex -12.4315 -1.30661 -8.5
      vertex -2.5 0 -8.5
    endloop
  endfacet
  facet normal 0 0 -1
    outer loop
      vertex -2.44537 0.519779 -8.5
      vertex -12.2268 2.5989 -8.5
      vertex -11.8882 3.86271 -8.5
    endloop
  endfacet
  facet normal 0 0 -1
    outer loop
      vertex -12.5 0 -8.5
      vertex -2.5 0 -8.5
      vertex -12.4315 -1.30661 -8.5
    endloop
  endfacet
  facet normal 0 0 -1
    outer loop
      vertex -2.4863 0.261321 -8.5
      vertex -12.4315 1.30661 -8.5
      vertex -12.2268 2.5989 -8.5
    endloop
  endfacet
  facet normal 0 0 -1
    outer loop
      vertex -2.5 0 -8.5
      vertex -12.5 0 -8.5
      vertex -12.4315 1.30661 -8.5
    endloop
  endfacet
  facet normal -0.325568 -0.945519 0
    outer loop
      vertex 5.87932 -11.0142 -8.5
      vertex 45.4541 -24.6409 8.5
      vertex 5.87932 -11.0142 8.5
    endloop
  endfacet
  facet normal -0.325568 -0.945519 -0
    outer loop
      vertex 45.4541 -24.6409 8.5
      vertex 5.87932 -11.0142 -8.5
      vertex 45.4541 -24.6409 -8.5
    endloop
  endfacet
  facet normal 0 0 -1
    outer loop
      vertex 49.9144 -11.6873 5.2
      vertex 12.4315 -1.30661 5.2
      vertex 12.5 0 5.2
    endloop
  endfacet
  facet normal 0 0 -1
    outer loop
      vertex 49.9144 -11.6873 5.2
      vertex 12.2268 -2.5989 5.2
      vertex 12.4315 -1.30661 5.2
    endloop
  endfacet
  facet normal 0 0 -1
    outer loop
      vertex 49.9144 -11.6873 5.2
      vertex 11.8882 -3.86271 5.2
      vertex 12.2268 -2.5989 5.2
    endloop
  endfacet
  facet normal 0 0 -1
    outer loop
      vertex 46.5285 -21.5207 5.2
      vertex 11.4193 -5.08421 5.2
      vertex 11.8882 -3.86271 5.2
    endloop
  endfacet
  facet normal 0 0 -1
    outer loop
      vertex 46.5285 -21.5207 5.2
      vertex 10.8253 -6.25 5.2
      vertex 11.4193 -5.08421 5.2
    endloop
  endfacet
  facet normal 0 0 -1
    outer loop
      vertex 46.5285 -21.5207 5.2
      vertex 10.1127 -7.34731 5.2
      vertex 10.8253 -6.25 5.2
    endloop
  endfacet
  facet normal 0 0 -1
    outer loop
      vertex 46.5285 -21.5207 5.2
      vertex 9.28931 -8.36413 5.2
      vertex 10.1127 -7.34731 5.2
    endloop
  endfacet
  facet normal 0 -0 -1
    outer loop
      vertex 9.28931 -8.36413 5.2
      vertex 46.5285 -21.5207 5.2
      vertex 9.04081 -8.61263 5.2
    endloop
  endfacet
  facet normal 0 0 -1
    outer loop
      vertex 11.8882 -3.86271 5.2
      vertex 49.9144 -11.6873 5.2
      vertex 46.5285 -21.5207 5.2
    endloop
  endfacet
  facet normal 0 0 -1
    outer loop
      vertex 49.9144 -11.6873 5.2
      vertex 12.5 0 5.2
      vertex 12.4362 1.2175 5.2
    endloop
  endfacet
  facet normal -0 0 1
    outer loop
      vertex 12.4315 -1.30661 -5.2
      vertex 49.9144 -11.6873 -5.2
      vertex 12.5 0 -5.2
    endloop
  endfacet
  facet normal -0 -0 1
    outer loop
      vertex 12.5 0 -5.2
      vertex 49.9144 -11.6873 -5.2
      vertex 12.4362 1.2175 -5.2
    endloop
  endfacet
  facet normal -0 0 1
    outer loop
      vertex 12.2268 -2.5989 -5.2
      vertex 49.9144 -11.6873 -5.2
      vertex 12.4315 -1.30661 -5.2
    endloop
  endfacet
  facet normal -0 0 1
    outer loop
      vertex 11.8882 -3.86271 -5.2
      vertex 49.9144 -11.6873 -5.2
      vertex 12.2268 -2.5989 -5.2
    endloop
  endfacet
  facet normal 0 0 1
    outer loop
      vertex 49.9144 -11.6873 -5.2
      vertex 11.8882 -3.86271 -5.2
      vertex 46.5285 -21.5207 -5.2
    endloop
  endfacet
  facet normal -0 0 1
    outer loop
      vertex 11.4193 -5.08421 -5.2
      vertex 46.5285 -21.5207 -5.2
      vertex 11.8882 -3.86271 -5.2
    endloop
  endfacet
  facet normal -0 0 1
    outer loop
      vertex 10.8253 -6.25 -5.2
      vertex 46.5285 -21.5207 -5.2
      vertex 11.4193 -5.08421 -5.2
    endloop
  endfacet
  facet normal -0 0 1
    outer loop
      vertex 10.1127 -7.34731 -5.2
      vertex 46.5285 -21.5207 -5.2
      vertex 10.8253 -6.25 -5.2
    endloop
  endfacet
  facet normal -0 0 1
    outer loop
      vertex 9.28931 -8.36413 -5.2
      vertex 46.5285 -21.5207 -5.2
      vertex 10.1127 -7.34731 -5.2
    endloop
  endfacet
  facet normal 0 0 1
    outer loop
      vertex 46.5285 -21.5207 -5.2
      vertex 9.28931 -8.36413 -5.2
      vertex 9.04081 -8.61263 -5.2
    endloop
  endfacet
  facet normal 0.325568 0.945519 -0
    outer loop
      vertex 46.5285 -21.5207 -5.2
      vertex 9.04081 -8.61263 5.2
      vertex 46.5285 -21.5207 5.2
    endloop
  endfacet
  facet normal 0.325568 0.945519 0
    outer loop
      vertex 9.04081 -8.61263 5.2
      vertex 46.5285 -21.5207 -5.2
      vertex 9.04081 -8.61263 -5.2
    endloop
  endfacet
  facet normal -0.325568 -0.945519 0
    outer loop
      vertex 12.4362 1.2175 -5.2
      vertex 49.9144 -11.6873 5.2
      vertex 12.4362 1.2175 5.2
    endloop
  endfacet
  facet normal -0.325568 -0.945519 -0
    outer loop
      vertex 49.9144 -11.6873 5.2
      vertex 12.4362 1.2175 -5.2
      vertex 49.9144 -11.6873 -5.2
    endloop
  endfacet
  facet normal 0.99863 0.0523363 0
    outer loop
      vertex 12.5 0 11.5
      vertex 12.4315 1.30661 8.5
      vertex 12.4315 1.30661 11.5
    endloop
  endfacet
  facet normal 0.99863 0.0523363 0
    outer loop
      vertex 12.4315 1.30661 8.5
      vertex 12.5 0 11.5
      vertex 12.5 0 8.5
    endloop
  endfacet
  facet normal 0.99863 0.0523359 0
    outer loop
      vertex 12.5 0 5.2
      vertex 12.4362 1.2175 -5.2
      vertex 12.4362 1.2175 5.2
    endloop
  endfacet
  facet normal 0.99863 0.0523359 0
    outer loop
      vertex 12.4362 1.2175 -5.2
      vertex 12.5 0 5.2
      vertex 12.5 0 -5.2
    endloop
  endfacet
  facet normal -0.99863 0.0523363 0
    outer loop
      vertex -12.5 0 -8.5
      vertex -12.4315 1.30661 11.5
      vertex -12.4315 1.30661 -8.5
    endloop
  endfacet
  facet normal -0.99863 0.0523363 0
    outer loop
      vertex -12.4315 1.30661 11.5
      vertex -12.5 0 -8.5
      vertex -12.5 0 11.5
    endloop
  endfacet
  facet normal 0.0523363 0.99863 -0
    outer loop
      vertex 1.30661 12.4315 -8.5
      vertex 0 12.5 11.5
      vertex 1.30661 12.4315 11.5
    endloop
  endfacet
  facet normal 0.0523363 0.99863 0
    outer loop
      vertex 0 12.5 11.5
      vertex 1.30661 12.4315 -8.5
      vertex 0 12.5 -8.5
    endloop
  endfacet
  facet normal 0.707107 0.707107 0
    outer loop
      vertex 9.28931 8.36413 11.5
      vertex 8.36413 9.28931 -8.5
      vertex 8.36413 9.28931 11.5
    endloop
  endfacet
  facet normal 0.707107 0.707107 0
    outer loop
      vertex 8.36413 9.28931 -8.5
      vertex 9.28931 8.36413 11.5
      vertex 9.28931 8.36413 -8.5
    endloop
  endfacet
  facet normal -0.62932 0.777146 0
    outer loop
      vertex -7.34731 10.1127 -8.5
      vertex -8.36413 9.28931 11.5
      vertex -7.34731 10.1127 11.5
    endloop
  endfacet
  facet normal -0.62932 0.777146 0
    outer loop
      vertex -8.36413 9.28931 11.5
      vertex -7.34731 10.1127 -8.5
      vertex -8.36413 9.28931 -8.5
    endloop
  endfacet
  facet normal -0.358367 0.933581 0
    outer loop
      vertex -3.86271 11.8882 -8.5
      vertex -5.08421 11.4193 11.5
      vertex -3.86271 11.8882 11.5
    endloop
  endfacet
  facet normal -0.358367 0.933581 0
    outer loop
      vertex -5.08421 11.4193 11.5
      vertex -3.86271 11.8882 -8.5
      vertex -5.08421 11.4193 -8.5
    endloop
  endfacet
  facet normal -0.965926 -0.25882 0
    outer loop
      vertex -11.8882 -3.86271 -8.5
      vertex -12.2268 -2.5989 11.5
      vertex -12.2268 -2.5989 -8.5
    endloop
  endfacet
  facet normal -0.965926 -0.25882 0
    outer loop
      vertex -12.2268 -2.5989 11.5
      vertex -11.8882 -3.86271 -8.5
      vertex -11.8882 -3.86271 11.5
    endloop
  endfacet
  facet normal 0.933582 0.358365 0
    outer loop
      vertex 11.4193 5.08421 11.5
      vertex 11.431 5.05377 8.5
      vertex 11.4193 5.08421 -8.5
    endloop
  endfacet
  facet normal 0.933581 0.358367 -3.20842e-008
    outer loop
      vertex 11.8882 3.86271 11.5
      vertex 11.431 5.05377 8.5
      vertex 11.4193 5.08421 11.5
    endloop
  endfacet
  facet normal 0.933581 0.358367 0
    outer loop
      vertex 11.431 5.05377 8.5
      vertex 11.8882 3.86271 11.5
      vertex 11.8882 3.86271 8.5
    endloop
  endfacet
  facet normal 0.933582 0.358365 0
    outer loop
      vertex 11.4193 5.08421 -8.5
      vertex 11.431 5.05377 8.5
      vertex 11.431 5.05377 -8.5
    endloop
  endfacet
  facet normal 0.987688 0.156434 0
    outer loop
      vertex 12.4315 1.30661 11.5
      vertex 12.2268 2.5989 8.5
      vertex 12.2268 2.5989 11.5
    endloop
  endfacet
  facet normal 0.987688 0.156434 0
    outer loop
      vertex 12.2268 2.5989 8.5
      vertex 12.4315 1.30661 11.5
      vertex 12.4315 1.30661 8.5
    endloop
  endfacet
  facet normal 0.45399 0.891007 -0
    outer loop
      vertex 6.25 10.8253 -8.5
      vertex 5.08421 11.4193 11.5
      vertex 6.25 10.8253 11.5
    endloop
  endfacet
  facet normal 0.45399 0.891007 0
    outer loop
      vertex 5.08421 11.4193 11.5
      vertex 6.25 10.8253 -8.5
      vertex 5.08421 11.4193 -8.5
    endloop
  endfacet
  facet normal 0.54464 0.83867 -0
    outer loop
      vertex 7.34731 10.1127 -8.5
      vertex 6.25 10.8253 11.5
      vertex 7.34731 10.1127 11.5
    endloop
  endfacet
  facet normal 0.54464 0.83867 0
    outer loop
      vertex 6.25 10.8253 11.5
      vertex 7.34731 10.1127 -8.5
      vertex 6.25 10.8253 -8.5
    endloop
  endfacet
  facet normal -0.83867 0.544639 0
    outer loop
      vertex -10.8253 6.25 -8.5
      vertex -10.1127 7.34731 11.5
      vertex -10.1127 7.34731 -8.5
    endloop
  endfacet
  facet normal -0.83867 0.544639 0
    outer loop
      vertex -10.1127 7.34731 11.5
      vertex -10.8253 6.25 -8.5
      vertex -10.8253 6.25 11.5
    endloop
  endfacet
  facet normal -0.777146 0.62932 0
    outer loop
      vertex -10.1127 7.34731 -8.5
      vertex -9.28931 8.36413 11.5
      vertex -9.28931 8.36413 -8.5
    endloop
  endfacet
  facet normal -0.777146 0.62932 0
    outer loop
      vertex -9.28931 8.36413 11.5
      vertex -10.1127 7.34731 -8.5
      vertex -10.1127 7.34731 11.5
    endloop
  endfacet
  facet normal -0.544639 0.83867 0
    outer loop
      vertex -6.25 10.8253 -8.5
      vertex -7.34731 10.1127 11.5
      vertex -6.25 10.8253 11.5
    endloop
  endfacet
  facet normal -0.544639 0.83867 0
    outer loop
      vertex -7.34731 10.1127 11.5
      vertex -6.25 10.8253 -8.5
      vertex -7.34731 10.1127 -8.5
    endloop
  endfacet
  facet normal -0.156434 0.987688 0
    outer loop
      vertex -1.30661 12.4315 -8.5
      vertex -2.5989 12.2268 11.5
      vertex -1.30661 12.4315 11.5
    endloop
  endfacet
  facet normal -0.156434 0.987688 0
    outer loop
      vertex -2.5989 12.2268 11.5
      vertex -1.30661 12.4315 -8.5
      vertex -2.5989 12.2268 -8.5
    endloop
  endfacet
  facet normal 0.891006 -0.453991 0
    outer loop
      vertex 10.8253 -6.25 11.5
      vertex 11.4193 -5.08421 8.5
      vertex 11.4193 -5.08421 11.5
    endloop
  endfacet
  facet normal 0.891006 -0.453991 0
    outer loop
      vertex 11.4193 -5.08421 8.5
      vertex 10.8253 -6.25 11.5
      vertex 10.8253 -6.25 8.5
    endloop
  endfacet
  facet normal 0.891006 -0.453991 0
    outer loop
      vertex 10.8253 -6.25 5.2
      vertex 11.4193 -5.08421 -5.2
      vertex 11.4193 -5.08421 5.2
    endloop
  endfacet
  facet normal 0.891006 -0.453991 0
    outer loop
      vertex 11.4193 -5.08421 -5.2
      vertex 10.8253 -6.25 5.2
      vertex 10.8253 -6.25 -5.2
    endloop
  endfacet
  facet normal 0.25882 -0.965926 0
    outer loop
      vertex 2.5989 -12.2268 -8.5
      vertex 3.86271 -11.8882 11.5
      vertex 2.5989 -12.2268 11.5
    endloop
  endfacet
  facet normal 0.25882 -0.965926 0
    outer loop
      vertex 3.86271 -11.8882 11.5
      vertex 2.5989 -12.2268 -8.5
      vertex 3.86271 -11.8882 -8.5
    endloop
  endfacet
  facet normal 0.707107 -0.707107 0
    outer loop
      vertex 8.36413 -9.28931 11.5
      vertex 9.28931 -8.36413 8.5
      vertex 9.28931 -8.36413 11.5
    endloop
  endfacet
  facet normal 0.707107 -0.707107 0
    outer loop
      vertex 9.28931 -8.36413 8.5
      vertex 8.36413 -9.28931 11.5
      vertex 8.36413 -9.28931 8.5
    endloop
  endfacet
  facet normal 0.707107 -0.707107 0
    outer loop
      vertex 9.04081 -8.61263 5.2
      vertex 9.28931 -8.36413 -5.2
      vertex 9.28931 -8.36413 5.2
    endloop
  endfacet
  facet normal 0.707107 -0.707107 0
    outer loop
      vertex 9.28931 -8.36413 -5.2
      vertex 9.04081 -8.61263 5.2
      vertex 9.04081 -8.61263 -5.2
    endloop
  endfacet
  facet normal 0.965926 -0.25882 0
    outer loop
      vertex 11.8882 -3.86271 11.5
      vertex 12.2268 -2.5989 8.5
      vertex 12.2268 -2.5989 11.5
    endloop
  endfacet
  facet normal 0.965926 -0.25882 0
    outer loop
      vertex 12.2268 -2.5989 8.5
      vertex 11.8882 -3.86271 11.5
      vertex 11.8882 -3.86271 8.5
    endloop
  endfacet
  facet normal 0.965926 -0.25882 0
    outer loop
      vertex 11.8882 -3.86271 5.2
      vertex 12.2268 -2.5989 -5.2
      vertex 12.2268 -2.5989 5.2
    endloop
  endfacet
  facet normal 0.965926 -0.25882 0
    outer loop
      vertex 12.2268 -2.5989 -5.2
      vertex 11.8882 -3.86271 5.2
      vertex 11.8882 -3.86271 -5.2
    endloop
  endfacet
  facet normal -0.358367 -0.933581 0
    outer loop
      vertex -5.08421 -11.4193 -8.5
      vertex -3.86271 -11.8882 11.5
      vertex -5.08421 -11.4193 11.5
    endloop
  endfacet
  facet normal -0.358367 -0.933581 -0
    outer loop
      vertex -3.86271 -11.8882 11.5
      vertex -5.08421 -11.4193 -8.5
      vertex -3.86271 -11.8882 -8.5
    endloop
  endfacet
  facet normal -0.777146 -0.62932 0
    outer loop
      vertex -9.28931 -8.36413 -8.5
      vertex -10.1127 -7.34731 11.5
      vertex -10.1127 -7.34731 -8.5
    endloop
  endfacet
  facet normal -0.777146 -0.62932 0
    outer loop
      vertex -10.1127 -7.34731 11.5
      vertex -9.28931 -8.36413 -8.5
      vertex -9.28931 -8.36413 11.5
    endloop
  endfacet
  facet normal 0.965926 0.25882 0
    outer loop
      vertex 12.2268 2.5989 11.5
      vertex 11.8882 3.86271 8.5
      vertex 11.8882 3.86271 11.5
    endloop
  endfacet
  facet normal 0.965926 0.25882 0
    outer loop
      vertex 11.8882 3.86271 8.5
      vertex 12.2268 2.5989 11.5
      vertex 12.2268 2.5989 8.5
    endloop
  endfacet
  facet normal 0.83867 0.544639 0
    outer loop
      vertex 10.8253 6.25 11.5
      vertex 10.1127 7.34731 -8.5
      vertex 10.1127 7.34731 11.5
    endloop
  endfacet
  facet normal 0.83867 0.544639 0
    outer loop
      vertex 10.1127 7.34731 -8.5
      vertex 10.8253 6.25 11.5
      vertex 10.8253 6.25 -8.5
    endloop
  endfacet
  facet normal 0.891006 0.453991 0
    outer loop
      vertex 11.4193 5.08421 11.5
      vertex 10.8253 6.25 -8.5
      vertex 10.8253 6.25 11.5
    endloop
  endfacet
  facet normal 0.891006 0.453991 0
    outer loop
      vertex 10.8253 6.25 -8.5
      vertex 11.4193 5.08421 11.5
      vertex 11.4193 5.08421 -8.5
    endloop
  endfacet
  facet normal 0.25882 0.965926 -0
    outer loop
      vertex 3.86271 11.8882 -8.5
      vertex 2.5989 12.2268 11.5
      vertex 3.86271 11.8882 11.5
    endloop
  endfacet
  facet normal 0.25882 0.965926 0
    outer loop
      vertex 2.5989 12.2268 11.5
      vertex 3.86271 11.8882 -8.5
      vertex 2.5989 12.2268 -8.5
    endloop
  endfacet
  facet normal 0.358367 0.933581 -0
    outer loop
      vertex 5.08421 11.4193 -8.5
      vertex 3.86271 11.8882 11.5
      vertex 5.08421 11.4193 11.5
    endloop
  endfacet
  facet normal 0.358367 0.933581 0
    outer loop
      vertex 3.86271 11.8882 11.5
      vertex 5.08421 11.4193 -8.5
      vertex 3.86271 11.8882 -8.5
    endloop
  endfacet
  facet normal 0.156434 0.987688 -0
    outer loop
      vertex 2.5989 12.2268 -8.5
      vertex 1.30661 12.4315 11.5
      vertex 2.5989 12.2268 11.5
    endloop
  endfacet
  facet normal 0.156434 0.987688 0
    outer loop
      vertex 1.30661 12.4315 11.5
      vertex 2.5989 12.2268 -8.5
      vertex 1.30661 12.4315 -8.5
    endloop
  endfacet
  facet normal 0.62932 0.777146 -0
    outer loop
      vertex 8.36413 9.28931 -8.5
      vertex 7.34731 10.1127 11.5
      vertex 8.36413 9.28931 11.5
    endloop
  endfacet
  facet normal 0.62932 0.777146 0
    outer loop
      vertex 7.34731 10.1127 11.5
      vertex 8.36413 9.28931 -8.5
      vertex 7.34731 10.1127 -8.5
    endloop
  endfacet
  facet normal -0.965926 0.25882 0
    outer loop
      vertex -12.2268 2.5989 -8.5
      vertex -11.8882 3.86271 11.5
      vertex -11.8882 3.86271 -8.5
    endloop
  endfacet
  facet normal -0.965926 0.25882 0
    outer loop
      vertex -11.8882 3.86271 11.5
      vertex -12.2268 2.5989 -8.5
      vertex -12.2268 2.5989 11.5
    endloop
  endfacet
  facet normal -0.891006 0.453991 0
    outer loop
      vertex -11.4193 5.08421 -8.5
      vertex -10.8253 6.25 11.5
      vertex -10.8253 6.25 -8.5
    endloop
  endfacet
  facet normal -0.891006 0.453991 0
    outer loop
      vertex -10.8253 6.25 11.5
      vertex -11.4193 5.08421 -8.5
      vertex -11.4193 5.08421 11.5
    endloop
  endfacet
  facet normal -0.933581 0.358367 0
    outer loop
      vertex -11.8882 3.86271 -8.5
      vertex -11.4193 5.08421 11.5
      vertex -11.4193 5.08421 -8.5
    endloop
  endfacet
  facet normal -0.933581 0.358367 0
    outer loop
      vertex -11.4193 5.08421 11.5
      vertex -11.8882 3.86271 -8.5
      vertex -11.8882 3.86271 11.5
    endloop
  endfacet
  facet normal -0.987688 0.156434 0
    outer loop
      vertex -12.4315 1.30661 -8.5
      vertex -12.2268 2.5989 11.5
      vertex -12.2268 2.5989 -8.5
    endloop
  endfacet
  facet normal -0.987688 0.156434 0
    outer loop
      vertex -12.2268 2.5989 11.5
      vertex -12.4315 1.30661 -8.5
      vertex -12.4315 1.30661 11.5
    endloop
  endfacet
  facet normal 0 0 1
    outer loop
      vertex 2.5 0 11.5
      vertex 12.5 0 11.5
      vertex 12.4315 1.30661 11.5
    endloop
  endfacet
  facet normal 0 0 1
    outer loop
      vertex 2.4863 0.261321 11.5
      vertex 12.4315 1.30661 11.5
      vertex 12.2268 2.5989 11.5
    endloop
  endfacet
  facet normal 0 0 1
    outer loop
      vertex 12.5 0 11.5
      vertex 2.5 0 11.5
      vertex 12.4315 -1.30661 11.5
    endloop
  endfacet
  facet normal 0 0 1
    outer loop
      vertex 2.44537 0.519779 11.5
      vertex 12.2268 2.5989 11.5
      vertex 11.8882 3.86271 11.5
    endloop
  endfacet
  facet normal -0 0 1
    outer loop
      vertex 2.4863 -0.261321 11.5
      vertex 12.4315 -1.30661 11.5
      vertex 2.5 0 11.5
    endloop
  endfacet
  facet normal 0 0 1
    outer loop
      vertex 2.37764 0.772542 11.5
      vertex 11.8882 3.86271 11.5
      vertex 11.4193 5.08421 11.5
    endloop
  endfacet
  facet normal 0 0 1
    outer loop
      vertex 12.4315 -1.30661 11.5
      vertex 2.4863 -0.261321 11.5
      vertex 12.2268 -2.5989 11.5
    endloop
  endfacet
  facet normal 0 0 1
    outer loop
      vertex 2.28386 1.01684 11.5
      vertex 11.4193 5.08421 11.5
      vertex 10.8253 6.25 11.5
    endloop
  endfacet
  facet normal -0 0 1
    outer loop
      vertex 2.44537 -0.519779 11.5
      vertex 12.2268 -2.5989 11.5
      vertex 2.4863 -0.261321 11.5
    endloop
  endfacet
  facet normal 0 0 1
    outer loop
      vertex 2.16506 1.25 11.5
      vertex 10.8253 6.25 11.5
      vertex 10.1127 7.34731 11.5
    endloop
  endfacet
  facet normal 0 0 1
    outer loop
      vertex 12.2268 -2.5989 11.5
      vertex 2.44537 -0.519779 11.5
      vertex 11.8882 -3.86271 11.5
    endloop
  endfacet
  facet normal 0 0 1
    outer loop
      vertex 2.02254 1.46946 11.5
      vertex 10.1127 7.34731 11.5
      vertex 9.28931 8.36413 11.5
    endloop
  endfacet
  facet normal -0 0 1
    outer loop
      vertex 2.37764 -0.772542 11.5
      vertex 11.8882 -3.86271 11.5
      vertex 2.44537 -0.519779 11.5
    endloop
  endfacet
  facet normal 0 0 1
    outer loop
      vertex 1.85786 1.67283 11.5
      vertex 9.28931 8.36413 11.5
      vertex 8.36413 9.28931 11.5
    endloop
  endfacet
  facet normal 0 0 1
    outer loop
      vertex 11.8882 -3.86271 11.5
      vertex 2.37764 -0.772542 11.5
      vertex 11.4193 -5.08421 11.5
    endloop
  endfacet
  facet normal 0 0 1
    outer loop
      vertex 1.67283 1.85786 11.5
      vertex 8.36413 9.28931 11.5
      vertex 7.34731 10.1127 11.5
    endloop
  endfacet
  facet normal -0 0 1
    outer loop
      vertex 2.28386 -1.01684 11.5
      vertex 11.4193 -5.08421 11.5
      vertex 2.37764 -0.772542 11.5
    endloop
  endfacet
  facet normal 0 0 1
    outer loop
      vertex 1.46946 2.02254 11.5
      vertex 7.34731 10.1127 11.5
      vertex 6.25 10.8253 11.5
    endloop
  endfacet
  facet normal 0 0 1
    outer loop
      vertex 11.4193 -5.08421 11.5
      vertex 2.28386 -1.01684 11.5
      vertex 10.8253 -6.25 11.5
    endloop
  endfacet
  facet normal 0 0 1
    outer loop
      vertex 1.25 2.16506 11.5
      vertex 6.25 10.8253 11.5
      vertex 5.08421 11.4193 11.5
    endloop
  endfacet
  facet normal -0 0 1
    outer loop
      vertex 2.16506 -1.25 11.5
      vertex 10.8253 -6.25 11.5
      vertex 2.28386 -1.01684 11.5
    endloop
  endfacet
  facet normal 0 0 1
    outer loop
      vertex 1.01684 2.28386 11.5
      vertex 5.08421 11.4193 11.5
      vertex 3.86271 11.8882 11.5
    endloop
  endfacet
  facet normal 0 0 1
    outer loop
      vertex 10.8253 -6.25 11.5
      vertex 2.16506 -1.25 11.5
      vertex 10.1127 -7.34731 11.5
    endloop
  endfacet
  facet normal 0 0 1
    outer loop
      vertex 0.772542 2.37764 11.5
      vertex 3.86271 11.8882 11.5
      vertex 2.5989 12.2268 11.5
    endloop
  endfacet
  facet normal -0 0 1
    outer loop
      vertex 2.02254 -1.46946 11.5
      vertex 10.1127 -7.34731 11.5
      vertex 2.16506 -1.25 11.5
    endloop
  endfacet
  facet normal 0 0 1
    outer loop
      vertex 10.1127 -7.34731 11.5
      vertex 2.02254 -1.46946 11.5
      vertex 9.28931 -8.36413 11.5
    endloop
  endfacet
  facet normal 0 0 1
    outer loop
      vertex 12.4315 1.30661 11.5
      vertex 2.4863 0.261321 11.5
      vertex 2.5 0 11.5
    endloop
  endfacet
  facet normal 0 0 1
    outer loop
      vertex 12.2268 2.5989 11.5
      vertex 2.44537 0.519779 11.5
      vertex 2.4863 0.261321 11.5
    endloop
  endfacet
  facet normal 0 0 1
    outer loop
      vertex 11.8882 3.86271 11.5
      vertex 2.37764 0.772542 11.5
      vertex 2.44537 0.519779 11.5
    endloop
  endfacet
  facet normal 0 0 1
    outer loop
      vertex 11.4193 5.08421 11.5
      vertex 2.28386 1.01684 11.5
      vertex 2.37764 0.772542 11.5
    endloop
  endfacet
  facet normal 0 0 1
    outer loop
      vertex 10.8253 6.25 11.5
      vertex 2.16506 1.25 11.5
      vertex 2.28386 1.01684 11.5
    endloop
  endfacet
  facet normal 0 0 1
    outer loop
      vertex 10.1127 7.34731 11.5
      vertex 2.02254 1.46946 11.5
      vertex 2.16506 1.25 11.5
    endloop
  endfacet
  facet normal 0 0 1
    outer loop
      vertex 9.28931 8.36413 11.5
      vertex 1.85786 1.67283 11.5
      vertex 2.02254 1.46946 11.5
    endloop
  endfacet
  facet normal 0 0 1
    outer loop
      vertex 8.36413 9.28931 11.5
      vertex 1.67283 1.85786 11.5
      vertex 1.85786 1.67283 11.5
    endloop
  endfacet
  facet normal 0 0 1
    outer loop
      vertex 7.34731 10.1127 11.5
      vertex 1.46946 2.02254 11.5
      vertex 1.67283 1.85786 11.5
    endloop
  endfacet
  facet normal 0 0 1
    outer loop
      vertex 0.519779 2.44537 11.5
      vertex 2.5989 12.2268 11.5
      vertex 1.30661 12.4315 11.5
    endloop
  endfacet
  facet normal 0 0 1
    outer loop
      vertex 6.25 10.8253 11.5
      vertex 1.25 2.16506 11.5
      vertex 1.46946 2.02254 11.5
    endloop
  endfacet
  facet normal 0 0 1
    outer loop
      vertex 5.08421 11.4193 11.5
      vertex 1.01684 2.28386 11.5
      vertex 1.25 2.16506 11.5
    endloop
  endfacet
  facet normal 0 0 1
    outer loop
      vertex 3.86271 11.8882 11.5
      vertex 0.772542 2.37764 11.5
      vertex 1.01684 2.28386 11.5
    endloop
  endfacet
  facet normal 0 0 1
    outer loop
      vertex 2.5989 12.2268 11.5
      vertex 0.519779 2.44537 11.5
      vertex 0.772542 2.37764 11.5
    endloop
  endfacet
  facet normal 0 0 1
    outer loop
      vertex 1.30661 12.4315 11.5
      vertex 0.261321 2.4863 11.5
      vertex 0.519779 2.44537 11.5
    endloop
  endfacet
  facet normal 0 0 1
    outer loop
      vertex 0 12.5 11.5
      vertex 0.261321 2.4863 11.5
      vertex 1.30661 12.4315 11.5
    endloop
  endfacet
  facet normal 0 0 1
    outer loop
      vertex 0 12.5 11.5
      vertex 0 2.5 11.5
      vertex 0.261321 2.4863 11.5
    endloop
  endfacet
  facet normal 0 0 1
    outer loop
      vertex 0 12.5 11.5
      vertex -0.261321 2.4863 11.5
      vertex 0 2.5 11.5
    endloop
  endfacet
  facet normal -0 0 1
    outer loop
      vertex -1.30661 12.4315 11.5
      vertex -0.261321 2.4863 11.5
      vertex 0 12.5 11.5
    endloop
  endfacet
  facet normal 0 0 1
    outer loop
      vertex -0.261321 2.4863 11.5
      vertex -1.30661 12.4315 11.5
      vertex -0.519779 2.44537 11.5
    endloop
  endfacet
  facet normal -0 0 1
    outer loop
      vertex -2.5989 12.2268 11.5
      vertex -0.519779 2.44537 11.5
      vertex -1.30661 12.4315 11.5
    endloop
  endfacet
  facet normal 0 0 1
    outer loop
      vertex -0.519779 2.44537 11.5
      vertex -2.5989 12.2268 11.5
      vertex -0.772542 2.37764 11.5
    endloop
  endfacet
  facet normal -0 0 1
    outer loop
      vertex -3.86271 11.8882 11.5
      vertex -0.772542 2.37764 11.5
      vertex -2.5989 12.2268 11.5
    endloop
  endfacet
  facet normal 0 0 1
    outer loop
      vertex -0.772542 2.37764 11.5
      vertex -3.86271 11.8882 11.5
      vertex -1.01684 2.28386 11.5
    endloop
  endfacet
  facet normal -0 0 1
    outer loop
      vertex -5.08421 11.4193 11.5
      vertex -1.01684 2.28386 11.5
      vertex -3.86271 11.8882 11.5
    endloop
  endfacet
  facet normal 0 0 1
    outer loop
      vertex -1.01684 2.28386 11.5
      vertex -5.08421 11.4193 11.5
      vertex -1.25 2.16506 11.5
    endloop
  endfacet
  facet normal -0 0 1
    outer loop
      vertex -6.25 10.8253 11.5
      vertex -1.25 2.16506 11.5
      vertex -5.08421 11.4193 11.5
    endloop
  endfacet
  facet normal 0 0 1
    outer loop
      vertex -1.25 2.16506 11.5
      vertex -6.25 10.8253 11.5
      vertex -1.46946 2.02254 11.5
    endloop
  endfacet
  facet normal -0 0 1
    outer loop
      vertex -7.34731 10.1127 11.5
      vertex -1.46946 2.02254 11.5
      vertex -6.25 10.8253 11.5
    endloop
  endfacet
  facet normal 0 0 1
    outer loop
      vertex -1.46946 2.02254 11.5
      vertex -7.34731 10.1127 11.5
      vertex -1.67283 1.85786 11.5
    endloop
  endfacet
  facet normal -0 0 1
    outer loop
      vertex -8.36413 9.28931 11.5
      vertex -1.67283 1.85786 11.5
      vertex -7.34731 10.1127 11.5
    endloop
  endfacet
  facet normal 0 0 1
    outer loop
      vertex -1.67283 1.85786 11.5
      vertex -8.36413 9.28931 11.5
      vertex -1.85786 1.67283 11.5
    endloop
  endfacet
  facet normal 0 0 1
    outer loop
      vertex -1.85786 1.67283 11.5
      vertex -9.28931 8.36413 11.5
      vertex -2.02254 1.46946 11.5
    endloop
  endfacet
  facet normal -0 0 1
    outer loop
      vertex -9.28931 8.36413 11.5
      vertex -1.85786 1.67283 11.5
      vertex -8.36413 9.28931 11.5
    endloop
  endfacet
  facet normal -0 0 1
    outer loop
      vertex 1.85786 -1.67283 11.5
      vertex 9.28931 -8.36413 11.5
      vertex 2.02254 -1.46946 11.5
    endloop
  endfacet
  facet normal 0 0 1
    outer loop
      vertex 9.28931 -8.36413 11.5
      vertex 1.85786 -1.67283 11.5
      vertex 8.36413 -9.28931 11.5
    endloop
  endfacet
  facet normal -0 0 1
    outer loop
      vertex 1.67283 -1.85786 11.5
      vertex 8.36413 -9.28931 11.5
      vertex 1.85786 -1.67283 11.5
    endloop
  endfacet
  facet normal 0 0 1
    outer loop
      vertex 8.36413 -9.28931 11.5
      vertex 1.67283 -1.85786 11.5
      vertex 7.34731 -10.1127 11.5
    endloop
  endfacet
  facet normal -0 0 1
    outer loop
      vertex 1.46946 -2.02254 11.5
      vertex 7.34731 -10.1127 11.5
      vertex 1.67283 -1.85786 11.5
    endloop
  endfacet
  facet normal 0 0 1
    outer loop
      vertex 7.34731 -10.1127 11.5
      vertex 1.46946 -2.02254 11.5
      vertex 6.25 -10.8253 11.5
    endloop
  endfacet
  facet normal -0 0 1
    outer loop
      vertex 1.25 -2.16506 11.5
      vertex 6.25 -10.8253 11.5
      vertex 1.46946 -2.02254 11.5
    endloop
  endfacet
  facet normal 0 0 1
    outer loop
      vertex 6.25 -10.8253 11.5
      vertex 1.25 -2.16506 11.5
      vertex 5.08421 -11.4193 11.5
    endloop
  endfacet
  facet normal -0 0 1
    outer loop
      vertex 1.01684 -2.28386 11.5
      vertex 5.08421 -11.4193 11.5
      vertex 1.25 -2.16506 11.5
    endloop
  endfacet
  facet normal 0 0 1
    outer loop
      vertex 5.08421 -11.4193 11.5
      vertex 1.01684 -2.28386 11.5
      vertex 3.86271 -11.8882 11.5
    endloop
  endfacet
  facet normal -0 0 1
    outer loop
      vertex 0.772542 -2.37764 11.5
      vertex 3.86271 -11.8882 11.5
      vertex 1.01684 -2.28386 11.5
    endloop
  endfacet
  facet normal 0 0 1
    outer loop
      vertex 3.86271 -11.8882 11.5
      vertex 0.772542 -2.37764 11.5
      vertex 2.5989 -12.2268 11.5
    endloop
  endfacet
  facet normal -0 0 1
    outer loop
      vertex 0.519779 -2.44537 11.5
      vertex 2.5989 -12.2268 11.5
      vertex 0.772542 -2.37764 11.5
    endloop
  endfacet
  facet normal 0 0 1
    outer loop
      vertex 2.5989 -12.2268 11.5
      vertex 0.519779 -2.44537 11.5
      vertex 1.30661 -12.4315 11.5
    endloop
  endfacet
  facet normal -0 0 1
    outer loop
      vertex 0.261321 -2.4863 11.5
      vertex 1.30661 -12.4315 11.5
      vertex 0.519779 -2.44537 11.5
    endloop
  endfacet
  facet normal -0 0 1
    outer loop
      vertex 0 -2.5 11.5
      vertex 1.30661 -12.4315 11.5
      vertex 0.261321 -2.4863 11.5
    endloop
  endfacet
  facet normal 0 0 1
    outer loop
      vertex 0 -2.5 11.5
      vertex 0 -12.5 11.5
      vertex 1.30661 -12.4315 11.5
    endloop
  endfacet
  facet normal 0 0 1
    outer loop
      vertex -0.261321 -2.4863 11.5
      vertex 0 -12.5 11.5
      vertex 0 -2.5 11.5
    endloop
  endfacet
  facet normal 0 0 1
    outer loop
      vertex -1.30661 -12.4315 11.5
      vertex -0.261321 -2.4863 11.5
      vertex -0.519779 -2.44537 11.5
    endloop
  endfacet
  facet normal 0 0 1
    outer loop
      vertex -2.5989 -12.2268 11.5
      vertex -0.519779 -2.44537 11.5
      vertex -0.772542 -2.37764 11.5
    endloop
  endfacet
  facet normal 0 0 1
    outer loop
      vertex -3.86271 -11.8882 11.5
      vertex -0.772542 -2.37764 11.5
      vertex -1.01684 -2.28386 11.5
    endloop
  endfacet
  facet normal 0 0 1
    outer loop
      vertex -5.08421 -11.4193 11.5
      vertex -1.01684 -2.28386 11.5
      vertex -1.25 -2.16506 11.5
    endloop
  endfacet
  facet normal 0 0 1
    outer loop
      vertex -0.261321 -2.4863 11.5
      vertex -1.30661 -12.4315 11.5
      vertex 0 -12.5 11.5
    endloop
  endfacet
  facet normal 0 0 1
    outer loop
      vertex -6.25 -10.8253 11.5
      vertex -1.25 -2.16506 11.5
      vertex -1.46946 -2.02254 11.5
    endloop
  endfacet
  facet normal 0 0 1
    outer loop
      vertex -7.34731 -10.1127 11.5
      vertex -1.46946 -2.02254 11.5
      vertex -1.67283 -1.85786 11.5
    endloop
  endfacet
  facet normal 0 0 1
    outer loop
      vertex -8.36413 -9.28931 11.5
      vertex -1.67283 -1.85786 11.5
      vertex -1.85786 -1.67283 11.5
    endloop
  endfacet
  facet normal 0 0 1
    outer loop
      vertex -9.28931 -8.36413 11.5
      vertex -1.85786 -1.67283 11.5
      vertex -2.02254 -1.46946 11.5
    endloop
  endfacet
  facet normal 0 0 1
    outer loop
      vertex -10.1127 -7.34731 11.5
      vertex -2.02254 -1.46946 11.5
      vertex -2.16506 -1.25 11.5
    endloop
  endfacet
  facet normal 0 0 1
    outer loop
      vertex -10.8253 -6.25 11.5
      vertex -2.16506 -1.25 11.5
      vertex -2.28386 -1.01684 11.5
    endloop
  endfacet
  facet normal 0 0 1
    outer loop
      vertex -11.4193 -5.08421 11.5
      vertex -2.28386 -1.01684 11.5
      vertex -2.37764 -0.772542 11.5
    endloop
  endfacet
  facet normal 0 0 1
    outer loop
      vertex -11.8882 -3.86271 11.5
      vertex -2.37764 -0.772542 11.5
      vertex -2.44537 -0.519779 11.5
    endloop
  endfacet
  facet normal 0 0 1
    outer loop
      vertex -12.2268 -2.5989 11.5
      vertex -2.44537 -0.519779 11.5
      vertex -2.4863 -0.261321 11.5
    endloop
  endfacet
  facet normal 0 0 1
    outer loop
      vertex -0.519779 -2.44537 11.5
      vertex -2.5989 -12.2268 11.5
      vertex -1.30661 -12.4315 11.5
    endloop
  endfacet
  facet normal 0 0 1
    outer loop
      vertex -12.4315 -1.30661 11.5
      vertex -2.4863 -0.261321 11.5
      vertex -2.5 0 11.5
    endloop
  endfacet
  facet normal -0 0 1
    outer loop
      vertex -10.1127 7.34731 11.5
      vertex -2.02254 1.46946 11.5
      vertex -9.28931 8.36413 11.5
    endloop
  endfacet
  facet normal 0 0 1
    outer loop
      vertex -2.02254 1.46946 11.5
      vertex -10.1127 7.34731 11.5
      vertex -2.16506 1.25 11.5
    endloop
  endfacet
  facet normal 0 0 1
    outer loop
      vertex -0.772542 -2.37764 11.5
      vertex -3.86271 -11.8882 11.5
      vertex -2.5989 -12.2268 11.5
    endloop
  endfacet
  facet normal -0 0 1
    outer loop
      vertex -10.8253 6.25 11.5
      vertex -2.16506 1.25 11.5
      vertex -10.1127 7.34731 11.5
    endloop
  endfacet
  facet normal 0 0 1
    outer loop
      vertex -1.01684 -2.28386 11.5
      vertex -5.08421 -11.4193 11.5
      vertex -3.86271 -11.8882 11.5
    endloop
  endfacet
  facet normal 0 0 1
    outer loop
      vertex -2.16506 1.25 11.5
      vertex -10.8253 6.25 11.5
      vertex -2.28386 1.01684 11.5
    endloop
  endfacet
  facet normal 0 0 1
    outer loop
      vertex -1.25 -2.16506 11.5
      vertex -6.25 -10.8253 11.5
      vertex -5.08421 -11.4193 11.5
    endloop
  endfacet
  facet normal -0 0 1
    outer loop
      vertex -11.4193 5.08421 11.5
      vertex -2.28386 1.01684 11.5
      vertex -10.8253 6.25 11.5
    endloop
  endfacet
  facet normal 0 0 1
    outer loop
      vertex -1.46946 -2.02254 11.5
      vertex -7.34731 -10.1127 11.5
      vertex -6.25 -10.8253 11.5
    endloop
  endfacet
  facet normal 0 0 1
    outer loop
      vertex -2.28386 1.01684 11.5
      vertex -11.4193 5.08421 11.5
      vertex -2.37764 0.772542 11.5
    endloop
  endfacet
  facet normal 0 0 1
    outer loop
      vertex -1.67283 -1.85786 11.5
      vertex -8.36413 -9.28931 11.5
      vertex -7.34731 -10.1127 11.5
    endloop
  endfacet
  facet normal -0 0 1
    outer loop
      vertex -11.8882 3.86271 11.5
      vertex -2.37764 0.772542 11.5
      vertex -11.4193 5.08421 11.5
    endloop
  endfacet
  facet normal 0 0 1
    outer loop
      vertex -1.85786 -1.67283 11.5
      vertex -9.28931 -8.36413 11.5
      vertex -8.36413 -9.28931 11.5
    endloop
  endfacet
  facet normal 0 0 1
    outer loop
      vertex -2.37764 0.772542 11.5
      vertex -11.8882 3.86271 11.5
      vertex -2.44537 0.519779 11.5
    endloop
  endfacet
  facet normal 0 0 1
    outer loop
      vertex -2.02254 -1.46946 11.5
      vertex -10.1127 -7.34731 11.5
      vertex -9.28931 -8.36413 11.5
    endloop
  endfacet
  facet normal -0 0 1
    outer loop
      vertex -12.2268 2.5989 11.5
      vertex -2.44537 0.519779 11.5
      vertex -11.8882 3.86271 11.5
    endloop
  endfacet
  facet normal 0 0 1
    outer loop
      vertex -2.16506 -1.25 11.5
      vertex -10.8253 -6.25 11.5
      vertex -10.1127 -7.34731 11.5
    endloop
  endfacet
  facet normal 0 0 1
    outer loop
      vertex -2.44537 0.519779 11.5
      vertex -12.2268 2.5989 11.5
      vertex -2.4863 0.261321 11.5
    endloop
  endfacet
  facet normal 0 0 1
    outer loop
      vertex -2.28386 -1.01684 11.5
      vertex -11.4193 -5.08421 11.5
      vertex -10.8253 -6.25 11.5
    endloop
  endfacet
  facet normal -0 0 1
    outer loop
      vertex -12.4315 1.30661 11.5
      vertex -2.4863 0.261321 11.5
      vertex -12.2268 2.5989 11.5
    endloop
  endfacet
  facet normal 0 0 1
    outer loop
      vertex -2.37764 -0.772542 11.5
      vertex -11.8882 -3.86271 11.5
      vertex -11.4193 -5.08421 11.5
    endloop
  endfacet
  facet normal 0 0 1
    outer loop
      vertex -2.4863 0.261321 11.5
      vertex -12.4315 1.30661 11.5
      vertex -2.5 0 11.5
    endloop
  endfacet
  facet normal 0 0 1
    outer loop
      vertex -2.44537 -0.519779 11.5
      vertex -12.2268 -2.5989 11.5
      vertex -11.8882 -3.86271 11.5
    endloop
  endfacet
  facet normal 0 0 1
    outer loop
      vertex -12.5 0 11.5
      vertex -2.5 0 11.5
      vertex -12.4315 1.30661 11.5
    endloop
  endfacet
  facet normal 0 0 1
    outer loop
      vertex -2.4863 -0.261321 11.5
      vertex -12.4315 -1.30661 11.5
      vertex -12.2268 -2.5989 11.5
    endloop
  endfacet
  facet normal 0 0 1
    outer loop
      vertex -2.5 0 11.5
      vertex -12.5 0 11.5
      vertex -12.4315 -1.30661 11.5
    endloop
  endfacet
  facet normal -0.453991 0.891006 0
    outer loop
      vertex -5.08421 11.4193 -8.5
      vertex -6.25 10.8253 11.5
      vertex -5.08421 11.4193 11.5
    endloop
  endfacet
  facet normal -0.453991 0.891006 0
    outer loop
      vertex -6.25 10.8253 11.5
      vertex -5.08421 11.4193 -8.5
      vertex -6.25 10.8253 -8.5
    endloop
  endfacet
  facet normal -0.0523363 0.99863 0
    outer loop
      vertex 0 12.5 -8.5
      vertex -1.30661 12.4315 11.5
      vertex 0 12.5 11.5
    endloop
  endfacet
  facet normal -0.0523363 0.99863 0
    outer loop
      vertex -1.30661 12.4315 11.5
      vertex 0 12.5 -8.5
      vertex -1.30661 12.4315 -8.5
    endloop
  endfacet
  facet normal 0.0523363 -0.99863 0
    outer loop
      vertex 0 -12.5 -8.5
      vertex 1.30661 -12.4315 11.5
      vertex 0 -12.5 11.5
    endloop
  endfacet
  facet normal 0.0523363 -0.99863 0
    outer loop
      vertex 1.30661 -12.4315 11.5
      vertex 0 -12.5 -8.5
      vertex 1.30661 -12.4315 -8.5
    endloop
  endfacet
  facet normal 0.45399 -0.891007 -1.05088e-007
    outer loop
      vertex 5.08421 -11.4193 11.5
      vertex 5.87932 -11.0142 8.5
      vertex 6.25 -10.8253 11.5
    endloop
  endfacet
  facet normal 0.453991 -0.891006 0
    outer loop
      vertex 5.08421 -11.4193 -8.5
      vertex 5.87932 -11.0142 8.5
      vertex 5.08421 -11.4193 11.5
    endloop
  endfacet
  facet normal 0.453991 -0.891006 0
    outer loop
      vertex 5.87932 -11.0142 8.5
      vertex 5.08421 -11.4193 -8.5
      vertex 5.87932 -11.0142 -8.5
    endloop
  endfacet
  facet normal 0.45399 -0.891007 0
    outer loop
      vertex 6.25 -10.8253 11.5
      vertex 5.87932 -11.0142 8.5
      vertex 6.25 -10.8253 8.5
    endloop
  endfacet
  facet normal 0.62932 -0.777146 0
    outer loop
      vertex 7.34731 -10.1127 8.5
      vertex 8.36413 -9.28931 11.5
      vertex 7.34731 -10.1127 11.5
    endloop
  endfacet
  facet normal 0.62932 -0.777146 0
    outer loop
      vertex 8.36413 -9.28931 11.5
      vertex 7.34731 -10.1127 8.5
      vertex 8.36413 -9.28931 8.5
    endloop
  endfacet
  facet normal 0.777146 -0.62932 0
    outer loop
      vertex 9.28931 -8.36413 11.5
      vertex 10.1127 -7.34731 8.5
      vertex 10.1127 -7.34731 11.5
    endloop
  endfacet
  facet normal 0.777146 -0.62932 0
    outer loop
      vertex 10.1127 -7.34731 8.5
      vertex 9.28931 -8.36413 11.5
      vertex 9.28931 -8.36413 8.5
    endloop
  endfacet
  facet normal 0.777146 -0.62932 0
    outer loop
      vertex 9.28931 -8.36413 5.2
      vertex 10.1127 -7.34731 -5.2
      vertex 10.1127 -7.34731 5.2
    endloop
  endfacet
  facet normal 0.777146 -0.62932 0
    outer loop
      vertex 10.1127 -7.34731 -5.2
      vertex 9.28931 -8.36413 5.2
      vertex 9.28931 -8.36413 -5.2
    endloop
  endfacet
  facet normal 0.83867 -0.544639 0
    outer loop
      vertex 10.1127 -7.34731 11.5
      vertex 10.8253 -6.25 8.5
      vertex 10.8253 -6.25 11.5
    endloop
  endfacet
  facet normal 0.83867 -0.544639 0
    outer loop
      vertex 10.8253 -6.25 8.5
      vertex 10.1127 -7.34731 11.5
      vertex 10.1127 -7.34731 8.5
    endloop
  endfacet
  facet normal 0.83867 -0.544639 0
    outer loop
      vertex 10.1127 -7.34731 5.2
      vertex 10.8253 -6.25 -5.2
      vertex 10.8253 -6.25 5.2
    endloop
  endfacet
  facet normal 0.83867 -0.544639 0
    outer loop
      vertex 10.8253 -6.25 -5.2
      vertex 10.1127 -7.34731 5.2
      vertex 10.1127 -7.34731 -5.2
    endloop
  endfacet
  facet normal -0.707107 -0.707107 0
    outer loop
      vertex -8.36413 -9.28931 -8.5
      vertex -9.28931 -8.36413 11.5
      vertex -9.28931 -8.36413 -8.5
    endloop
  endfacet
  facet normal -0.707107 -0.707107 0
    outer loop
      vertex -9.28931 -8.36413 11.5
      vertex -8.36413 -9.28931 -8.5
      vertex -8.36413 -9.28931 11.5
    endloop
  endfacet
  facet normal -0.62932 -0.777146 0
    outer loop
      vertex -8.36413 -9.28931 -8.5
      vertex -7.34731 -10.1127 11.5
      vertex -8.36413 -9.28931 11.5
    endloop
  endfacet
  facet normal -0.62932 -0.777146 -0
    outer loop
      vertex -7.34731 -10.1127 11.5
      vertex -8.36413 -9.28931 -8.5
      vertex -7.34731 -10.1127 -8.5
    endloop
  endfacet
  facet normal -0.54464 -0.83867 0
    outer loop
      vertex -7.34731 -10.1127 -8.5
      vertex -6.25 -10.8253 11.5
      vertex -7.34731 -10.1127 11.5
    endloop
  endfacet
  facet normal -0.54464 -0.83867 -0
    outer loop
      vertex -6.25 -10.8253 11.5
      vertex -7.34731 -10.1127 -8.5
      vertex -6.25 -10.8253 -8.5
    endloop
  endfacet
  facet normal -0.156434 -0.987688 0
    outer loop
      vertex -2.5989 -12.2268 -8.5
      vertex -1.30661 -12.4315 11.5
      vertex -2.5989 -12.2268 11.5
    endloop
  endfacet
  facet normal -0.156434 -0.987688 -0
    outer loop
      vertex -1.30661 -12.4315 11.5
      vertex -2.5989 -12.2268 -8.5
      vertex -1.30661 -12.4315 -8.5
    endloop
  endfacet
  facet normal -0.891006 -0.453991 0
    outer loop
      vertex -10.8253 -6.25 -8.5
      vertex -11.4193 -5.08421 11.5
      vertex -11.4193 -5.08421 -8.5
    endloop
  endfacet
  facet normal -0.891006 -0.453991 0
    outer loop
      vertex -11.4193 -5.08421 11.5
      vertex -10.8253 -6.25 -8.5
      vertex -10.8253 -6.25 11.5
    endloop
  endfacet
  facet normal -0.99863 -0.0523363 0
    outer loop
      vertex -12.4315 -1.30661 -8.5
      vertex -12.5 0 11.5
      vertex -12.5 0 -8.5
    endloop
  endfacet
  facet normal -0.99863 -0.0523363 0
    outer loop
      vertex -12.5 0 11.5
      vertex -12.4315 -1.30661 -8.5
      vertex -12.4315 -1.30661 11.5
    endloop
  endfacet
  facet normal 0.777146 0.62932 0
    outer loop
      vertex 10.1127 7.34731 11.5
      vertex 9.28931 8.36413 -8.5
      vertex 9.28931 8.36413 11.5
    endloop
  endfacet
  facet normal 0.777146 0.62932 0
    outer loop
      vertex 9.28931 8.36413 -8.5
      vertex 10.1127 7.34731 11.5
      vertex 10.1127 7.34731 -8.5
    endloop
  endfacet
  facet normal -0.707107 0.707107 0
    outer loop
      vertex -9.28931 8.36413 -8.5
      vertex -8.36413 9.28931 11.5
      vertex -8.36413 9.28931 -8.5
    endloop
  endfacet
  facet normal -0.707107 0.707107 0
    outer loop
      vertex -8.36413 9.28931 11.5
      vertex -9.28931 8.36413 -8.5
      vertex -9.28931 8.36413 11.5
    endloop
  endfacet
  facet normal -0.25882 0.965926 0
    outer loop
      vertex -2.5989 12.2268 -8.5
      vertex -3.86271 11.8882 11.5
      vertex -2.5989 12.2268 11.5
    endloop
  endfacet
  facet normal -0.25882 0.965926 0
    outer loop
      vertex -3.86271 11.8882 11.5
      vertex -2.5989 12.2268 -8.5
      vertex -3.86271 11.8882 -8.5
    endloop
  endfacet
  facet normal 0.156434 -0.987688 0
    outer loop
      vertex 1.30661 -12.4315 -8.5
      vertex 2.5989 -12.2268 11.5
      vertex 1.30661 -12.4315 11.5
    endloop
  endfacet
  facet normal 0.156434 -0.987688 0
    outer loop
      vertex 2.5989 -12.2268 11.5
      vertex 1.30661 -12.4315 -8.5
      vertex 2.5989 -12.2268 -8.5
    endloop
  endfacet
  facet normal 0.358367 -0.933581 0
    outer loop
      vertex 3.86271 -11.8882 -8.5
      vertex 5.08421 -11.4193 11.5
      vertex 3.86271 -11.8882 11.5
    endloop
  endfacet
  facet normal 0.358367 -0.933581 0
    outer loop
      vertex 5.08421 -11.4193 11.5
      vertex 3.86271 -11.8882 -8.5
      vertex 5.08421 -11.4193 -8.5
    endloop
  endfacet
  facet normal 0.54464 -0.83867 0
    outer loop
      vertex 6.25 -10.8253 8.5
      vertex 7.34731 -10.1127 11.5
      vertex 6.25 -10.8253 11.5
    endloop
  endfacet
  facet normal 0.54464 -0.83867 0
    outer loop
      vertex 7.34731 -10.1127 11.5
      vertex 6.25 -10.8253 8.5
      vertex 7.34731 -10.1127 8.5
    endloop
  endfacet
  facet normal 0.933581 -0.358367 0
    outer loop
      vertex 11.4193 -5.08421 11.5
      vertex 11.8882 -3.86271 8.5
      vertex 11.8882 -3.86271 11.5
    endloop
  endfacet
  facet normal 0.933581 -0.358367 0
    outer loop
      vertex 11.8882 -3.86271 8.5
      vertex 11.4193 -5.08421 11.5
      vertex 11.4193 -5.08421 8.5
    endloop
  endfacet
  facet normal 0.933581 -0.358367 0
    outer loop
      vertex 11.4193 -5.08421 5.2
      vertex 11.8882 -3.86271 -5.2
      vertex 11.8882 -3.86271 5.2
    endloop
  endfacet
  facet normal 0.933581 -0.358367 0
    outer loop
      vertex 11.8882 -3.86271 -5.2
      vertex 11.4193 -5.08421 5.2
      vertex 11.4193 -5.08421 -5.2
    endloop
  endfacet
  facet normal 0.987688 -0.156434 0
    outer loop
      vertex 12.2268 -2.5989 11.5
      vertex 12.4315 -1.30661 8.5
      vertex 12.4315 -1.30661 11.5
    endloop
  endfacet
  facet normal 0.987688 -0.156434 0
    outer loop
      vertex 12.4315 -1.30661 8.5
      vertex 12.2268 -2.5989 11.5
      vertex 12.2268 -2.5989 8.5
    endloop
  endfacet
  facet normal 0.987688 -0.156434 0
    outer loop
      vertex 12.2268 -2.5989 5.2
      vertex 12.4315 -1.30661 -5.2
      vertex 12.4315 -1.30661 5.2
    endloop
  endfacet
  facet normal 0.987688 -0.156434 0
    outer loop
      vertex 12.4315 -1.30661 -5.2
      vertex 12.2268 -2.5989 5.2
      vertex 12.2268 -2.5989 -5.2
    endloop
  endfacet
  facet normal -0.45399 -0.891007 0
    outer loop
      vertex -6.25 -10.8253 -8.5
      vertex -5.08421 -11.4193 11.5
      vertex -6.25 -10.8253 11.5
    endloop
  endfacet
  facet normal -0.45399 -0.891007 -0
    outer loop
      vertex -5.08421 -11.4193 11.5
      vertex -6.25 -10.8253 -8.5
      vertex -5.08421 -11.4193 -8.5
    endloop
  endfacet
  facet normal -0.25882 -0.965926 0
    outer loop
      vertex -3.86271 -11.8882 -8.5
      vertex -2.5989 -12.2268 11.5
      vertex -3.86271 -11.8882 11.5
    endloop
  endfacet
  facet normal -0.25882 -0.965926 -0
    outer loop
      vertex -2.5989 -12.2268 11.5
      vertex -3.86271 -11.8882 -8.5
      vertex -2.5989 -12.2268 -8.5
    endloop
  endfacet
  facet normal -0.0523363 -0.99863 0
    outer loop
      vertex -1.30661 -12.4315 -8.5
      vertex 0 -12.5 11.5
      vertex -1.30661 -12.4315 11.5
    endloop
  endfacet
  facet normal -0.0523363 -0.99863 -0
    outer loop
      vertex 0 -12.5 11.5
      vertex -1.30661 -12.4315 -8.5
      vertex 0 -12.5 -8.5
    endloop
  endfacet
  facet normal -0.83867 -0.544639 0
    outer loop
      vertex -10.1127 -7.34731 -8.5
      vertex -10.8253 -6.25 11.5
      vertex -10.8253 -6.25 -8.5
    endloop
  endfacet
  facet normal -0.83867 -0.544639 0
    outer loop
      vertex -10.8253 -6.25 11.5
      vertex -10.1127 -7.34731 -8.5
      vertex -10.1127 -7.34731 11.5
    endloop
  endfacet
  facet normal -0.933581 -0.358367 0
    outer loop
      vertex -11.4193 -5.08421 -8.5
      vertex -11.8882 -3.86271 11.5
      vertex -11.8882 -3.86271 -8.5
    endloop
  endfacet
  facet normal -0.933581 -0.358367 0
    outer loop
      vertex -11.8882 -3.86271 11.5
      vertex -11.4193 -5.08421 -8.5
      vertex -11.4193 -5.08421 11.5
    endloop
  endfacet
  facet normal -0.987688 -0.156434 0
    outer loop
      vertex -12.2268 -2.5989 -8.5
      vertex -12.4315 -1.30661 11.5
      vertex -12.4315 -1.30661 -8.5
    endloop
  endfacet
  facet normal -0.987688 -0.156434 0
    outer loop
      vertex -12.4315 -1.30661 11.5
      vertex -12.2268 -2.5989 -8.5
      vertex -12.2268 -2.5989 11.5
    endloop
  endfacet
  facet normal 0.99863 -0.0523363 0
    outer loop
      vertex 12.4315 -1.30661 11.5
      vertex 12.5 0 8.5
      vertex 12.5 0 11.5
    endloop
  endfacet
  facet normal 0.99863 -0.0523363 0
    outer loop
      vertex 12.5 0 8.5
      vertex 12.4315 -1.30661 11.5
      vertex 12.4315 -1.30661 8.5
    endloop
  endfacet
  facet normal 0.99863 -0.0523363 0
    outer loop
      vertex 12.4315 -1.30661 5.2
      vertex 12.5 0 -5.2
      vertex 12.5 0 5.2
    endloop
  endfacet
  facet normal 0.99863 -0.0523363 0
    outer loop
      vertex 12.5 0 -5.2
      vertex 12.4315 -1.30661 5.2
      vertex 12.4315 -1.30661 -5.2
    endloop
  endfacet
  facet normal -0.998629 -0.0523377 0
    outer loop
      vertex 2.5 0 -8.5
      vertex 2.4863 0.261321 11.5
      vertex 2.4863 0.261321 -8.5
    endloop
  endfacet
  facet normal -0.998629 -0.0523377 0
    outer loop
      vertex 2.4863 0.261321 11.5
      vertex 2.5 0 -8.5
      vertex 2.5 0 11.5
    endloop
  endfacet
  facet normal 0.998629 -0.0523377 0
    outer loop
      vertex -2.5 0 11.5
      vertex -2.4863 0.261321 -8.5
      vertex -2.4863 0.261321 11.5
    endloop
  endfacet
  facet normal 0.998629 -0.0523377 0
    outer loop
      vertex -2.4863 0.261321 -8.5
      vertex -2.5 0 11.5
      vertex -2.5 0 -8.5
    endloop
  endfacet
  facet normal -0.0523377 -0.998629 0
    outer loop
      vertex 0 2.5 -8.5
      vertex 0.261321 2.4863 11.5
      vertex 0 2.5 11.5
    endloop
  endfacet
  facet normal -0.0523377 -0.998629 -0
    outer loop
      vertex 0.261321 2.4863 11.5
      vertex 0 2.5 -8.5
      vertex 0.261321 2.4863 -8.5
    endloop
  endfacet
  facet normal 0.0523377 0.998629 -0
    outer loop
      vertex 0 -2.5 -8.5
      vertex -0.261321 -2.4863 11.5
      vertex 0 -2.5 11.5
    endloop
  endfacet
  facet normal 0.0523377 0.998629 0
    outer loop
      vertex -0.261321 -2.4863 11.5
      vertex 0 -2.5 -8.5
      vertex -0.261321 -2.4863 -8.5
    endloop
  endfacet
  facet normal -0.707107 -0.707107 0
    outer loop
      vertex 1.85786 1.67283 -8.5
      vertex 1.67283 1.85786 11.5
      vertex 1.67283 1.85786 -8.5
    endloop
  endfacet
  facet normal -0.707107 -0.707107 0
    outer loop
      vertex 1.67283 1.85786 11.5
      vertex 1.85786 1.67283 -8.5
      vertex 1.85786 1.67283 11.5
    endloop
  endfacet
  facet normal 0.62932 -0.777146 0
    outer loop
      vertex -1.67283 1.85786 -8.5
      vertex -1.46946 2.02254 11.5
      vertex -1.67283 1.85786 11.5
    endloop
  endfacet
  facet normal 0.62932 -0.777146 0
    outer loop
      vertex -1.46946 2.02254 11.5
      vertex -1.67283 1.85786 -8.5
      vertex -1.46946 2.02254 -8.5
    endloop
  endfacet
  facet normal 0.358368 -0.93358 0
    outer loop
      vertex -1.01684 2.28386 -8.5
      vertex -0.772542 2.37764 11.5
      vertex -1.01684 2.28386 11.5
    endloop
  endfacet
  facet normal 0.358368 -0.93358 0
    outer loop
      vertex -0.772542 2.37764 11.5
      vertex -1.01684 2.28386 -8.5
      vertex -0.772542 2.37764 -8.5
    endloop
  endfacet
  facet normal 0.965925 0.258821 0
    outer loop
      vertex -2.37764 -0.772542 11.5
      vertex -2.44537 -0.519779 -8.5
      vertex -2.44537 -0.519779 11.5
    endloop
  endfacet
  facet normal 0.965925 0.258821 0
    outer loop
      vertex -2.44537 -0.519779 -8.5
      vertex -2.37764 -0.772542 11.5
      vertex -2.37764 -0.772542 -8.5
    endloop
  endfacet
  facet normal -0.93358 -0.358368 0
    outer loop
      vertex 2.37764 0.772542 -8.5
      vertex 2.28386 1.01684 11.5
      vertex 2.28386 1.01684 -8.5
    endloop
  endfacet
  facet normal -0.93358 -0.358368 0
    outer loop
      vertex 2.28386 1.01684 11.5
      vertex 2.37764 0.772542 -8.5
      vertex 2.37764 0.772542 11.5
    endloop
  endfacet
  facet normal -0.987688 -0.156434 0
    outer loop
      vertex 2.4863 0.261321 -8.5
      vertex 2.44537 0.519779 11.5
      vertex 2.44537 0.519779 -8.5
    endloop
  endfacet
  facet normal -0.987688 -0.156434 0
    outer loop
      vertex 2.44537 0.519779 11.5
      vertex 2.4863 0.261321 -8.5
      vertex 2.4863 0.261321 11.5
    endloop
  endfacet
  facet normal -0.45399 -0.891007 0
    outer loop
      vertex 1.01684 2.28386 -8.5
      vertex 1.25 2.16506 11.5
      vertex 1.01684 2.28386 11.5
    endloop
  endfacet
  facet normal -0.45399 -0.891007 -0
    outer loop
      vertex 1.25 2.16506 11.5
      vertex 1.01684 2.28386 -8.5
      vertex 1.25 2.16506 -8.5
    endloop
  endfacet
  facet normal -0.54464 -0.83867 0
    outer loop
      vertex 1.25 2.16506 -8.5
      vertex 1.46946 2.02254 11.5
      vertex 1.25 2.16506 11.5
    endloop
  endfacet
  facet normal -0.54464 -0.83867 -0
    outer loop
      vertex 1.46946 2.02254 11.5
      vertex 1.25 2.16506 -8.5
      vertex 1.46946 2.02254 -8.5
    endloop
  endfacet
  facet normal 0.838671 -0.544638 0
    outer loop
      vertex -2.16506 1.25 11.5
      vertex -2.02254 1.46946 -8.5
      vertex -2.02254 1.46946 11.5
    endloop
  endfacet
  facet normal 0.838671 -0.544638 0
    outer loop
      vertex -2.02254 1.46946 -8.5
      vertex -2.16506 1.25 11.5
      vertex -2.16506 1.25 -8.5
    endloop
  endfacet
  facet normal 0.777146 -0.62932 0
    outer loop
      vertex -2.02254 1.46946 11.5
      vertex -1.85786 1.67283 -8.5
      vertex -1.85786 1.67283 11.5
    endloop
  endfacet
  facet normal 0.777146 -0.62932 0
    outer loop
      vertex -1.85786 1.67283 -8.5
      vertex -2.02254 1.46946 11.5
      vertex -2.02254 1.46946 -8.5
    endloop
  endfacet
  facet normal 0.544638 -0.838671 0
    outer loop
      vertex -1.46946 2.02254 -8.5
      vertex -1.25 2.16506 11.5
      vertex -1.46946 2.02254 11.5
    endloop
  endfacet
  facet normal 0.544638 -0.838671 0
    outer loop
      vertex -1.25 2.16506 11.5
      vertex -1.46946 2.02254 -8.5
      vertex -1.25 2.16506 -8.5
    endloop
  endfacet
  facet normal 0.156434 -0.987688 0
    outer loop
      vertex -0.519779 2.44537 -8.5
      vertex -0.261321 2.4863 11.5
      vertex -0.519779 2.44537 11.5
    endloop
  endfacet
  facet normal 0.156434 -0.987688 0
    outer loop
      vertex -0.261321 2.4863 11.5
      vertex -0.519779 2.44537 -8.5
      vertex -0.261321 2.4863 -8.5
    endloop
  endfacet
  facet normal -0.891006 0.453991 0
    outer loop
      vertex 2.16506 -1.25 -8.5
      vertex 2.28386 -1.01684 11.5
      vertex 2.28386 -1.01684 -8.5
    endloop
  endfacet
  facet normal -0.891006 0.453991 0
    outer loop
      vertex 2.28386 -1.01684 11.5
      vertex 2.16506 -1.25 -8.5
      vertex 2.16506 -1.25 11.5
    endloop
  endfacet
  facet normal -0.258821 0.965925 0
    outer loop
      vertex 0.772542 -2.37764 -8.5
      vertex 0.519779 -2.44537 11.5
      vertex 0.772542 -2.37764 11.5
    endloop
  endfacet
  facet normal -0.258821 0.965925 0
    outer loop
      vertex 0.519779 -2.44537 11.5
      vertex 0.772542 -2.37764 -8.5
      vertex 0.519779 -2.44537 -8.5
    endloop
  endfacet
  facet normal -0.707107 0.707107 0
    outer loop
      vertex 1.67283 -1.85786 -8.5
      vertex 1.85786 -1.67283 11.5
      vertex 1.85786 -1.67283 -8.5
    endloop
  endfacet
  facet normal -0.707107 0.707107 0
    outer loop
      vertex 1.85786 -1.67283 11.5
      vertex 1.67283 -1.85786 -8.5
      vertex 1.67283 -1.85786 11.5
    endloop
  endfacet
  facet normal -0.965925 0.258821 0
    outer loop
      vertex 2.37764 -0.772542 -8.5
      vertex 2.44537 -0.519779 11.5
      vertex 2.44537 -0.519779 -8.5
    endloop
  endfacet
  facet normal -0.965925 0.258821 0
    outer loop
      vertex 2.44537 -0.519779 11.5
      vertex 2.37764 -0.772542 -8.5
      vertex 2.37764 -0.772542 11.5
    endloop
  endfacet
  facet normal 0.358368 0.93358 -0
    outer loop
      vertex -0.772542 -2.37764 -8.5
      vertex -1.01684 -2.28386 11.5
      vertex -0.772542 -2.37764 11.5
    endloop
  endfacet
  facet normal 0.358368 0.93358 0
    outer loop
      vertex -1.01684 -2.28386 11.5
      vertex -0.772542 -2.37764 -8.5
      vertex -1.01684 -2.28386 -8.5
    endloop
  endfacet
  facet normal 0.777146 0.62932 0
    outer loop
      vertex -1.85786 -1.67283 11.5
      vertex -2.02254 -1.46946 -8.5
      vertex -2.02254 -1.46946 11.5
    endloop
  endfacet
  facet normal 0.777146 0.62932 0
    outer loop
      vertex -2.02254 -1.46946 -8.5
      vertex -1.85786 -1.67283 11.5
      vertex -1.85786 -1.67283 -8.5
    endloop
  endfacet
  facet normal -0.965925 -0.258821 0
    outer loop
      vertex 2.44537 0.519779 -8.5
      vertex 2.37764 0.772542 11.5
      vertex 2.37764 0.772542 -8.5
    endloop
  endfacet
  facet normal -0.965925 -0.258821 0
    outer loop
      vertex 2.37764 0.772542 11.5
      vertex 2.44537 0.519779 -8.5
      vertex 2.44537 0.519779 11.5
    endloop
  endfacet
  facet normal -0.838671 -0.544638 0
    outer loop
      vertex 2.16506 1.25 -8.5
      vertex 2.02254 1.46946 11.5
      vertex 2.02254 1.46946 -8.5
    endloop
  endfacet
  facet normal -0.838671 -0.544638 0
    outer loop
      vertex 2.02254 1.46946 11.5
      vertex 2.16506 1.25 -8.5
      vertex 2.16506 1.25 11.5
    endloop
  endfacet
  facet normal -0.777146 -0.62932 0
    outer loop
      vertex 2.02254 1.46946 -8.5
      vertex 1.85786 1.67283 11.5
      vertex 1.85786 1.67283 -8.5
    endloop
  endfacet
  facet normal -0.777146 -0.62932 0
    outer loop
      vertex 1.85786 1.67283 11.5
      vertex 2.02254 1.46946 -8.5
      vertex 2.02254 1.46946 11.5
    endloop
  endfacet
  facet normal -0.891006 -0.453991 0
    outer loop
      vertex 2.28386 1.01684 -8.5
      vertex 2.16506 1.25 11.5
      vertex 2.16506 1.25 -8.5
    endloop
  endfacet
  facet normal -0.891006 -0.453991 0
    outer loop
      vertex 2.16506 1.25 11.5
      vertex 2.28386 1.01684 -8.5
      vertex 2.28386 1.01684 11.5
    endloop
  endfacet
  facet normal -0.258821 -0.965925 0
    outer loop
      vertex 0.519779 2.44537 -8.5
      vertex 0.772542 2.37764 11.5
      vertex 0.519779 2.44537 11.5
    endloop
  endfacet
  facet normal -0.258821 -0.965925 -0
    outer loop
      vertex 0.772542 2.37764 11.5
      vertex 0.519779 2.44537 -8.5
      vertex 0.772542 2.37764 -8.5
    endloop
  endfacet
  facet normal -0.156434 -0.987688 0
    outer loop
      vertex 0.261321 2.4863 -8.5
      vertex 0.519779 2.44537 11.5
      vertex 0.261321 2.4863 11.5
    endloop
  endfacet
  facet normal -0.156434 -0.987688 -0
    outer loop
      vertex 0.519779 2.44537 11.5
      vertex 0.261321 2.4863 -8.5
      vertex 0.519779 2.44537 -8.5
    endloop
  endfacet
  facet normal -0.62932 -0.777146 0
    outer loop
      vertex 1.46946 2.02254 -8.5
      vertex 1.67283 1.85786 11.5
      vertex 1.46946 2.02254 11.5
    endloop
  endfacet
  facet normal -0.62932 -0.777146 -0
    outer loop
      vertex 1.67283 1.85786 11.5
      vertex 1.46946 2.02254 -8.5
      vertex 1.67283 1.85786 -8.5
    endloop
  endfacet
  facet normal 0.965925 -0.258821 0
    outer loop
      vertex -2.44537 0.519779 11.5
      vertex -2.37764 0.772542 -8.5
      vertex -2.37764 0.772542 11.5
    endloop
  endfacet
  facet normal 0.965925 -0.258821 0
    outer loop
      vertex -2.37764 0.772542 -8.5
      vertex -2.44537 0.519779 11.5
      vertex -2.44537 0.519779 -8.5
    endloop
  endfacet
  facet normal 0.707107 -0.707107 0
    outer loop
      vertex -1.85786 1.67283 11.5
      vertex -1.67283 1.85786 -8.5
      vertex -1.67283 1.85786 11.5
    endloop
  endfacet
  facet normal 0.707107 -0.707107 0
    outer loop
      vertex -1.67283 1.85786 -8.5
      vertex -1.85786 1.67283 11.5
      vertex -1.85786 1.67283 -8.5
    endloop
  endfacet
  facet normal 0.891006 -0.453991 0
    outer loop
      vertex -2.28386 1.01684 11.5
      vertex -2.16506 1.25 -8.5
      vertex -2.16506 1.25 11.5
    endloop
  endfacet
  facet normal 0.891006 -0.453991 0
    outer loop
      vertex -2.16506 1.25 -8.5
      vertex -2.28386 1.01684 11.5
      vertex -2.28386 1.01684 -8.5
    endloop
  endfacet
  facet normal 0.93358 -0.358368 0
    outer loop
      vertex -2.37764 0.772542 11.5
      vertex -2.28386 1.01684 -8.5
      vertex -2.28386 1.01684 11.5
    endloop
  endfacet
  facet normal 0.93358 -0.358368 0
    outer loop
      vertex -2.28386 1.01684 -8.5
      vertex -2.37764 0.772542 11.5
      vertex -2.37764 0.772542 -8.5
    endloop
  endfacet
  facet normal 0.987688 -0.156434 0
    outer loop
      vertex -2.4863 0.261321 11.5
      vertex -2.44537 0.519779 -8.5
      vertex -2.44537 0.519779 11.5
    endloop
  endfacet
  facet normal 0.987688 -0.156434 0
    outer loop
      vertex -2.44537 0.519779 -8.5
      vertex -2.4863 0.261321 11.5
      vertex -2.4863 0.261321 -8.5
    endloop
  endfacet
  facet normal 0.453991 -0.891006 0
    outer loop
      vertex -1.25 2.16506 -8.5
      vertex -1.01684 2.28386 11.5
      vertex -1.25 2.16506 11.5
    endloop
  endfacet
  facet normal 0.453991 -0.891006 0
    outer loop
      vertex -1.01684 2.28386 11.5
      vertex -1.25 2.16506 -8.5
      vertex -1.01684 2.28386 -8.5
    endloop
  endfacet
  facet normal 0.0523377 -0.998629 0
    outer loop
      vertex -0.261321 2.4863 -8.5
      vertex 0 2.5 11.5
      vertex -0.261321 2.4863 11.5
    endloop
  endfacet
  facet normal 0.0523377 -0.998629 0
    outer loop
      vertex 0 2.5 11.5
      vertex -0.261321 2.4863 -8.5
      vertex 0 2.5 -8.5
    endloop
  endfacet
  facet normal -0.998629 0.0523377 0
    outer loop
      vertex 2.4863 -0.261321 -8.5
      vertex 2.5 0 11.5
      vertex 2.5 0 -8.5
    endloop
  endfacet
  facet normal -0.998629 0.0523377 0
    outer loop
      vertex 2.5 0 11.5
      vertex 2.4863 -0.261321 -8.5
      vertex 2.4863 -0.261321 11.5
    endloop
  endfacet
  facet normal -0.0523377 0.998629 0
    outer loop
      vertex 0.261321 -2.4863 -8.5
      vertex 0 -2.5 11.5
      vertex 0.261321 -2.4863 11.5
    endloop
  endfacet
  facet normal -0.0523377 0.998629 0
    outer loop
      vertex 0 -2.5 11.5
      vertex 0.261321 -2.4863 -8.5
      vertex 0 -2.5 -8.5
    endloop
  endfacet
  facet normal -0.45399 0.891007 0
    outer loop
      vertex 1.25 -2.16506 -8.5
      vertex 1.01684 -2.28386 11.5
      vertex 1.25 -2.16506 11.5
    endloop
  endfacet
  facet normal -0.45399 0.891007 0
    outer loop
      vertex 1.01684 -2.28386 11.5
      vertex 1.25 -2.16506 -8.5
      vertex 1.01684 -2.28386 -8.5
    endloop
  endfacet
  facet normal -0.62932 0.777146 0
    outer loop
      vertex 1.67283 -1.85786 -8.5
      vertex 1.46946 -2.02254 11.5
      vertex 1.67283 -1.85786 11.5
    endloop
  endfacet
  facet normal -0.62932 0.777146 0
    outer loop
      vertex 1.46946 -2.02254 11.5
      vertex 1.67283 -1.85786 -8.5
      vertex 1.46946 -2.02254 -8.5
    endloop
  endfacet
  facet normal -0.777146 0.62932 0
    outer loop
      vertex 1.85786 -1.67283 -8.5
      vertex 2.02254 -1.46946 11.5
      vertex 2.02254 -1.46946 -8.5
    endloop
  endfacet
  facet normal -0.777146 0.62932 0
    outer loop
      vertex 2.02254 -1.46946 11.5
      vertex 1.85786 -1.67283 -8.5
      vertex 1.85786 -1.67283 11.5
    endloop
  endfacet
  facet normal -0.838671 0.544638 0
    outer loop
      vertex 2.02254 -1.46946 -8.5
      vertex 2.16506 -1.25 11.5
      vertex 2.16506 -1.25 -8.5
    endloop
  endfacet
  facet normal -0.838671 0.544638 0
    outer loop
      vertex 2.16506 -1.25 11.5
      vertex 2.02254 -1.46946 -8.5
      vertex 2.02254 -1.46946 11.5
    endloop
  endfacet
  facet normal 0.707107 0.707107 0
    outer loop
      vertex -1.67283 -1.85786 11.5
      vertex -1.85786 -1.67283 -8.5
      vertex -1.85786 -1.67283 11.5
    endloop
  endfacet
  facet normal 0.707107 0.707107 0
    outer loop
      vertex -1.85786 -1.67283 -8.5
      vertex -1.67283 -1.85786 11.5
      vertex -1.67283 -1.85786 -8.5
    endloop
  endfacet
  facet normal 0.62932 0.777146 -0
    outer loop
      vertex -1.46946 -2.02254 -8.5
      vertex -1.67283 -1.85786 11.5
      vertex -1.46946 -2.02254 11.5
    endloop
  endfacet
  facet normal 0.62932 0.777146 0
    outer loop
      vertex -1.67283 -1.85786 11.5
      vertex -1.46946 -2.02254 -8.5
      vertex -1.67283 -1.85786 -8.5
    endloop
  endfacet
  facet normal 0.54464 0.83867 -0
    outer loop
      vertex -1.25 -2.16506 -8.5
      vertex -1.46946 -2.02254 11.5
      vertex -1.25 -2.16506 11.5
    endloop
  endfacet
  facet normal 0.54464 0.83867 0
    outer loop
      vertex -1.46946 -2.02254 11.5
      vertex -1.25 -2.16506 -8.5
      vertex -1.46946 -2.02254 -8.5
    endloop
  endfacet
  facet normal 0.156434 0.987688 -0
    outer loop
      vertex -0.261321 -2.4863 -8.5
      vertex -0.519779 -2.44537 11.5
      vertex -0.261321 -2.4863 11.5
    endloop
  endfacet
  facet normal 0.156434 0.987688 0
    outer loop
      vertex -0.519779 -2.44537 11.5
      vertex -0.261321 -2.4863 -8.5
      vertex -0.519779 -2.44537 -8.5
    endloop
  endfacet
  facet normal 0.891006 0.453991 0
    outer loop
      vertex -2.16506 -1.25 11.5
      vertex -2.28386 -1.01684 -8.5
      vertex -2.28386 -1.01684 11.5
    endloop
  endfacet
  facet normal 0.891006 0.453991 0
    outer loop
      vertex -2.28386 -1.01684 -8.5
      vertex -2.16506 -1.25 11.5
      vertex -2.16506 -1.25 -8.5
    endloop
  endfacet
  facet normal 0.93358 0.358368 0
    outer loop
      vertex -2.28386 -1.01684 11.5
      vertex -2.37764 -0.772542 -8.5
      vertex -2.37764 -0.772542 11.5
    endloop
  endfacet
  facet normal 0.93358 0.358368 0
    outer loop
      vertex -2.37764 -0.772542 -8.5
      vertex -2.28386 -1.01684 11.5
      vertex -2.28386 -1.01684 -8.5
    endloop
  endfacet
  facet normal 0.998629 0.0523377 0
    outer loop
      vertex -2.4863 -0.261321 11.5
      vertex -2.5 0 -8.5
      vertex -2.5 0 11.5
    endloop
  endfacet
  facet normal 0.998629 0.0523377 0
    outer loop
      vertex -2.5 0 -8.5
      vertex -2.4863 -0.261321 11.5
      vertex -2.4863 -0.261321 -8.5
    endloop
  endfacet
  facet normal -0.358368 -0.93358 0
    outer loop
      vertex 0.772542 2.37764 -8.5
      vertex 1.01684 2.28386 11.5
      vertex 0.772542 2.37764 11.5
    endloop
  endfacet
  facet normal -0.358368 -0.93358 -0
    outer loop
      vertex 1.01684 2.28386 11.5
      vertex 0.772542 2.37764 -8.5
      vertex 1.01684 2.28386 -8.5
    endloop
  endfacet
  facet normal 0.258821 -0.965925 0
    outer loop
      vertex -0.772542 2.37764 -8.5
      vertex -0.519779 2.44537 11.5
      vertex -0.772542 2.37764 11.5
    endloop
  endfacet
  facet normal 0.258821 -0.965925 0
    outer loop
      vertex -0.519779 2.44537 11.5
      vertex -0.772542 2.37764 -8.5
      vertex -0.519779 2.44537 -8.5
    endloop
  endfacet
  facet normal -0.156434 0.987688 0
    outer loop
      vertex 0.519779 -2.44537 -8.5
      vertex 0.261321 -2.4863 11.5
      vertex 0.519779 -2.44537 11.5
    endloop
  endfacet
  facet normal -0.156434 0.987688 0
    outer loop
      vertex 0.261321 -2.4863 11.5
      vertex 0.519779 -2.44537 -8.5
      vertex 0.261321 -2.4863 -8.5
    endloop
  endfacet
  facet normal -0.358368 0.93358 0
    outer loop
      vertex 1.01684 -2.28386 -8.5
      vertex 0.772542 -2.37764 11.5
      vertex 1.01684 -2.28386 11.5
    endloop
  endfacet
  facet normal -0.358368 0.93358 0
    outer loop
      vertex 0.772542 -2.37764 11.5
      vertex 1.01684 -2.28386 -8.5
      vertex 0.772542 -2.37764 -8.5
    endloop
  endfacet
  facet normal -0.54464 0.83867 0
    outer loop
      vertex 1.46946 -2.02254 -8.5
      vertex 1.25 -2.16506 11.5
      vertex 1.46946 -2.02254 11.5
    endloop
  endfacet
  facet normal -0.54464 0.83867 0
    outer loop
      vertex 1.25 -2.16506 11.5
      vertex 1.46946 -2.02254 -8.5
      vertex 1.25 -2.16506 -8.5
    endloop
  endfacet
  facet normal -0.93358 0.358368 0
    outer loop
      vertex 2.28386 -1.01684 -8.5
      vertex 2.37764 -0.772542 11.5
      vertex 2.37764 -0.772542 -8.5
    endloop
  endfacet
  facet normal -0.93358 0.358368 0
    outer loop
      vertex 2.37764 -0.772542 11.5
      vertex 2.28386 -1.01684 -8.5
      vertex 2.28386 -1.01684 11.5
    endloop
  endfacet
  facet normal -0.987688 0.156434 0
    outer loop
      vertex 2.44537 -0.519779 -8.5
      vertex 2.4863 -0.261321 11.5
      vertex 2.4863 -0.261321 -8.5
    endloop
  endfacet
  facet normal -0.987688 0.156434 0
    outer loop
      vertex 2.4863 -0.261321 11.5
      vertex 2.44537 -0.519779 -8.5
      vertex 2.44537 -0.519779 11.5
    endloop
  endfacet
  facet normal 0.45399 0.891007 -0
    outer loop
      vertex -1.01684 -2.28386 -8.5
      vertex -1.25 -2.16506 11.5
      vertex -1.01684 -2.28386 11.5
    endloop
  endfacet
  facet normal 0.45399 0.891007 0
    outer loop
      vertex -1.25 -2.16506 11.5
      vertex -1.01684 -2.28386 -8.5
      vertex -1.25 -2.16506 -8.5
    endloop
  endfacet
  facet normal 0.258821 0.965925 -0
    outer loop
      vertex -0.519779 -2.44537 -8.5
      vertex -0.772542 -2.37764 11.5
      vertex -0.519779 -2.44537 11.5
    endloop
  endfacet
  facet normal 0.258821 0.965925 0
    outer loop
      vertex -0.772542 -2.37764 11.5
      vertex -0.519779 -2.44537 -8.5
      vertex -0.772542 -2.37764 -8.5
    endloop
  endfacet
  facet normal 0.838671 0.544638 0
    outer loop
      vertex -2.02254 -1.46946 11.5
      vertex -2.16506 -1.25 -8.5
      vertex -2.16506 -1.25 11.5
    endloop
  endfacet
  facet normal 0.838671 0.544638 0
    outer loop
      vertex -2.16506 -1.25 -8.5
      vertex -2.02254 -1.46946 11.5
      vertex -2.02254 -1.46946 -8.5
    endloop
  endfacet
  facet normal 0.987688 0.156434 0
    outer loop
      vertex -2.44537 -0.519779 11.5
      vertex -2.4863 -0.261321 -8.5
      vertex -2.4863 -0.261321 11.5
    endloop
  endfacet
  facet normal 0.987688 0.156434 0
    outer loop
      vertex -2.4863 -0.261321 -8.5
      vertex -2.44537 -0.519779 11.5
      vertex -2.44537 -0.519779 -8.5
    endloop
  endfacet
endsolid OpenSCAD_Model
